0
SECTION
2
HEADER
9
$INSUNITS
70
4
9
$ACADVER
1
AC1014
9
$HANDSEED
5
FFFF
0
ENDSEC
0
SECTION
2
TABLES
0
TABLE
2
VPORT
5
8
100
AcDbSymbolTable
0
ENDTAB
0
TABLE
2
LTYPE
5
5
100
AcDbSymbolTable
0
LTYPE
5
14
100
AcDbSymbolTableRecord
100
AcDbLinetypeTableRecord
2
BYBLOCK
70
0
0
LTYPE
5
15
100
AcDbSymbolTableRecord
100
AcDbLinetypeTableRecord
2
BYLAYER
70
0
0
LTYPE
5
16
100
AcDbSymbolTableRecord
100
AcDbLinetypeTableRecord
2
DASHED
70
0
3
Dashed __ __ __ __ __ __ __ __ __ __ __ __ __ _
72
65
73
2
40
0.75
49
0.5
74
0
49
-0.25
74
0
0
ENDTAB
0
TABLE
2
LAYER
5
2
100
AcDbSymbolTable
70
2
0
LAYER
5
50
100
AcDbSymbolTableRecord
100
AcDbLayerTableRecord
2
0
70
0
62
7
6
CONTINUOUS
0
ENDTAB
0
TABLE
2
STYLE
5
3
100
AcDbSymbolTable
70
1
0
STYLE
5
11
100
AcDbSymbolTableRecord
100
AcDbTextStyleTableRecord
2
STANDARD
70
0
0
ENDTAB
0
TABLE
2
VIEW
5
6
100
AcDbSymbolTable
70
0
0
ENDTAB
0
TABLE
2
UCS
5
7
100
AcDbSymbolTable
70
0
0
ENDTAB
0
TABLE
2
APPID
5
9
100
AcDbSymbolTable
70
2
0
APPID
5
12
100
AcDbSymbolTableRecord
100
AcDbRegAppTableRecord
2
ACAD
70
0
0
ENDTAB
0
TABLE
2
DIMSTYLE
5
A
100
AcDbSymbolTable
70
1
0
ENDTAB
0
TABLE
2
BLOCK_RECORD
5
1
100
AcDbSymbolTable
70
1
0
BLOCK_RECORD
5
1F
100
AcDbSymbolTableRecord
100
AcDbBlockTableRecord
2
*MODEL_SPACE
0
BLOCK_RECORD
5
1B
100
AcDbSymbolTableRecord
100
AcDbBlockTableRecord
2
*PAPER_SPACE
0
ENDTAB
0
ENDSEC
0
SECTION
2
BLOCKS
0
BLOCK
5
20
100
AcDbEntity
100
AcDbBlockBegin
2
*MODEL_SPACE
0
ENDBLK
5
21
100
AcDbEntity
100
AcDbBlockEnd
0
BLOCK
5
1C
100
AcDbEntity
100
AcDbBlockBegin
2
*PAPER_SPACE
0
ENDBLK
5
1D
100
AcDbEntity
100
AcDbBlockEnd
0
ENDSEC
0
SECTION
2
ENTITIES
0
POINT
5
100
100
AcDbEntity
8
0
100
AcDbPoint
10
0
20
0
30
0
0
LWPOLYLINE
5
101
100
AcDbEntity
8
0
100
AcDbPolyline
90
12
70
1
43
0.0
10
-45
20
-175
10
-35
20
-175
10
-35
20
-180
10
-30
20
-180
10
-30
20
-190
10
-35
20
-190
10
-35
20
-195
10
-45
20
-195
10
-45
20
-190
10
-50
20
-190
10
-50
20
-180
10
-45
20
-180
0
LWPOLYLINE
5
102
100
AcDbEntity
8
0
100
AcDbPolyline
90
140
70
1
43
0.0
10
0
20
22.222222222222214
10
0
20
33.333333333333321
10
6.4999999999999858
20
33.333333333333321
10
6.4999999999999858
20
44.444444444444429
10
0
20
44.444444444444429
10
0
20
55.555555555555571
10
6.4999999999999858
20
55.555555555555571
10
6.4999999999999858
20
66.666666666666643
10
0
20
66.666666666666643
10
0
20
77.777777777777786
10
6.4999999999999858
20
77.777777777777786
10
6.4999999999999858
20
88.888888888888886
10
0
20
88.888888888888886
10
0
20
100
10
-200
20
100
10
-200
20
88.888888888888886
10
-206.5
20
88.888888888888886
10
-206.5
20
77.777777777777786
10
-200
20
77.777777777777786
10
-200
20
66.666666666666643
10
-206.5
20
66.666666666666643
10
-206.5
20
55.555555555555571
10
-200
20
55.555555555555571
10
-200
20
44.444444444444429
10
-206.5
20
44.444444444444429
10
-206.5
20
33.333333333333321
10
-200
20
33.333333333333321
10
-200
20
22.222222222222214
10
-206.5
20
22.222222222222214
10
-206.5
20
11.111111111111107
10
-200
20
11.111111111111107
10
-200
20
6.5000000000000036
10
-211.11111111111111
20
6.5000000000000036
10
-211.11111111111111
20
0
10
-222.22222222222223
20
0
10
-222.22222222222223
20
6.5000000000000036
10
-233.33333333333331
20
6.5000000000000036
10
-233.33333333333331
20
0
10
-244.44444444444443
20
0
10
-244.44444444444443
20
6.5000000000000036
10
-255.55555555555557
20
6.5000000000000036
10
-255.55555555555557
20
0
10
-266.66666666666663
20
0
10
-266.66666666666663
20
6.5000000000000036
10
-277.77777777777777
20
6.5000000000000036
10
-277.77777777777777
20
0
10
-288.88888888888891
20
0
10
-288.88888888888891
20
6.5000000000000036
10
-300
20
6.5000000000000036
10
-300
20
-126.5
10
-288.88888888888891
20
-126.5
10
-288.88888888888891
20
-120
10
-277.77777777777777
20
-120
10
-277.77777777777777
20
-126.5
10
-266.66666666666669
20
-126.5
10
-266.66666666666669
20
-120
10
-255.55555555555557
20
-120
10
-255.55555555555557
20
-126.5
10
-244.44444444444443
20
-126.5
10
-244.44444444444443
20
-120
10
-233.33333333333331
20
-120
10
-233.33333333333331
20
-126.5
10
-222.22222222222223
20
-126.5
10
-222.22222222222223
20
-120
10
-211.11111111111111
20
-120
10
-211.11111111111111
20
-126.5
10
-200
20
-126.5
10
-200
20
-131.11111111111111
10
-206.5
20
-131.11111111111111
10
-206.5
20
-142.22222222222223
10
-200
20
-142.22222222222223
10
-200
20
-153.33333333333331
10
-206.5
20
-153.33333333333331
10
-206.5
20
-164.44444444444443
10
-200
20
-164.44444444444443
10
-200
20
-175.55555555555557
10
-206.5
20
-175.55555555555557
10
-206.5
20
-186.66666666666663
10
-200
20
-186.66666666666669
10
-200
20
-197.77777777777777
10
-206.5
20
-197.77777777777777
10
-206.5
20
-208.88888888888889
10
-200
20
-208.88888888888889
10
-200
20
-220
10
0
20
-220
10
0
20
-208.88888888888889
10
6.4999999999999858
20
-208.88888888888889
10
6.4999999999999858
20
-197.77777777777777
10
0
20
-197.77777777777777
10
0
20
-186.66666666666669
10
6.4999999999999858
20
-186.66666666666663
10
6.4999999999999858
20
-175.55555555555557
10
0
20
-175.55555555555557
10
0
20
-164.44444444444443
10
6.4999999999999858
20
-164.44444444444443
10
6.4999999999999858
20
-153.33333333333331
10
0
20
-153.33333333333331
10
0
20
-142.22222222222223
10
6.4999999999999858
20
-142.22222222222223
10
6.4999999999999858
20
-131.11111111111111
10
0
20
-131.11111111111111
10
0
20
-126.5
10
11.111111111111107
20
-126.5
10
11.111111111111107
20
-120
10
22.222222222222214
20
-120
10
22.222222222222214
20
-126.5
10
33.333333333333321
20
-126.5
10
33.333333333333321
20
-120
10
44.444444444444429
20
-120
10
44.444444444444429
20
-126.5
10
55.555555555555571
20
-126.5
10
55.555555555555571
20
-120
10
66.666666666666643
20
-120
10
66.666666666666686
20
-126.5
10
77.777777777777786
20
-126.5
10
77.777777777777786
20
-120
10
88.888888888888886
20
-120
10
88.888888888888886
20
-126.5
10
100
20
-126.5
10
100
20
6.5000000000000036
10
88.888888888888886
20
6.5000000000000036
10
88.888888888888886
20
0
10
77.777777777777786
20
0
10
77.777777777777786
20
6.5000000000000036
10
66.666666666666686
20
6.5000000000000036
10
66.666666666666643
20
0
10
55.555555555555571
20
0
10
55.555555555555571
20
6.5000000000000036
10
44.444444444444429
20
6.5000000000000036
10
44.444444444444429
20
0
10
33.333333333333321
20
0
10
33.333333333333321
20
6.5000000000000036
10
22.222222222222214
20
6.5000000000000036
10
22.222222222222214
20
0
10
11.111111111111107
20
0
10
11.111111111111107
20
6.5000000000000036
10
0
20
6.5000000000000036
10
0
20
11.111111111111107
10
6.4999999999999858
20
11.111111111111107
10
6.4999999999999858
20
22.222222222222214
0
LWPOLYLINE
5
103
100
AcDbEntity
8
0
100
AcDbPolyline
90
12
70
1
43
0.0
10
-155
20
75
10
-155
20
70
10
-150
20
70
10
-150
20
60
10
-155
20
60
10
-155
20
55
10
-165
20
55
10
-165
20
60
10
-170
20
60
10
-170
20
70
10
-165
20
70
10
-165
20
75
0
LWPOLYLINE
5
104
100
AcDbEntity
8
0
100
AcDbPolyline
90
12
70
1
43
0.0
10
-85
20
-175
10
-75
20
-175
10
-75
20
-180
10
-70
20
-180
10
-70
20
-190
10
-75
20
-190
10
-75
20
-195
10
-85
20
-195
10
-85
20
-190
10
-90
20
-190
10
-90
20
-180
10
-85
20
-180
0
LWPOLYLINE
5
105
100
AcDbEntity
8
0
100
AcDbPolyline
90
12
70
1
43
0.0
10
-45
20
55
10
-45
20
60
10
-50
20
60
10
-50
20
70
10
-45
20
70
10
-45
20
75
10
-35
20
75
10
-35
20
70
10
-30
20
70
10
-30
20
60
10
-35
20
60
10
-35
20
55
0
LWPOLYLINE
5
106
100
AcDbEntity
8
0
100
AcDbPolyline
90
12
70
1
43
0.0
10
-125
20
-175
10
-115
20
-175
10
-115
20
-180
10
-110
20
-180
10
-110
20
-190
10
-115
20
-190
10
-115
20
-195
10
-125
20
-195
10
-125
20
-190
10
-130
20
-190
10
-130
20
-180
10
-125
20
-180
0
LWPOLYLINE
5
107
100
AcDbEntity
8
0
100
AcDbPolyline
90
12
70
1
43
0.0
10
-125
20
75
10
-115
20
75
10
-115
20
70
10
-110
20
70
10
-110
20
60
10
-115
20
60
10
-115
20
55
10
-125
20
55
10
-125
20
60
10
-130
20
60
10
-130
20
70
10
-125
20
70
0
LWPOLYLINE
5
108
100
AcDbEntity
8
0
100
AcDbPolyline
90
12
70
1
43
0.0
10
-75
20
55
10
-85
20
55
10
-85
20
60
10
-90
20
60
10
-90
20
70
10
-85
20
70
10
-85
20
75
10
-75
20
75
10
-75
20
70
10
-70
20
70
10
-70
20
60
10
-75
20
60
0
LWPOLYLINE
5
109
100
AcDbEntity
8
0
100
AcDbPolyline
90
12
70
1
43
0.0
10
-165
20
-175
10
-155
20
-175
10
-155
20
-180
10
-150
20
-180
10
-150
20
-190
10
-155
20
-190
10
-155
20
-195
10
-165
20
-195
10
-165
20
-190
10
-170
20
-190
10
-170
20
-180
10
-165
20
-180
0
LINE
5
110
100
AcDbEntity
8
0
100
AcDbLine
10
0
20
-126.5
30
0
11
0
21
6.5000000000000036
31
0
0
LINE
5
111
100
AcDbEntity
8
0
100
AcDbLine
10
-200
20
-126.5
30
0
11
-200
21
6.5000000000000036
31
0
0
LINE
5
112
100
AcDbEntity
8
0
100
AcDbLine
10
-200
20
0
30
0
11
0
21
0
31
0
0
LINE
5
113
100
AcDbEntity
8
0
100
AcDbLine
10
-200.00000000000026
20
-70.493398785415238
30
0
11
-200
21
-48.905752105969114
31
0
6
DASHED
0
LINE
5
114
100
AcDbEntity
8
0
100
AcDbLine
10
-200
20
-48.905752105969114
30
0
11
-299.99999999999966
21
-48.905752105967899
31
0
6
DASHED
0
LINE
5
115
100
AcDbEntity
8
0
100
AcDbLine
10
-299.99999999999966
20
-48.905752105967899
30
0
11
-300
21
-70.493398785414001
31
0
6
DASHED
0
LINE
5
116
100
AcDbEntity
8
0
100
AcDbLine
10
-300
20
-70.493398785414001
30
0
11
-200.00000000000026
21
-70.493398785415238
31
0
6
DASHED
0
LINE
5
117
100
AcDbEntity
8
0
100
AcDbLine
10
-299.99999999999983
20
-59.699575445690947
30
0
11
-300
21
-60
31
0
0
LINE
5
118
100
AcDbEntity
8
0
100
AcDbLine
10
-200
20
-126.5
30
0
11
-199.99999999999918
21
-60.000000000000007
31
0
0
CIRCLE
5
119
100
AcDbEntity
8
0
100
AcDbCircle
10
-58.000000864267349
20
-195.00000290572643
30
0
40
2.0000000298023224
210
0
220
0
230
1
0
CIRCLE
5
120
100
AcDbEntity
8
0
100
AcDbCircle
10
-58.000000864267349
20
-195.00000290572643
30
0
40
2.0000000298023224
210
0
220
0
230
1
0
CIRCLE
5
121
100
AcDbEntity
8
0
100
AcDbCircle
10
-62.000000923871994
20
-195.00000290572646
30
0
40
2.0000000298023224
210
0
220
0
230
1
0
CIRCLE
5
122
100
AcDbEntity
8
0
100
AcDbCircle
10
-60.0000008940697
20
-193.00000287592417
30
0
40
2.0000000298023224
210
0
220
0
230
1
0
CIRCLE
5
123
100
AcDbEntity
8
0
100
AcDbCircle
10
-60.000000894069657
20
-197.00000293552876
30
0
40
2.0000000298023224
210
0
220
0
230
1
0
CIRCLE
5
124
100
AcDbEntity
8
0
100
AcDbCircle
10
-100.00000089406966
20
-197.00000293552876
30
0
40
2.0000000298023224
210
0
220
0
230
1
0
CIRCLE
5
125
100
AcDbEntity
8
0
100
AcDbCircle
10
-98.000000864267349
20
-195.00000290572643
30
0
40
2.0000000298023224
210
0
220
0
230
1
0
CIRCLE
5
126
100
AcDbEntity
8
0
100
AcDbCircle
10
-100.0000008940697
20
-193.00000287592417
30
0
40
2.0000000298023224
210
0
220
0
230
1
0
CIRCLE
5
127
100
AcDbEntity
8
0
100
AcDbCircle
10
-102.00000092387199
20
-195.00000290572646
30
0
40
2.0000000298023224
210
0
220
0
230
1
0
CIRCLE
5
128
100
AcDbEntity
8
0
100
AcDbCircle
10
-60.000000894069657
20
-197.00000293552876
30
0
40
2.0000000298023224
210
0
220
0
230
1
0
CIRCLE
5
129
100
AcDbEntity
8
0
100
AcDbCircle
10
-58.000000864267349
20
-195.00000290572643
30
0
40
2.0000000298023224
210
0
220
0
230
1
0
CIRCLE
5
130
100
AcDbEntity
8
0
100
AcDbCircle
10
-60.0000008940697
20
-193.00000287592417
30
0
40
2.0000000298023224
210
0
220
0
230
1
0
CIRCLE
5
131
100
AcDbEntity
8
0
100
AcDbCircle
10
-62.000000923871994
20
-195.00000290572646
30
0
40
2.0000000298023224
210
0
220
0
230
1
0
CIRCLE
5
132
100
AcDbEntity
8
0
100
AcDbCircle
10
-140.00000089406964
20
-197.00000293552876
30
0
40
2.0000000298023224
210
0
220
0
230
1
0
CIRCLE
5
133
100
AcDbEntity
8
0
100
AcDbCircle
10
-138.00000086426735
20
-195.00000290572643
30
0
40
2.0000000298023224
210
0
220
0
230
1
0
CIRCLE
5
134
100
AcDbEntity
8
0
100
AcDbCircle
10
-140.0000008940697
20
-193.00000287592417
30
0
40
2.0000000298023224
210
0
220
0
230
1
0
CIRCLE
5
135
100
AcDbEntity
8
0
100
AcDbCircle
10
-142.00000092387199
20
-195.00000290572646
30
0
40
2.0000000298023224
210
0
220
0
230
1
0
LINE
5
136
100
AcDbEntity
8
0
100
AcDbLine
10
-30
20
-185
30
0
11
-170
21
-185
31
0
6
DASHED
0
CIRCLE
5
137
100
AcDbEntity
8
0
100
AcDbCircle
10
-60.000000894069657
20
-172.99999706447124
30
0
40
2.0000000298023224
210
0
220
0
230
1
0
CIRCLE
5
138
100
AcDbEntity
8
0
100
AcDbCircle
10
-58.000000864267349
20
-174.99999709427357
30
0
40
2.0000000298023224
210
0
220
0
230
1
0
CIRCLE
5
139
100
AcDbEntity
8
0
100
AcDbCircle
10
-62.000000923871994
20
-174.99999709427354
30
0
40
2.0000000298023224
210
0
220
0
230
1
0
CIRCLE
5
140
100
AcDbEntity
8
0
100
AcDbCircle
10
-60.0000008940697
20
-176.99999712407583
30
0
40
2.0000000298023224
210
0
220
0
230
1
0
CIRCLE
5
141
100
AcDbEntity
8
0
100
AcDbCircle
10
-100.00000089406966
20
-172.99999706447124
30
0
40
2.0000000298023224
210
0
220
0
230
1
0
CIRCLE
5
142
100
AcDbEntity
8
0
100
AcDbCircle
10
-98.000000864267349
20
-174.99999709427357
30
0
40
2.0000000298023224
210
0
220
0
230
1
0
CIRCLE
5
143
100
AcDbEntity
8
0
100
AcDbCircle
10
-100.0000008940697
20
-176.99999712407583
30
0
40
2.0000000298023224
210
0
220
0
230
1
0
CIRCLE
5
144
100
AcDbEntity
8
0
100
AcDbCircle
10
-102.00000092387199
20
-174.99999709427354
30
0
40
2.0000000298023224
210
0
220
0
230
1
0
CIRCLE
5
145
100
AcDbEntity
8
0
100
AcDbCircle
10
-138.00000086426735
20
-174.99999709427357
30
0
40
2.0000000298023224
210
0
220
0
230
1
0
CIRCLE
5
146
100
AcDbEntity
8
0
100
AcDbCircle
10
-140.00000089406964
20
-172.99999706447124
30
0
40
2.0000000298023224
210
0
220
0
230
1
0
CIRCLE
5
147
100
AcDbEntity
8
0
100
AcDbCircle
10
-142.00000092387199
20
-174.99999709427354
30
0
40
2.0000000298023224
210
0
220
0
230
1
0
CIRCLE
5
148
100
AcDbEntity
8
0
100
AcDbCircle
10
-140.0000008940697
20
-176.99999712407583
30
0
40
2.0000000298023224
210
0
220
0
230
1
0
CIRCLE
5
149
100
AcDbEntity
8
0
100
AcDbCircle
10
-48.000000715255737
20
-200.00000298023224
30
0
40
1.0000000149011612
210
0
220
0
230
1
0
CIRCLE
5
150
100
AcDbEntity
8
0
100
AcDbCircle
10
-78.000001162290573
20
-170.0000025331974
30
0
40
1.0000000149011612
210
0
220
0
230
1
0
CIRCLE
5
151
100
AcDbEntity
8
0
100
AcDbCircle
10
-95.000001415610313
20
-203.00000302493572
30
0
40
0.51736773760386712
210
0
220
0
230
1
0
CIRCLE
5
152
100
AcDbEntity
8
0
100
AcDbCircle
10
-149.57581490058229
20
-196.46922046269421
30
0
40
0.6325345813559875
210
0
220
0
230
1
0
CIRCLE
5
153
100
AcDbEntity
8
0
100
AcDbCircle
10
-157.00000233948231
20
-169.00000251829624
30
0
40
0.74725618598609822
210
0
220
0
230
1
0
LWPOLYLINE
5
154
100
AcDbEntity
8
0
100
AcDbPolyline
90
8
70
1
43
0.0
10
-49.500000737607479
20
-171.50000255554914
10
-50.00000074505806
20
-172.50000257045031
10
-50.50000075250864
20
-171.50000255554914
10
-51.500000767409801
20
-171.00000254809856
10
-50.50000075250864
20
-170.50000254064798
10
-50.00000074505806
20
-169.50000252574682
10
-49.500000737607479
20
-170.50000254064798
10
-48.500000722706318
20
-171.00000254809856
0
LWPOLYLINE
5
155
100
AcDbEntity
8
0
100
AcDbPolyline
90
8
70
1
43
0.0
10
-70.381281474287022
20
-197.75290649837336
10
-70.881281481737602
20
-196.7529064834722
10
-71.881281496638763
20
-196.25290647602162
10
-70.881281481737602
20
-195.75290646857104
10
-70.381281474287022
20
-194.75290645366988
10
-69.881281466836441
20
-195.75290646857104
10
-68.88128145193528
20
-196.25290647602162
10
-69.881281466836441
20
-196.7529064834722
0
LWPOLYLINE
5
156
100
AcDbEntity
8
0
100
AcDbPolyline
90
8
70
1
43
0.0
10
-92.452717190818731
20
-178.66409723002113
10
-92.952717198269312
20
-177.66409721511997
10
-93.952717213170473
20
-177.16409720766939
10
-92.952717198269312
20
-176.66409720021881
10
-92.452717190818731
20
-175.6640971853177
10
-91.952717183368151
20
-176.66409720021881
10
-90.95271716846699
20
-177.16409720766939
10
-91.952717183368151
20
-177.66409721511997
0
LWPOLYLINE
5
157
100
AcDbEntity
8
0
100
AcDbPolyline
90
8
70
1
43
0.0
10
-134.27940108243578
20
-204.9151565463647
10
-134.77940108988636
20
-203.91515653146354
10
-135.77940110478752
20
-203.41515652401296
10
-134.77940108988636
20
-202.91515651656238
10
-134.27940108243578
20
-201.91515650166122
10
-133.7794010749852
20
-202.91515651656238
10
-132.77940106008404
20
-203.41515652401296
10
-133.7794010749852
20
-203.91515653146354
0
LWPOLYLINE
5
158
100
AcDbEntity
8
0
100
AcDbPolyline
90
8
70
1
43
0.0
10
-168.18734691219822
20
-173.35767561955836
10
-168.6873469196488
20
-172.3576756046572
10
-169.68734693454996
20
-171.85767559720662
10
-168.6873469196488
20
-171.35767558975604
10
-168.18734691219822
20
-170.35767557485488
10
-167.68734690474764
20
-171.35767558975604
10
-166.68734688984648
20
-171.85767559720662
10
-167.68734690474764
20
-172.3576756046572
0
LWPOLYLINE
5
159
100
AcDbEntity
8
0
100
AcDbPolyline
90
4
70
1
43
0.0
10
-70.000001043081284
20
-172.00000256299973
10
-70.500001050531864
20
-172.00000256299973
10
-70.500001050531864
20
-169.50000252574682
10
-70.000001043081284
20
-169.50000252574682
0
LWPOLYLINE
5
160
100
AcDbEntity
8
0
100
AcDbPolyline
90
4
70
1
43
0.0
10
-69.000001028180122
20
-171.00000254809856
10
-71.500001065433025
20
-171.00000254809856
10
-71.500001065433025
20
-170.50000254064798
10
-69.000001028180122
20
-170.50000254064798
0
LWPOLYLINE
5
161
100
AcDbEntity
8
0
100
AcDbPolyline
90
4
70
1
43
0.0
10
-27.704743831948573
20
-195.37485350060197
10
-30.204743869201476
20
-195.37485350060197
10
-30.204743869201476
20
-194.87485349315139
10
-27.704743831948573
20
-194.87485349315139
0
LWPOLYLINE
5
162
100
AcDbEntity
8
0
100
AcDbPolyline
90
4
70
1
43
0.0
10
-28.704743846849734
20
-193.87485347825023
10
-28.704743846849734
20
-196.37485351550313
10
-29.204743854300315
20
-196.37485351550313
10
-29.204743854300315
20
-193.87485347825023
0
LWPOLYLINE
5
163
100
AcDbEntity
8
0
100
AcDbPolyline
90
4
70
1
43
0.0
10
-110.1078538018856
20
-198.4052377305689
10
-112.6078538391385
20
-198.4052377305689
10
-112.6078538391385
20
-197.90523772311832
10
-110.1078538018856
20
-197.90523772311832
0
LWPOLYLINE
5
164
100
AcDbEntity
8
0
100
AcDbPolyline
90
4
70
1
43
0.0
10
-111.10785381678676
20
-196.90523770821716
10
-111.10785381678676
20
-199.40523774547006
10
-111.60785382423734
20
-199.40523774547006
10
-111.60785382423734
20
-196.90523770821716
0
LWPOLYLINE
5
165
100
AcDbEntity
8
0
100
AcDbPolyline
90
4
70
1
43
0.0
10
-146.88856417835891
20
-167.03345535063576
10
-149.38856421561181
20
-167.03345535063576
10
-149.38856421561181
20
-166.53345534318518
10
-146.88856417835891
20
-166.53345534318518
0
LWPOLYLINE
5
166
100
AcDbEntity
8
0
100
AcDbPolyline
90
4
70
1
43
0.0
10
-147.88856419326007
20
-165.53345532828402
10
-147.88856419326007
20
-168.03345536553692
10
-148.38856420071065
20
-168.03345536553692
10
-148.38856420071065
20
-165.53345532828402
0
LWPOLYLINE
5
167
100
AcDbEntity
8
0
100
AcDbPolyline
90
4
70
1
43
0.0
10
-23.043967219097759
20
-172.97982369684175
42
0.29067827914144118
10
-24.981527049568818
20
-175.23996659808188
42
0.34676410774689254
10
-27.000000402331352
20
-173.00000257790089
42
0.3285753385588065
10
-25.000000372529037
20
-170.00000253319755
42
0.28308406147134912
0
LWPOLYLINE
5
168
100
AcDbEntity
8
0
100
AcDbPolyline
90
4
70
1
43
0.0
10
-129.97268419108428
20
-167.39952417915319
42
0.29067827914144262
10
-131.91024402155537
20
-169.65966708039332
42
0.34676410774689387
10
-133.9287173743179
20
-167.41970306021233
42
0.32857533855880572
10
-131.92871734451558
20
-164.41970301550901
42
0.28308406147134851
0
LWPOLYLINE
5
169
100
AcDbEntity
8
0
100
AcDbPolyline
90
4
70
1
43
0.0
10
-87.935787067833303
20
-205.1590549095024
42
0.29067827914144129
10
-89.873346898304362
20
-207.4191978107425
42
0.34676410774689187
10
-91.891820251066889
20
-205.17923379056154
42
0.32857533855880522
10
-89.891820221264581
20
-202.1792337458582
42
0.28308406147134968
0
LWPOLYLINE
5
170
100
AcDbEntity
8
0
100
AcDbPolyline
90
4
70
1
43
0.0
10
-175.30146882221177
20
-196.50284908036329
42
0.15293605621910816
10
-176.35638914421435
20
-197.78430027946189
42
0.18663285786155337
10
-177.56391815679825
20
-196.50830015229386
42
0.22836582600106178
10
-176.39720706848647
20
-194.1413802982598
42
0.19899037903367042
0
LWPOLYLINE
5
171
100
AcDbEntity
8
0
100
AcDbPolyline
90
4
70
1
43
0.0
10
-27.829945335030558
20
-169.03676386202488
42
0.17041492206947159
10
-28.89116480375046
20
-170.61029617771311
42
0.23338480146756183
10
-30.000000447034836
20
-169.00000251829624
42
0.22742841446946363
10
-28.92775857853389
20
-166.7679498254513
42
0.18736501921876272
0
LINE
5
172
100
AcDbEntity
8
0
100
AcDbLine
10
100
20
-60
30
0
11
-199.99999999999918
21
-60.000000000000007
31
0
6
DASHED
0
LWPOLYLINE
5
173
100
AcDbEntity
8
0
100
AcDbPolyline
90
4
70
1
43
0.0
10
-30.204743869201476
20
74.874853493151392
10
-27.704743831948573
20
74.874853493151392
10
-27.704743831948573
20
75.374853500601972
10
-30.204743869201476
20
75.374853500601972
0
LWPOLYLINE
5
174
100
AcDbEntity
8
0
100
AcDbPolyline
90
4
70
1
43
0.0
10
-29.204743854300315
20
76.374853515503133
10
-29.204743854300315
20
73.87485347825023
10
-28.704743846849734
20
73.87485347825023
10
-28.704743846849734
20
76.374853515503133
0
LWPOLYLINE
5
175
100
AcDbEntity
8
0
100
AcDbPolyline
90
8
70
1
43
0.0
10
-70.381281474287007
20
77.752906498373378
10
-70.881281481737588
20
76.752906483472216
10
-71.881281496638749
20
76.252906476021636
10
-70.881281481737588
20
75.752906468571055
10
-70.381281474287007
20
74.752906453669894
10
-69.881281466836427
20
75.752906468571055
10
-68.881281451935266
20
76.252906476021636
10
-69.881281466836427
20
76.752906483472216
0
CIRCLE
5
176
100
AcDbEntity
8
0
100
AcDbCircle
10
-62.000000923871994
20
75.000002905726461
30
0
40
2.0000000298023224
210
0
220
0
230
1
0
CIRCLE
5
177
100
AcDbEntity
8
0
100
AcDbCircle
10
-58.000000864267349
20
75.000002905726433
30
0
40
2.0000000298023224
210
0
220
0
230
1
0
CIRCLE
5
178
100
AcDbEntity
8
0
100
AcDbCircle
10
-58.000000864267349
20
75.000002905726433
30
0
40
2.0000000298023224
210
0
220
0
230
1
0
CIRCLE
5
179
100
AcDbEntity
8
0
100
AcDbCircle
10
-60.000000894069672
20
77.000002935528755
30
0
40
2.0000000298023224
210
0
220
0
230
1
0
CIRCLE
5
180
100
AcDbEntity
8
0
100
AcDbCircle
10
-60.000000894069672
20
77.000002935528755
30
0
40
2.0000000298023224
210
0
220
0
230
1
0
CIRCLE
5
181
100
AcDbEntity
8
0
100
AcDbCircle
10
-62.000000923871994
20
75.000002905726461
30
0
40
2.0000000298023224
210
0
220
0
230
1
0
CIRCLE
5
182
100
AcDbEntity
8
0
100
AcDbCircle
10
-58.000000864267349
20
75.000002905726433
30
0
40
2.0000000298023224
210
0
220
0
230
1
0
CIRCLE
5
183
100
AcDbEntity
8
0
100
AcDbCircle
10
-48.000000715255737
20
80.000002980232239
30
0
40
1.0000000149011612
210
0
220
0
230
1
0
CIRCLE
5
184
100
AcDbEntity
8
0
100
AcDbCircle
10
-60.000000894069707
20
73.000002875924181
30
0
40
2.0000000298023224
210
0
220
0
230
1
0
CIRCLE
5
185
100
AcDbEntity
8
0
100
AcDbCircle
10
-60.000000894069707
20
73.000002875924181
30
0
40
2.0000000298023224
210
0
220
0
230
1
0
LWPOLYLINE
5
186
100
AcDbEntity
8
0
100
AcDbPolyline
90
4
70
1
43
0.0
10
-30.000000447034836
20
49.000002518296242
42
0.23338480146756216
10
-28.89116480375046
20
50.61029617771311
42
0.17041492206947198
10
-27.829945335030555
20
49.036763862024877
42
0.18736501921876311
10
-28.927758578533886
20
46.767949825451289
42
0.22742841446946394
0
LWPOLYLINE
5
187
100
AcDbEntity
8
0
100
AcDbPolyline
90
4
70
1
43
0.0
10
-23.043967219097752
20
52.979823696841741
42
0.28308406147134968
10
-25.00000037252903
20
50.000002533197545
42
0.32857533855880672
10
-27.000000402331352
20
53.000002577900887
42
0.34676410774689209
10
-24.981527049568815
20
55.239966598081871
42
0.29067827914144262
0
LWPOLYLINE
5
188
100
AcDbEntity
8
0
100
AcDbPolyline
90
4
70
1
43
0.0
10
-69.000001028180122
20
50.500002540647984
10
-69.000001028180122
20
51.000002548098564
10
-71.500001065433025
20
51.000002548098564
10
-71.500001065433025
20
50.500002540647984
0
CIRCLE
5
189
100
AcDbEntity
8
0
100
AcDbCircle
10
-58.000000864267349
20
54.999997094273567
30
0
40
2.0000000298023224
210
0
220
0
230
1
0
LWPOLYLINE
5
190
100
AcDbEntity
8
0
100
AcDbPolyline
90
4
70
1
43
0.0
10
-70.000001043081284
20
52.000002562999725
10
-70.500001050531864
20
52.000002562999725
10
-70.500001050531864
20
49.500002525746822
10
-70.000001043081284
20
49.500002525746822
0
CIRCLE
5
191
100
AcDbEntity
8
0
100
AcDbCircle
10
-62.000000923871994
20
54.999997094273532
30
0
40
2.0000000298023224
210
0
220
0
230
1
0
CIRCLE
5
192
100
AcDbEntity
8
0
100
AcDbCircle
10
-60.000000894069707
20
56.999997124075819
30
0
40
2.0000000298023224
210
0
220
0
230
1
0
CIRCLE
5
193
100
AcDbEntity
8
0
100
AcDbCircle
10
-60.000000894069672
20
52.999997064471245
30
0
40
2.0000000298023224
210
0
220
0
230
1
0
CIRCLE
5
194
100
AcDbEntity
8
0
100
AcDbCircle
10
-78.000001162290573
20
50.000002533197403
30
0
40
1.0000000149011612
210
0
220
0
230
1
0
LWPOLYLINE
5
195
100
AcDbEntity
8
0
100
AcDbPolyline
90
4
70
1
43
0.0
10
-89.873346898304362
20
87.419197810742517
42
0.29067827914144284
10
-87.935787067833289
20
85.159054909502387
42
0.28308406147135101
10
-89.891820221264567
20
82.179233745858198
42
0.32857533855880361
10
-91.891820251066889
20
85.17923379056154
42
0.34676410774689376
0
LWPOLYLINE
5
196
100
AcDbEntity
8
0
100
AcDbPolyline
90
4
70
1
43
0.0
10
-110.10785380188558
20
77.905237723118319
10
-110.10785380188558
20
78.405237730568899
10
-112.60785383913849
20
78.405237730568899
10
-112.60785383913849
20
77.905237723118319
0
LWPOLYLINE
5
197
100
AcDbEntity
8
0
100
AcDbPolyline
90
4
70
1
43
0.0
10
-111.10785381678674
20
79.40523774547006
10
-111.60785382423732
20
79.40523774547006
10
-111.60785382423732
20
76.905237708217157
10
-111.10785381678674
20
76.905237708217157
0
CIRCLE
5
198
100
AcDbEntity
8
0
100
AcDbCircle
10
-95.000001415610313
20
83.000003024935722
30
0
40
0.51736773760386712
210
0
220
0
230
1
0
CIRCLE
5
199
100
AcDbEntity
8
0
100
AcDbCircle
10
-100.0000008940697
20
73.000002875924181
30
0
40
2.0000000298023224
210
0
220
0
230
1
0
CIRCLE
5
200
100
AcDbEntity
8
0
100
AcDbCircle
10
-102.00000092387199
20
75.000002905726461
30
0
40
2.0000000298023224
210
0
220
0
230
1
0
CIRCLE
5
201
100
AcDbEntity
8
0
100
AcDbCircle
10
-100.00000089406967
20
77.000002935528755
30
0
40
2.0000000298023224
210
0
220
0
230
1
0
CIRCLE
5
202
100
AcDbEntity
8
0
100
AcDbCircle
10
-98.000000864267349
20
75.000002905726433
30
0
40
2.0000000298023224
210
0
220
0
230
1
0
CIRCLE
5
203
100
AcDbEntity
8
0
100
AcDbCircle
10
-98.000000864267349
20
54.999997094273567
30
0
40
2.0000000298023224
210
0
220
0
230
1
0
LWPOLYLINE
5
204
100
AcDbEntity
8
0
100
AcDbPolyline
90
8
70
1
43
0.0
10
-92.452717190818731
20
55.664097185317694
10
-92.952717198269312
20
56.664097200218819
10
-93.952717213170473
20
57.1640972076694
10
-92.952717198269312
20
57.66409721511998
10
-92.452717190818731
20
58.664097230021142
10
-91.952717183368151
20
57.66409721511998
10
-90.95271716846699
20
57.1640972076694
10
-91.952717183368151
20
56.664097200218819
0
CIRCLE
5
205
100
AcDbEntity
8
0
100
AcDbCircle
10
-100.00000089406967
20
52.999997064471245
30
0
40
2.0000000298023224
210
0
220
0
230
1
0
CIRCLE
5
206
100
AcDbEntity
8
0
100
AcDbCircle
10
-100.0000008940697
20
56.999997124075819
30
0
40
2.0000000298023224
210
0
220
0
230
1
0
CIRCLE
5
207
100
AcDbEntity
8
0
100
AcDbCircle
10
-102.00000092387199
20
54.999997094273532
30
0
40
2.0000000298023224
210
0
220
0
230
1
0
CIRCLE
5
208
100
AcDbEntity
8
0
100
AcDbCircle
10
-140.00000089406967
20
52.999997064471245
30
0
40
2.0000000298023224
210
0
220
0
230
1
0
LWPOLYLINE
5
209
100
AcDbEntity
8
0
100
AcDbPolyline
90
4
70
1
43
0.0
10
-146.88856417835893
20
46.533455343185182
10
-146.88856417835893
20
47.033455350635762
10
-149.38856421561184
20
47.033455350635762
10
-149.38856421561184
20
46.533455343185182
0
LWPOLYLINE
5
210
100
AcDbEntity
8
0
100
AcDbPolyline
90
4
70
1
43
0.0
10
-148.38856420071068
20
48.033455365536923
10
-148.38856420071068
20
45.53345532828402
10
-147.88856419326009
20
45.53345532828402
10
-147.88856419326009
20
48.033455365536923
0
CIRCLE
5
211
100
AcDbEntity
8
0
100
AcDbCircle
10
-142.00000092387199
20
54.999997094273532
30
0
40
2.0000000298023224
210
0
220
0
230
1
0
LWPOLYLINE
5
212
100
AcDbEntity
8
0
100
AcDbPolyline
90
4
70
1
43
0.0
10
-129.97268419108428
20
47.39952417915319
42
0.28308406147134973
10
-131.92871734451558
20
44.419703015509029
42
0.32857533855880572
10
-133.9287173743179
20
47.419703060212335
42
0.34676410774689403
10
-131.91024402155534
20
49.659667080393319
42
0.29067827914144245
0
CIRCLE
5
213
100
AcDbEntity
8
0
100
AcDbCircle
10
-140.0000008940697
20
56.999997124075819
30
0
40
2.0000000298023224
210
0
220
0
230
1
0
CIRCLE
5
214
100
AcDbEntity
8
0
100
AcDbCircle
10
-138.00000086426735
20
54.999997094273567
30
0
40
2.0000000298023224
210
0
220
0
230
1
0
LWPOLYLINE
5
215
100
AcDbEntity
8
0
100
AcDbPolyline
90
8
70
1
43
0.0
10
-135.77940110478752
20
83.415156524012957
10
-134.77940108988636
20
83.915156531463538
10
-134.27940108243578
20
84.915156546364699
10
-133.7794010749852
20
83.915156531463538
10
-132.77940106008404
20
83.415156524012957
10
-133.7794010749852
20
82.915156516562377
10
-134.27940108243578
20
81.915156501661215
10
-134.77940108988636
20
82.915156516562377
0
CIRCLE
5
216
100
AcDbEntity
8
0
100
AcDbCircle
10
-138.00000086426735
20
75.000002905726433
30
0
40
2.0000000298023224
210
0
220
0
230
1
0
CIRCLE
5
217
100
AcDbEntity
8
0
100
AcDbCircle
10
-149.57581490058232
20
76.46922046269421
30
0
40
0.6325345813559875
210
0
220
0
230
1
0
CIRCLE
5
218
100
AcDbEntity
8
0
100
AcDbCircle
10
-140.0000008940697
20
73.000002875924181
30
0
40
2.0000000298023224
210
0
220
0
230
1
0
CIRCLE
5
219
100
AcDbEntity
8
0
100
AcDbCircle
10
-140.00000089406967
20
77.000002935528755
30
0
40
2.0000000298023224
210
0
220
0
230
1
0
CIRCLE
5
220
100
AcDbEntity
8
0
100
AcDbCircle
10
-142.00000092387199
20
75.000002905726461
30
0
40
2.0000000298023224
210
0
220
0
230
1
0
LWPOLYLINE
5
221
100
AcDbEntity
8
0
100
AcDbPolyline
90
4
70
1
43
0.0
10
-177.56391815679825
20
76.508300152293856
42
0.18663285786155337
10
-176.35638914421435
20
77.784300279461888
42
0.15293605621910816
10
-175.30146882221177
20
76.502849080363291
42
0.19899037903367042
10
-176.39720706848647
20
74.141380298259804
42
0.22836582600106178
0
LWPOLYLINE
5
222
100
AcDbEntity
8
0
100
AcDbPolyline
90
8
70
1
43
0.0
10
-167.68734690474764
20
52.35767560465721
10
-166.68734688984648
20
51.857675597206629
10
-167.68734690474764
20
51.357675589756049
10
-168.18734691219822
20
50.357675574854888
10
-168.6873469196488
20
51.357675589756049
10
-169.68734693454996
20
51.857675597206629
10
-168.6873469196488
20
52.35767560465721
10
-168.18734691219822
20
53.357675619558371
0
CIRCLE
5
223
100
AcDbEntity
8
0
100
AcDbCircle
10
-157.00000233948231
20
49.000002518296242
30
0
40
0.74725618598609822
210
0
220
0
230
1
0
LINE
5
224
100
AcDbEntity
8
0
100
AcDbLine
10
0
20
0
30
0
11
0
21
6.5000000000000036
31
0
0
LINE
5
225
100
AcDbEntity
8
0
100
AcDbLine
10
-200
20
-0.35665020194060482
30
0
11
-200
21
6.5000000000000036
31
0
0
LINE
5
226
100
AcDbEntity
8
0
100
AcDbLine
10
0
20
-120
30
0
11
-200
21
-120
31
0
0
LINE
5
227
100
AcDbEntity
8
0
100
AcDbLine
10
-247.26125776767728
20
-73.86908396315809
30
0
11
-247.12823927402493
21
-72.774268232109506
31
0
0
SPLINE
5
228
100
AcDbEntity
8
0
100
AcDbSpline
70
0
71
2
72
6
73
3
74
0
42
0.000000001
43
0.0000000001
44
0.0000000001
40
0
40
0
40
0
40
1
40
1
40
1
10
-247.12823927402493
20
-72.774268232109506
30
0
10
-246.93724691867826
20
-72.74698301387069
30
0
10
-246.86562120914454
20
-72.648074470283959
30
0
0
SPLINE
5
229
100
AcDbEntity
8
0
100
AcDbSpline
70
0
71
2
72
6
73
3
74
0
42
0.000000001
43
0.0000000001
44
0.0000000001
40
0
40
0
40
0
40
1
40
1
40
1
10
-246.86562120914454
20
-72.648074470283959
30
0
10
-246.76330149173731
20
-72.511648826124642
30
0
10
-246.76330149173731
20
-72.218333624126885
30
0
0
SPLINE
5
230
100
AcDbEntity
8
0
100
AcDbSpline
70
0
71
2
72
6
73
3
74
0
42
0.000000001
43
0.0000000001
44
0.0000000001
40
0
40
0
40
0
40
1
40
1
40
1
10
-246.76330149173731
20
-72.218333624126885
30
0
10
-246.76330149173731
20
-71.843163214447472
30
0
10
-246.87585413455957
20
-71.655577860596154
30
0
0
SPLINE
5
231
100
AcDbEntity
8
0
100
AcDbSpline
70
0
71
2
72
6
73
3
74
0
42
0.000000001
43
0.0000000001
44
0.0000000001
40
0
40
0
40
0
40
1
40
1
40
1
10
-246.87585413455957
20
-71.655577860596154
30
0
10
-246.95088922977442
20
-71.529384098770578
30
0
10
-247.11801111698145
20
-71.464581928970773
30
0
0
SPLINE
5
232
100
AcDbEntity
8
0
100
AcDbSpline
70
0
71
2
72
6
73
3
74
0
42
0.000000001
43
0.0000000001
44
0.0000000001
40
0
40
0
40
0
40
1
40
1
40
1
10
-247.11801111698145
20
-71.464581928970773
30
0
10
-247.23738253116602
20
-71.420243523838479
30
0
10
-247.55797922611231
20
-71.420243523838479
30
0
0
LINE
5
233
100
AcDbEntity
8
0
100
AcDbLine
10
-247.55797922611231
20
-71.420243523838479
30
0
11
-248.08662950992579
21
-71.420243523838479
31
0
0
SPLINE
5
234
100
AcDbEntity
8
0
100
AcDbSpline
70
0
71
2
72
6
73
3
74
0
42
0.000000001
43
0.0000000001
44
0.0000000001
40
0
40
0
40
0
40
1
40
1
40
1
10
-248.08662950992579
20
-71.420243523838479
30
0
10
-247.50000059604639
20
-71.849984369995553
30
0
10
-247.50000059604639
20
-72.50482752156492
30
0
0
SPLINE
5
235
100
AcDbEntity
8
0
100
AcDbSpline
70
0
71
2
72
6
73
3
74
0
42
0.000000001
43
0.0000000001
44
0.0000000001
40
0
40
0
40
0
40
1
40
1
40
1
10
-247.50000059604639
20
-72.50482752156492
30
0
10
-247.50000059604642
20
-73.234704874279458
30
0
10
-248.11732828617093
20
-73.661034844639261
30
0
0
SPLINE
5
236
100
AcDbEntity
8
0
100
AcDbSpline
70
0
71
2
72
6
73
3
74
0
42
0.000000001
43
0.0000000001
44
0.0000000001
40
0
40
0
40
0
40
1
40
1
40
1
10
-248.11732828617093
20
-73.661034844639261
30
0
10
-248.60504686832425
20
-73.995277724983637
30
0
10
-249.33151304721829
20
-73.995277724983623
30
0
0
SPLINE
5
237
100
AcDbEntity
8
0
100
AcDbSpline
70
0
71
2
72
6
73
3
74
0
42
0.000000001
43
0.0000000001
44
0.0000000001
40
0
40
0
40
0
40
1
40
1
40
1
10
-249.33151304721829
20
-73.995277724983623
30
0
10
-250.24215757846829
20
-73.995277724983623
30
0
10
-250.72305738925931
20
-73.558715723278439
30
0
0
SPLINE
5
238
100
AcDbEntity
8
0
100
AcDbSpline
70
0
71
2
72
6
73
3
74
0
42
0.000000001
43
0.0000000001
44
0.0000000001
40
0
40
0
40
0
40
1
40
1
40
1
10
-250.72305738925931
20
-73.558715723278439
30
0
10
-251.20395720005033
20
-73.11874299478761
30
0
10
-251.2039572000503
20
-72.467310420992291
30
0
0
SPLINE
5
239
100
AcDbEntity
8
0
100
AcDbSpline
70
0
71
2
72
6
73
3
74
0
42
0.000000001
43
0.0000000001
44
0.0000000001
40
0
40
0
40
0
40
1
40
1
40
1
10
-251.2039572000503
20
-72.467310420992291
30
0
10
-251.2039572000503
20
-71.795414231541073
30
0
10
-250.61391413211817
20
-71.358852229835904
30
0
0
LINE
5
240
100
AcDbEntity
8
0
100
AcDbLine
10
-250.61391413211817
20
-71.358852229835904
30
0
11
-251.12210333347315
21
-71.358852229835904
31
0
0
LINE
5
241
100
AcDbEntity
8
0
100
AcDbLine
10
-251.12210333347315
20
-71.358852229835904
30
0
11
-251.12210333347315
21
-70.461853585960782
31
0
0
LINE
5
242
100
AcDbEntity
8
0
100
AcDbLine
10
-251.12210333347315
20
-70.461853585960782
30
0
11
-247.87176191806788
21
-70.461853585960824
31
0
0
SPLINE
5
243
100
AcDbEntity
8
0
100
AcDbSpline
70
0
71
2
72
6
73
3
74
0
42
0.000000001
43
0.0000000001
44
0.0000000001
40
0
40
0
40
0
40
1
40
1
40
1
10
-247.87176191806788
20
-70.461853585960824
30
0
10
-247.23055899143213
20
-70.461853585960824
30
0
10
-246.913371682167
20
-70.567583285095665
30
0
0
SPLINE
5
244
100
AcDbEntity
8
0
100
AcDbSpline
70
0
71
2
72
6
73
3
74
0
42
0.000000001
43
0.0000000001
44
0.0000000001
40
0
40
0
40
0
40
1
40
1
40
1
10
-246.913371682167
20
-70.567583285095665
30
0
10
-246.59617960453028
20
-70.673313282253716
30
0
10
-246.41541540622705
20
-70.864309213879082
30
0
0
SPLINE
5
245
100
AcDbEntity
8
0
100
AcDbSpline
70
0
71
2
72
6
73
3
74
0
42
0.000000001
43
0.0000000001
44
0.0000000001
40
0
40
0
40
0
40
1
40
1
40
1
10
-246.41541540622705
20
-70.864309213879082
30
0
10
-246.23465120792383
20
-71.055305145504448
30
0
10
-246.13233149051661
20
-71.375905416729438
30
0
0
SPLINE
5
246
100
AcDbEntity
8
0
100
AcDbSpline
70
0
71
2
72
6
73
3
74
0
42
0.000000001
43
0.0000000001
44
0.0000000001
40
0
40
0
40
0
40
1
40
1
40
1
10
-246.13233149051661
20
-71.375905416729438
30
0
10
-246.03001654148096
20
-71.693094812157142
30
0
10
-246.03001654148096
20
-72.180816672565925
30
0
0
SPLINE
5
247
100
AcDbEntity
8
0
100
AcDbSpline
70
0
71
2
72
6
73
3
74
0
42
0.000000001
43
0.0000000001
44
0.0000000001
40
0
40
0
40
0
40
1
40
1
40
1
10
-246.03001654148096
20
-72.180816672565925
30
0
10
-246.03001654148099
20
-73.101689658882606
30
0
10
-246.34720385074613
20
-73.487092099907372
30
0
0
SPLINE
5
248
100
AcDbEntity
8
0
100
AcDbSpline
70
0
71
2
72
6
73
3
74
0
42
0.000000001
43
0.0000000001
44
0.0000000001
40
0
40
0
40
0
40
1
40
1
40
1
10
-246.34720385074613
20
-73.487092099907372
30
0
10
-246.66098177433011
20
-73.872494540932152
30
0
10
-247.14529573917386
20
-73.872494540932138
30
0
0
SPLINE
5
249
100
AcDbEntity
8
0
100
AcDbSpline
70
0
71
2
72
6
73
3
74
0
42
0.000000001
43
0.0000000001
44
0.0000000001
40
0
40
0
40
0
40
1
40
1
40
1
10
-247.14529573917386
20
-73.872494540932138
30
0
10
-247.19304144382474
20
-73.872494540932138
30
0
10
-247.26125776767728
20
-73.86908396315809
30
0
0
SPLINE
5
250
100
AcDbEntity
8
0
100
AcDbSpline
70
0
71
2
72
6
73
3
74
0
42
0.000000001
43
0.0000000001
44
0.0000000001
40
0
40
0
40
0
40
1
40
1
40
1
10
-249.38608705997464
20
-73.013013146641185
30
0
10
-248.8096863031387
20
-73.0130131466412
30
0
10
-248.54024469852445
20
-72.791321419002955
30
0
0
SPLINE
5
251
100
AcDbEntity
8
0
100
AcDbSpline
70
0
71
2
72
6
73
3
74
0
42
0.000000001
43
0.0000000001
44
0.0000000001
40
0
40
0
40
0
40
1
40
1
40
1
10
-248.54024469852445
20
-72.791321419002955
30
0
10
-248.27421724796289
20
-72.566219113590677
30
0
10
-248.27421724796289
20
-72.238797537805993
30
0
0
SPLINE
5
252
100
AcDbEntity
8
0
100
AcDbSpline
70
0
71
2
72
6
73
3
74
0
42
0.000000001
43
0.0000000001
44
0.0000000001
40
0
40
0
40
0
40
1
40
1
40
1
10
-248.27421724796289
20
-72.238797537805993
30
0
10
-248.27421724796289
20
-71.887501470568139
30
0
10
-248.5470682382583
20
-71.645345829250758
30
0
0
SPLINE
5
253
100
AcDbEntity
8
0
100
AcDbSpline
70
0
71
2
72
6
73
3
74
0
42
0.000000001
43
0.0000000001
44
0.0000000001
40
0
40
0
40
0
40
1
40
1
40
1
10
-248.5470682382583
20
-71.645345829250758
30
0
10
-248.82332861423487
20
-71.403190336945002
30
0
10
-249.36221182346338
20
-71.403190336944988
30
0
0
SPLINE
5
254
100
AcDbEntity
8
0
100
AcDbSpline
70
0
71
2
72
6
73
3
74
0
42
0.000000001
43
0.0000000001
44
0.0000000001
40
0
40
0
40
0
40
1
40
1
40
1
10
-249.36221182346338
20
-71.403190336944988
30
0
10
-249.92496550083155
20
-71.403190336944988
30
0
10
-250.19781649112696
20
-71.6351140959286
30
0
0
SPLINE
5
255
100
AcDbEntity
8
0
100
AcDbSpline
70
0
71
2
72
6
73
3
74
0
42
0.000000001
43
0.0000000001
44
0.0000000001
40
0
40
0
40
0
40
1
40
1
40
1
10
-250.19781649112696
20
-71.6351140959286
30
0
10
-250.47066748142237
20
-71.8670377059006
30
0
10
-250.47066748142237
20
-72.221744350912502
30
0
0
SPLINE
5
256
100
AcDbEntity
8
0
100
AcDbSpline
70
0
71
2
72
6
73
3
74
0
42
0.000000001
43
0.0000000001
44
0.0000000001
40
0
40
0
40
0
40
1
40
1
40
1
10
-250.47066748142237
20
-72.221744350912502
30
0
10
-250.47066748142237
20
-72.566219113590648
30
0
10
-250.20122587680814
20
-72.791321419002941
30
0
0
SPLINE
5
257
100
AcDbEntity
8
0
100
AcDbSpline
70
0
71
2
72
6
73
3
74
0
42
0.000000001
43
0.0000000001
44
0.0000000001
40
0
40
0
40
0
40
1
40
1
40
1
10
-250.20122587680814
20
-72.791321419002941
30
0
10
-249.93519842624661
20
-73.013013146641185
30
0
10
-249.38608705997464
20
-73.013013146641185
30
0
0
LINE
5
258
100
AcDbEntity
8
0
100
AcDbLine
10
-250.01705229282368
20
-68.797460637810161
30
0
11
-250.17394125461567
21
-69.667174063446453
31
0
0
SPLINE
5
259
100
AcDbEntity
8
0
100
AcDbSpline
70
0
71
2
72
6
73
3
74
0
42
0.000000001
43
0.0000000001
44
0.0000000001
40
0
40
0
40
0
40
1
40
1
40
1
10
-250.17394125461573
20
-69.667174063446453
30
0
10
-250.69918215274805
20
-69.520516536953366
30
0
10
-250.95156729221338
20
-69.162399016144192
30
0
0
SPLINE
5
260
100
AcDbEntity
8
0
100
AcDbSpline
70
0
71
2
72
6
73
3
74
0
42
0.000000001
43
0.0000000001
44
0.0000000001
40
0
40
0
40
0
40
1
40
1
40
1
10
-250.95156729221338
20
-69.162399016144192
30
0
10
-251.20395720005024
20
-68.804281793358243
30
0
10
-251.20395720005024
20
-68.098279081108487
30
0
0
SPLINE
5
261
100
AcDbEntity
8
0
100
AcDbSpline
70
0
71
2
72
6
73
3
74
0
42
0.000000001
43
0.0000000001
44
0.0000000001
40
0
40
0
40
0
40
1
40
1
40
1
10
-251.20395720005024
20
-68.098279081108487
30
0
10
-251.20395720005024
20
-67.457078538658536
30
0
10
-251.0504776239394
20
-67.143299422981656
30
0
0
SPLINE
5
262
100
AcDbEntity
8
0
100
AcDbSpline
70
0
71
2
72
6
73
3
74
0
42
0.000000001
43
0.0000000001
44
0.0000000001
40
0
40
0
40
0
40
1
40
1
40
1
10
-251.0504776239394
20
-67.143299422981656
30
0
10
-250.9004122018813
20
-66.829520307304776
30
0
10
-250.66507399082172
20
-66.703326545479214
30
0
0
SPLINE
5
263
100
AcDbEntity
8
0
100
AcDbSpline
70
0
71
2
72
6
73
3
74
0
42
0.000000001
43
0.0000000001
44
0.0000000001
40
0
40
0
40
0
40
1
40
1
40
1
10
-250.66507399082172
20
-66.703326545479214
30
0
10
-250.43314993381489
20
-66.573722205879619
30
0
10
-249.80900347232807
20
-66.573722205879619
30
0
0
LINE
5
264
100
AcDbEntity
8
0
100
AcDbLine
10
-249.80900347232807
20
-66.573722205879619
30
0
11
-248.69031488895405
21
-66.583954535248239
31
0
0
SPLINE
5
265
100
AcDbEntity
8
0
100
AcDbSpline
70
0
71
2
72
6
73
3
74
0
42
0.000000001
43
0.0000000001
44
0.0000000001
40
0
40
0
40
0
40
1
40
1
40
1
10
-248.69031488895405
20
-66.583954535248225
30
0
10
-248.21282446384419
20
-66.583954535248239
30
0
10
-247.9843097925185
20
-66.539615832092721
30
0
0
SPLINE
5
266
100
AcDbEntity
8
0
100
AcDbSpline
70
0
71
2
72
6
73
3
74
0
42
0.000000001
43
0.0000000001
44
0.0000000001
40
0
40
0
40
0
40
1
40
1
40
1
10
-247.9843097925185
20
-66.539615832092721
30
0
10
-247.75920927524552
20
-66.491867147209604
30
0
10
-247.50000059604631
20
-66.365673385384042
30
0
0
LINE
5
267
100
AcDbEntity
8
0
100
AcDbLine
10
-247.50000059604631
20
-66.365673385384042
30
0
11
-247.50000059604631
21
-67.31383129191633
31
0
0
SPLINE
5
268
100
AcDbEntity
8
0
100
AcDbSpline
70
0
71
2
72
6
73
3
74
0
42
0.000000001
43
0.0000000001
44
0.0000000001
40
0
40
0
40
0
40
1
40
1
40
1
10
-247.50000059604633
20
-67.31383129191633
30
0
10
-247.59549677371967
20
-67.351348839523752
30
0
10
-247.78308451175678
20
-67.405918679954965
30
0
0
SPLINE
5
269
100
AcDbEntity
8
0
100
AcDbSpline
70
0
71
2
72
6
73
3
74
0
42
0.000000001
43
0.0000000001
44
0.0000000001
40
0
40
0
40
0
40
1
40
1
40
1
10
-247.78308451175678
20
-67.405918679954965
30
0
10
-247.86834776401508
20
-67.429793320419748
30
0
10
-247.89563715457905
20
-67.440025053741891
30
0
0
SPLINE
5
270
100
AcDbEntity
8
0
100
AcDbSpline
70
0
71
2
72
6
73
3
74
0
42
0.000000001
43
0.0000000001
44
0.0000000001
40
0
40
0
40
0
40
1
40
1
40
1
10
-247.89563715457905
20
-67.440025053741891
30
0
10
-247.65688955783833
20
-67.685591421844919
30
0
10
-247.53751814365376
20
-67.965264163734872
30
0
0
SPLINE
5
271
100
AcDbEntity
8
0
100
AcDbSpline
70
0
71
2
72
6
73
3
74
0
42
0.000000001
43
0.0000000001
44
0.0000000001
40
0
40
0
40
0
40
1
40
1
40
1
10
-247.53751814365376
20
-67.965264163734872
30
0
10
-247.41814672946919
20
-68.244936905624826
30
0
10
-247.41814672946919
20
-68.562126003029306
30
0
0
SPLINE
5
272
100
AcDbEntity
8
0
100
AcDbSpline
70
0
71
2
72
6
73
3
74
0
42
0.000000001
43
0.0000000001
44
0.0000000001
40
0
40
0
40
0
40
1
40
1
40
1
10
-247.41814672946919
20
-68.562126003029306
30
0
10
-247.41814672946924
20
-69.121471486809213
30
0
10
-247.72169172763819
20
-69.445482335808236
30
0
0
SPLINE
5
273
100
AcDbEntity
8
0
100
AcDbSpline
70
0
71
2
72
6
73
3
74
0
42
0.000000001
43
0.0000000001
44
0.0000000001
40
0
40
0
40
0
40
1
40
1
40
1
10
-247.72169172763819
20
-69.445482335808236
30
0
10
-248.02524149417872
20
-69.766082607033212
30
0
10
-248.4890848398208
20
-69.766082607033198
30
0
0
SPLINE
5
274
100
AcDbEntity
8
0
100
AcDbSpline
70
0
71
2
72
6
73
3
74
0
42
0.000000001
43
0.0000000001
44
0.0000000001
40
0
40
0
40
0
40
1
40
1
40
1
10
-248.4890848398208
20
-69.766082607033198
30
0
10
-248.79604399204248
20
-69.766082607033198
30
0
10
-249.03478682041163
20
-69.619425080540125
30
0
0
SPLINE
5
275
100
AcDbEntity
8
0
100
AcDbSpline
70
0
71
2
72
6
73
3
74
0
42
0.000000001
43
0.0000000001
44
0.0000000001
40
0
40
0
40
0
40
1
40
1
40
1
10
-249.03478682041163
20
-69.619425080540125
30
0
10
-249.2769438028335
20
-69.472767554047039
30
0
10
-249.40313875675196
20
-69.210148297073772
30
0
0
SPLINE
5
276
100
AcDbEntity
8
0
100
AcDbSpline
70
0
71
2
72
6
73
3
74
0
42
0.000000001
43
0.0000000001
44
0.0000000001
40
0
40
0
40
0
40
1
40
1
40
1
10
-249.40313875675196
20
-69.210148297073772
30
0
10
-249.53274309635157
20
-68.94411786628001
30
0
10
-249.62823927402485
20
-68.446164570572307
30
0
0
SPLINE
5
277
100
AcDbEntity
8
0
100
AcDbSpline
70
0
71
2
72
6
73
3
74
0
42
0.000000001
43
0.0000000001
44
0.0000000001
40
0
40
0
40
0
40
1
40
1
40
1
10
-249.62823927402485
20
-68.446164570572307
30
0
10
-249.75443422794331
20
-67.774268232109478
30
0
10
-249.86357271671284
20
-67.515059552910259
30
0
0
LINE
5
278
100
AcDbEntity
8
0
100
AcDbLine
10
-249.86357271671284
20
-67.515059552910259
30
0
11
-249.95907366275776
21
-67.515059552910259
31
0
0
SPLINE
5
279
100
AcDbEntity
8
0
100
AcDbSpline
70
0
71
2
72
6
73
3
74
0
42
0.000000001
43
0.0000000001
44
0.0000000001
40
0
40
0
40
0
40
1
40
1
40
1
10
-249.95907366275776
20
-67.515059552910259
30
0
10
-250.23533403873432
20
-67.515059552910259
30
0
10
-250.35129606723774
20
-67.651485048057964
30
0
0
SPLINE
5
280
100
AcDbEntity
8
0
100
AcDbSpline
70
0
71
2
72
6
73
3
74
0
42
0.000000001
43
0.0000000001
44
0.0000000001
40
0
40
0
40
0
40
1
40
1
40
1
10
-250.35129606723774
20
-67.651485048057964
30
0
10
-250.47066748142231
20
-67.787910543205669
30
0
10
-250.47066748142231
20
-68.166491828682354
30
0
0
SPLINE
5
281
100
AcDbEntity
8
0
100
AcDbSpline
70
0
71
2
72
6
73
3
74
0
42
0.000000001
43
0.0000000001
44
0.0000000001
40
0
40
0
40
0
40
1
40
1
40
1
10
-250.47066748142231
20
-68.166491828682354
30
0
10
-250.47066748142231
20
-68.422289930107524
30
0
10
-250.36834776401508
20
-68.565537176849773
30
0
0
SPLINE
5
282
100
AcDbEntity
8
0
100
AcDbSpline
70
0
71
2
72
6
73
3
74
0
42
0.000000001
43
0.0000000001
44
0.0000000001
40
0
40
0
40
0
40
1
40
1
40
1
10
-250.36834776401508
20
-68.565537176849773
30
0
10
-250.26944220066059
20
-68.708783827545574
30
0
10
-250.01705229282368
20
-68.797460637810161
30
0
0
SPLINE
5
283
100
AcDbEntity
8
0
100
AcDbSpline
70
0
71
2
72
6
73
3
74
0
42
0.000000001
43
0.0000000001
44
0.0000000001
40
0
40
0
40
0
40
1
40
1
40
1
10
-249.23942625522602
20
-67.515059552910259
30
0
10
-249.17803823947895
20
-67.699234328987529
30
0
10
-249.09277021884907
20
-68.098279081108515
30
0
0
SPLINE
5
284
100
AcDbEntity
8
0
100
AcDbSpline
70
0
71
2
72
6
73
3
74
0
42
0.000000001
43
0.0000000001
44
0.0000000001
40
0
40
0
40
0
40
1
40
1
40
1
10
-249.09277021884907
20
-68.098279081108515
30
0
10
-249.00750219821919
20
-68.497323833229487
30
0
10
-248.92564833164204
20
-68.620107017281001
30
0
0
SPLINE
5
285
100
AcDbEntity
8
0
100
AcDbSpline
70
0
71
2
72
6
73
3
74
0
42
0.000000001
43
0.0000000001
44
0.0000000001
40
0
40
0
40
0
40
1
40
1
40
1
10
-248.92564833164204
20
-68.620107017281001
30
0
10
-248.79263460636128
20
-68.807692371132319
30
0
10
-248.58799517154682
20
-68.807692371132319
30
0
0
SPLINE
5
286
100
AcDbEntity
8
0
100
AcDbSpline
70
0
71
2
72
6
73
3
74
0
42
0.000000001
43
0.0000000001
44
0.0000000001
40
0
40
0
40
0
40
1
40
1
40
1
10
-248.58799517154682
20
-68.807692371132319
30
0
10
-248.38676512241352
20
-68.807692371132333
30
0
10
-248.24010908603657
20
-68.657623968841989
30
0
0
SPLINE
5
287
100
AcDbEntity
8
0
100
AcDbSpline
70
0
71
2
72
6
73
3
74
0
42
0.000000001
43
0.0000000001
44
0.0000000001
40
0
40
0
40
0
40
1
40
1
40
1
10
-248.24010908603657
20
-68.657623968841989
30
0
10
-248.09345304965962
20
-68.507556162598092
30
0
10
-248.09345304965962
20
-68.275632105591257
30
0
0
SPLINE
5
288
100
AcDbEntity
8
0
100
AcDbSpline
70
0
71
2
72
6
73
3
74
0
42
0.000000001
43
0.0000000001
44
0.0000000001
40
0
40
0
40
0
40
1
40
1
40
1
10
-248.09345304965962
20
-68.275632105591257
30
0
10
-248.09345304965962
20
-68.016423426392038
30
0
10
-248.2639843225478
20
-67.781089387657602
30
0
0
SPLINE
5
289
100
AcDbEntity
8
0
100
AcDbSpline
70
0
71
2
72
6
73
3
74
0
42
0.000000001
43
0.0000000001
44
0.0000000001
40
0
40
0
40
0
40
1
40
1
40
1
10
-248.2639843225478
20
-67.781089387657602
30
0
10
-248.39358866214741
20
-67.607146940948923
30
0
10
-248.58117163181294
20
-67.552576504471247
30
0
0
SPLINE
5
290
100
AcDbEntity
8
0
100
AcDbSpline
70
0
71
2
72
6
73
3
74
0
42
0.000000001
43
0.0000000001
44
0.0000000001
40
0
40
0
40
0
40
1
40
1
40
1
10
-248.58117163181294
20
-67.552576504471247
30
0
10
-248.70395720005024
20
-67.515059552910273
30
0
10
-249.04843389987934
20
-67.515059552910273
30
0
0
LINE
5
291
100
AcDbEntity
8
0
100
AcDbLine
10
-249.04843389987934
20
-67.515059552910273
30
0
11
-249.23942625522602
21
-67.515059552910273
31
0
0
LINE
5
292
100
AcDbEntity
8
0
100
AcDbLine
10
-247.50000059604631
20
-64.711512766601999
30
0
11
-247.50000059604631
21
-65.669903002502878
31
0
0
LINE
5
293
100
AcDbEntity
8
0
100
AcDbLine
10
-247.50000059604631
20
-65.669903002502878
30
0
11
-251.12210333347306
21
-65.669903002502835
31
0
0
LINE
5
294
100
AcDbEntity
8
0
100
AcDbLine
10
-251.12210333347306
20
-65.669903002502835
30
0
11
-251.12210333347306
21
-64.779725514175809
31
0
0
LINE
5
295
100
AcDbEntity
8
0
100
AcDbLine
10
-251.12210333347306
20
-64.779725514175809
30
0
11
-250.60709536075578
21
-64.779725514175823
31
0
0
SPLINE
5
296
100
AcDbEntity
8
0
100
AcDbSpline
70
0
71
2
72
6
73
3
74
0
42
0.000000001
43
0.0000000001
44
0.0000000001
40
0
40
0
40
0
40
1
40
1
40
1
10
-250.60709536075578
20
-64.779725514175809
30
0
10
-250.97203314304338
20
-64.551212630989468
30
0
10
-251.08799517154679
20
-64.370448432686246
30
0
0
SPLINE
5
297
100
AcDbEntity
8
0
100
AcDbSpline
70
0
71
2
72
6
73
3
74
0
42
0.000000001
43
0.0000000001
44
0.0000000001
40
0
40
0
40
0
40
1
40
1
40
1
10
-251.08799517154679
20
-64.370448432686246
30
0
10
-251.20395720005021
20
-64.186274252655423
30
0
10
-251.20395720005021
20
-63.954350195648587
30
0
0
SPLINE
5
298
100
AcDbEntity
8
0
100
AcDbSpline
70
0
71
2
72
6
73
3
74
0
42
0.000000001
43
0.0000000001
44
0.0000000001
40
0
40
0
40
0
40
1
40
1
40
1
10
-251.20395720005021
20
-63.954350195648587
30
0
10
-251.20395720005021
20
-63.626928768875516
30
0
10
-251.02319300174699
20
-63.323381386520779
30
0
0
LINE
5
299
100
AcDbEntity
8
0
100
AcDbLine
10
-251.02319300174699
20
-63.323381386520779
30
0
11
-250.18758833408342
21
-63.620107613327434
31
0
0
SPLINE
5
300
100
AcDbEntity
8
0
100
AcDbSpline
70
0
71
2
72
6
73
3
74
0
42
0.000000001
43
0.0000000001
44
0.0000000001
40
0
40
0
40
0
40
1
40
1
40
1
10
-250.18758833408342
20
-63.620107613327434
30
0
10
-250.34447729587541
20
-63.862263403656414
30
0
10
-250.34447729587541
20
-64.070312224152019
30
0
0
SPLINE
5
301
100
AcDbEntity
8
0
100
AcDbSpline
70
0
71
2
72
6
73
3
74
0
42
0.000000001
43
0.0000000001
44
0.0000000001
40
0
40
0
40
0
40
1
40
1
40
1
10
-250.34447729587541
20
-64.070312224152019
30
0
10
-250.34447729587541
20
-64.271539889099529
30
0
10
-250.23192465305314
20
-64.411375962021282
30
0
0
SPLINE
5
302
100
AcDbEntity
8
0
100
AcDbSpline
70
0
71
2
72
6
73
3
74
0
42
0.000000001
43
0.0000000001
44
0.0000000001
40
0
40
0
40
0
40
1
40
1
40
1
10
-250.23192465305314
20
-64.411375962021282
30
0
10
-250.12278616428361
20
-64.551212630989482
30
0
10
-249.83287870883927
20
-64.633067689659526
30
0
0
SPLINE
5
303
100
AcDbEntity
8
0
100
AcDbSpline
70
0
71
2
72
6
73
3
74
0
42
0.000000001
43
0.0000000001
44
0.0000000001
40
0
40
0
40
0
40
1
40
1
40
1
10
-249.83287870883927
20
-64.633067689659526
30
0
10
-249.54297602176652
20
-64.71151276660197
30
0
10
-248.61868917942033
20
-64.711512766601984
30
0
0
LINE
5
304
100
AcDbEntity
8
0
100
AcDbLine
10
-248.61868917942033
20
-64.711512766601984
30
0
11
-247.50000059604631
21
-64.711512766601999
31
0
0
LINE
5
305
100
AcDbEntity
8
0
100
AcDbLine
10
-247.50000059604622
20
-59.588728390457597
30
0
11
-247.50000059604622
21
-60.478905878784623
31
0
0
LINE
5
306
100
AcDbEntity
8
0
100
AcDbLine
10
-247.50000059604628
20
-60.478905878784623
30
0
11
-248.03206026554091
21
-60.478905878784616
31
0
0
SPLINE
5
307
100
AcDbEntity
8
0
100
AcDbSpline
70
0
71
2
72
6
73
3
74
0
42
0.000000001
43
0.0000000001
44
0.0000000001
40
0
40
0
40
0
40
1
40
1
40
1
10
-248.03206026554091
20
-60.478905878784616
30
0
10
-247.72169172763807
20
-60.700598202469308
30
0
10
-247.56821215152723
20
-61.004145584824052
30
0
0
SPLINE
5
308
100
AcDbEntity
8
0
100
AcDbSpline
70
0
71
2
72
6
73
3
74
0
42
0.000000001
43
0.0000000001
44
0.0000000001
40
0
40
0
40
0
40
1
40
1
40
1
10
-247.56821215152723
20
-61.004145584824052
30
0
10
-247.41814672946913
20
-61.304281197311845
30
0
10
-247.41814672946913
20
-61.611239157440629
30
0
0
SPLINE
5
309
100
AcDbEntity
8
0
100
AcDbSpline
70
0
71
2
72
6
73
3
74
0
42
0.000000001
43
0.0000000001
44
0.0000000001
40
0
40
0
40
0
40
1
40
1
40
1
10
-247.41814672946913
20
-61.611239157440629
30
0
10
-247.41814672946913
20
-62.235386811020341
30
0
10
-247.91950762271864
20
-62.682180844070871
30
0
0
SPLINE
5
310
100
AcDbEntity
8
0
100
AcDbSpline
70
0
71
2
72
6
73
3
74
0
42
0.000000001
43
0.0000000001
44
0.0000000001
40
0
40
0
40
0
40
1
40
1
40
1
10
-247.91950762271864
20
-62.682180844070871
30
0
10
-248.42428267002092
20
-63.12556429934736
30
0
10
-249.32469427585588
20
-63.125564299347339
30
0
0
SPLINE
5
311
100
AcDbEntity
8
0
100
AcDbSpline
70
0
71
2
72
6
73
3
74
0
42
0.000000001
43
0.0000000001
44
0.0000000001
40
0
40
0
40
0
40
1
40
1
40
1
10
-249.32469427585588
20
-63.125564299347339
30
0
10
-250.24556696414933
20
-63.125564299347332
30
0
10
-250.7230573892592
20
-62.692412577392972
30
0
0
SPLINE
5
312
100
AcDbEntity
8
0
100
AcDbSpline
70
0
71
2
72
6
73
3
74
0
42
0.000000001
43
0.0000000001
44
0.0000000001
40
0
40
0
40
0
40
1
40
1
40
1
10
-250.7230573892592
20
-62.692412577392972
30
0
10
-251.20395720005018
20
-62.259260855438626
30
0
10
-251.20395720005018
20
-61.597596846344388
30
0
0
SPLINE
5
313
100
AcDbEntity
8
0
100
AcDbSpline
70
0
71
2
72
6
73
3
74
0
42
0.000000001
43
0.0000000001
44
0.0000000001
40
0
40
0
40
0
40
1
40
1
40
1
10
-251.20395720005018
20
-61.597596846344388
30
0
10
-251.20395720005018
20
-60.990502081634915
30
0
10
-250.69918215274794
20
-60.547118626358426
30
0
0
LINE
5
314
100
AcDbEntity
8
0
100
AcDbLine
10
-250.69918215274794
20
-60.547118626358426
30
0
11
-252.50000059604628
21
-60.547118626358412
31
0
0
LINE
5
315
100
AcDbEntity
8
0
100
AcDbLine
10
-252.50000059604628
20
-60.547118626358412
30
0
11
-252.50000059604628
21
-59.588728390457533
31
0
0
LINE
5
316
100
AcDbEntity
8
0
100
AcDbLine
10
-252.50000059604622
20
-59.588728390457533
30
0
11
-247.50000059604622
21
-59.588728390457597
31
0
0
SPLINE
5
317
100
AcDbEntity
8
0
100
AcDbSpline
70
0
71
2
72
6
73
3
74
0
42
0.000000001
43
0.0000000001
44
0.0000000001
40
0
40
0
40
0
40
1
40
1
40
1
10
-249.38949644565565
20
-62.146709404709277
30
0
10
-248.80968630313856
20
-62.146709404709284
30
0
10
-248.55047762393934
20
-61.986409865143244
30
0
0
SPLINE
5
318
100
AcDbEntity
8
0
100
AcDbSpline
70
0
71
2
72
6
73
3
74
0
42
0.000000001
43
0.0000000001
44
0.0000000001
40
0
40
0
40
0
40
1
40
1
40
1
10
-248.55047762393934
20
-61.986409865143244
30
0
10
-248.17530691623671
20
-61.754485808136423
30
0
10
-248.17530691623671
20
-61.338388167145212
30
0
0
SPLINE
5
319
100
AcDbEntity
8
0
100
AcDbSpline
70
0
71
2
72
6
73
3
74
0
42
0.000000001
43
0.0000000001
44
0.0000000001
40
0
40
0
40
0
40
1
40
1
40
1
10
-248.17530691623671
20
-61.338388167145212
30
0
10
-248.17530691623671
20
-61.007556162598092
30
0
10
-248.454981446266
20
-60.775632105591257
30
0
0
SPLINE
5
320
100
AcDbEntity
8
0
100
AcDbSpline
70
0
71
2
72
6
73
3
74
0
42
0.000000001
43
0.0000000001
44
0.0000000001
40
0
40
0
40
0
40
1
40
1
40
1
10
-248.454981446266
20
-60.775632105591257
30
0
10
-248.73806536197645
20
-60.543708048584406
30
0
10
-249.29740965366346
20
-60.543708048584399
30
0
0
SPLINE
5
321
100
AcDbEntity
8
0
100
AcDbSpline
70
0
71
2
72
6
73
3
74
0
42
0.000000001
43
0.0000000001
44
0.0000000001
40
0
40
0
40
0
40
1
40
1
40
1
10
-249.29740965366346
20
-60.543708048584399
30
0
10
-249.92155611515028
20
-60.543708048584399
30
0
10
-250.19440710544569
20
-60.768810950043132
30
0
0
SPLINE
5
322
100
AcDbEntity
8
0
100
AcDbSpline
70
0
71
2
72
6
73
3
74
0
42
0.000000001
43
0.0000000001
44
0.0000000001
40
0
40
0
40
0
40
1
40
1
40
1
10
-250.19440710544569
20
-60.768810950043132
30
0
10
-250.47066748142225
20
-60.993912659408977
30
0
10
-250.47066748142225
20
-61.345209322693279
30
0
0
SPLINE
5
323
100
AcDbEntity
8
0
100
AcDbSpline
70
0
71
2
72
6
73
3
74
0
42
0.000000001
43
0.0000000001
44
0.0000000001
40
0
40
0
40
0
40
1
40
1
40
1
10
-250.47066748142225
20
-61.345209322693279
30
0
10
-250.47066748142225
20
-61.686273060562542
30
0
10
-250.19781649112684
20
-61.918197117569377
30
0
0
SPLINE
5
324
100
AcDbEntity
8
0
100
AcDbSpline
70
0
71
2
72
6
73
3
74
0
42
0.000000001
43
0.0000000001
44
0.0000000001
40
0
40
0
40
0
40
1
40
1
40
1
10
-250.19781649112684
20
-61.918197117569377
30
0
10
-249.92837965488417
20
-62.14670940470927
30
0
10
-249.38949644565565
20
-62.146709404709277
30
0
0
LINE
5
325
100
AcDbEntity
8
0
100
AcDbLine
10
-248.65279734134651
20
-56.546436987640803
30
0
11
-248.49249899387337
21
-55.591457329513972
31
0
0
SPLINE
5
326
100
AcDbEntity
8
0
100
AcDbSpline
70
0
71
2
72
6
73
3
74
0
42
0.000000001
43
0.0000000001
44
0.0000000001
40
0
40
0
40
0
40
1
40
1
40
1
10
-248.49249899387334
20
-55.591457329513986
30
0
10
-247.96725809574102
20
-55.775632105591257
30
0
10
-247.69099771976445
20
-56.174676857712228
30
0
0
SPLINE
5
327
100
AcDbEntity
8
0
100
AcDbSpline
70
0
71
2
72
6
73
3
74
0
42
0.000000001
43
0.0000000001
44
0.0000000001
40
0
40
0
40
0
40
1
40
1
40
1
10
-247.69099771976445
20
-56.174676857712228
30
0
10
-247.41814672946907
20
-56.570312224152055
30
0
10
-247.41814672946907
20
-57.167174063446488
30
0
0
SPLINE
5
328
100
AcDbEntity
8
0
100
AcDbSpline
70
0
71
2
72
6
73
3
74
0
42
0.000000001
43
0.0000000001
44
0.0000000001
40
0
40
0
40
0
40
1
40
1
40
1
10
-247.41814672946907
20
-57.167174063446488
30
0
10
-247.41814672946907
20
-58.111921988251176
30
0
10
-248.035469651222
20
-58.565537176849801
30
0
0
SPLINE
5
329
100
AcDbEntity
8
0
100
AcDbSpline
70
0
71
2
72
6
73
3
74
0
42
0.000000001
43
0.0000000001
44
0.0000000001
40
0
40
0
40
0
40
1
40
1
40
1
10
-248.035469651222
20
-58.565537176849801
30
0
10
-248.53001654148079
20
-58.923653803589289
30
0
10
-249.28376734256722
20
-58.923653803589282
30
0
0
SPLINE
5
330
100
AcDbEntity
8
0
100
AcDbSpline
70
0
71
2
72
6
73
3
74
0
42
0.000000001
43
0.0000000001
44
0.0000000001
40
0
40
0
40
0
40
1
40
1
40
1
10
-249.28376734256722
20
-58.923653803589282
30
0
10
-250.1841741800306
20
-58.923653803589275
30
0
10
-250.69235861301399
20
-58.452985726120389
30
0
0
SPLINE
5
331
100
AcDbEntity
8
0
100
AcDbSpline
70
0
71
2
72
6
73
3
74
0
42
0.000000001
43
0.0000000001
44
0.0000000001
40
0
40
0
40
0
40
1
40
1
40
1
10
-250.69235861301399
20
-58.452985726120389
30
0
10
-251.20395720005013
20
-57.982317648651517
30
0
10
-251.20395720005013
20
-57.262671433212674
30
0
0
SPLINE
5
332
100
AcDbEntity
8
0
100
AcDbSpline
70
0
71
2
72
6
73
3
74
0
42
0.000000001
43
0.0000000001
44
0.0000000001
40
0
40
0
40
0
40
1
40
1
40
1
10
-251.20395720005013
20
-57.262671433212674
30
0
10
-251.2039572000501
20
-56.454350195648587
30
0
10
-250.66848814487432
20
-55.987091503860867
30
0
0
SPLINE
5
333
100
AcDbEntity
8
0
100
AcDbSpline
70
0
71
2
72
6
73
3
74
0
42
0.000000001
43
0.0000000001
44
0.0000000001
40
0
40
0
40
0
40
1
40
1
40
1
10
-250.66848814487432
20
-55.987091503860867
30
0
10
-250.13642847537969
20
-55.519834004166057
30
0
10
-249.03478682041143
20
-55.540298662903254
30
0
0
LINE
5
334
100
AcDbEntity
8
0
100
AcDbLine
10
-249.03478682041143
20
-55.540298662903254
30
0
11
-249.03478682041145
21
-57.941389523270075
31
0
0
SPLINE
5
335
100
AcDbEntity
8
0
100
AcDbSpline
70
0
71
2
72
6
73
3
74
0
42
0.000000001
43
0.0000000001
44
0.0000000001
40
0
40
0
40
0
40
1
40
1
40
1
10
-249.03478682041145
20
-57.941389523270075
30
0
10
-248.60846102237679
20
-57.931157789947932
30
0
10
-248.36971342563606
20
-57.709465466263254
30
0
0
SPLINE
5
336
100
AcDbEntity
8
0
100
AcDbSpline
70
0
71
2
72
6
73
3
74
0
42
0.000000001
43
0.0000000001
44
0.0000000001
40
0
40
0
40
0
40
1
40
1
40
1
10
-248.36971342563606
20
-57.709465466263254
30
0
10
-248.13437998294808
20
-57.487774334671457
30
0
10
-248.13437998294808
20
-57.156942330124338
30
0
0
SPLINE
5
337
100
AcDbEntity
8
0
100
AcDbSpline
70
0
71
2
72
6
73
3
74
0
42
0.000000001
43
0.0000000001
44
0.0000000001
40
0
40
0
40
0
40
1
40
1
40
1
10
-248.13437998294808
20
-57.156942330124338
30
0
10
-248.13437998294808
20
-56.931839428665597
30
0
10
-248.2571607828138
20
-56.778361044647653
30
0
0
SPLINE
5
338
100
AcDbEntity
8
0
100
AcDbSpline
70
0
71
2
72
6
73
3
74
0
42
0.000000001
43
0.0000000001
44
0.0000000001
40
0
40
0
40
0
40
1
40
1
40
1
10
-248.2571607828138
20
-56.778361044647653
30
0
10
-248.3799463510511
20
-56.624881468536813
30
0
10
-248.65279734134651
20
-56.546436987640803
30
0
0
SPLINE
5
339
100
AcDbEntity
8
0
100
AcDbSpline
70
0
71
2
72
6
73
3
74
0
42
0.000000001
43
0.0000000001
44
0.0000000001
40
0
40
0
40
0
40
1
40
1
40
1
10
-249.6214205026624
20
-56.491866551163135
30
0
10
-250.03751814365361
20
-56.502099476578167
30
0
10
-250.25239050388313
20
-56.706737719299724
30
0
0
SPLINE
5
340
100
AcDbEntity
8
0
100
AcDbSpline
70
0
71
2
72
6
73
3
74
0
42
0.000000001
43
0.0000000001
44
0.0000000001
40
0
40
0
40
0
40
1
40
1
40
1
10
-250.25239050388313
20
-56.706737719299724
30
0
10
-250.4706674814222
20
-56.911375962021282
30
0
10
-250.4706674814222
20
-57.204690418960979
30
0
0
SPLINE
5
341
100
AcDbEntity
8
0
100
AcDbSpline
70
0
71
2
72
6
73
3
74
0
42
0.000000001
43
0.0000000001
44
0.0000000001
40
0
40
0
40
0
40
1
40
1
40
1
10
-250.4706674814222
20
-57.204690418960979
30
0
10
-250.4706674814222
20
-57.518469534637859
30
0
10
-250.2421575784681
20
-57.723108969452312
30
0
0
SPLINE
5
342
100
AcDbEntity
8
0
100
AcDbSpline
70
0
71
2
72
6
73
3
74
0
42
0.000000001
43
0.0000000001
44
0.0000000001
40
0
40
0
40
0
40
1
40
1
40
1
10
-250.2421575784681
20
-57.723108969452312
30
0
10
-250.01364290714241
20
-57.92774721217387
30
0
10
-249.62142050266243
20
-57.924336634399829
30
0
0
LINE
5
343
100
AcDbEntity
8
0
100
AcDbLine
10
-249.62142050266243
20
-57.924336634399829
30
0
11
-249.62142050266243
21
-56.491866551163135
31
0
0
LINE
5
344
100
AcDbEntity
8
0
100
AcDbLine
10
-247.50000059604616
20
-51.46458192897078
30
0
11
-247.50000059604616
21
-52.422972164871659
31
0
0
LINE
5
345
100
AcDbEntity
8
0
100
AcDbLine
10
-247.50000059604616
20
-52.422972164871659
30
0
11
-249.34856951236696
21
-52.422972164871631
31
0
0
SPLINE
5
346
100
AcDbEntity
8
0
100
AcDbSpline
70
0
71
2
72
6
73
3
74
0
42
0.000000001
43
0.0000000001
44
0.0000000001
40
0
40
0
40
0
40
1
40
1
40
1
10
-249.34856951236696
20
-52.422972164871631
30
0
10
-249.93519842624636
20
-52.422972164871631
30
0
10
-250.10572969913454
20
-52.484362564804485
30
0
0
SPLINE
5
347
100
AcDbEntity
8
0
100
AcDbSpline
70
0
71
2
72
6
73
3
74
0
42
0.000000001
43
0.0000000001
44
0.0000000001
40
0
40
0
40
0
40
1
40
1
40
1
10
-250.10572969913454
20
-52.484362564804485
30
0
10
-250.27967512607546
20
-52.545755348923137
30
0
10
-250.3751713037488
20
-52.685590229751995
30
0
0
SPLINE
5
348
100
AcDbEntity
8
0
100
AcDbSpline
70
0
71
2
72
6
73
3
74
0
42
0.000000001
43
0.0000000001
44
0.0000000001
40
0
40
0
40
0
40
1
40
1
40
1
10
-250.3751713037488
20
-52.685590229751995
30
0
10
-250.47066748142214
20
-52.822018109085491
30
0
10
-250.47066748142214
20
-53.016424618484905
30
0
0
SPLINE
5
349
100
AcDbEntity
8
0
100
AcDbSpline
70
0
71
2
72
6
73
3
74
0
42
0.000000001
43
0.0000000001
44
0.0000000001
40
0
40
0
40
0
40
1
40
1
40
1
10
-250.47066748142214
20
-53.016424618484905
30
0
10
-250.47066748142214
20
-53.265400372269085
30
0
10
-250.33424437046023
20
-53.463218651535442
30
0
0
SPLINE
5
350
100
AcDbEntity
8
0
100
AcDbSpline
70
0
71
2
72
6
73
3
74
0
42
0.000000001
43
0.0000000001
44
0.0000000001
40
0
40
0
40
0
40
1
40
1
40
1
10
-250.33424437046023
20
-53.463218651535442
30
0
10
-250.19781649112673
20
-53.661034546616008
30
0
10
-249.97271597385378
20
-53.736069641830852
30
0
0
SPLINE
5
351
100
AcDbEntity
8
0
100
AcDbSpline
70
0
71
2
72
6
73
3
74
0
42
0.000000001
43
0.0000000001
44
0.0000000001
40
0
40
0
40
0
40
1
40
1
40
1
10
-249.97271597385378
20
-53.736069641830852
30
0
10
-249.74761545658083
20
-53.80769296717876
30
0
10
-249.14052069187136
20
-53.80769296717876
30
0
0
LINE
5
352
100
AcDbEntity
8
0
100
AcDbLine
10
-249.14052069187136
20
-53.80769296717876
30
0
11
-247.50000059604616
21
-53.807692967178781
31
0
0
LINE
5
353
100
AcDbEntity
8
0
100
AcDbLine
10
-247.50000059604616
20
-53.807692967178788
30
0
11
-247.50000059604616
21
-54.766082010986771
31
0
0
LINE
5
354
100
AcDbEntity
8
0
100
AcDbLine
10
-247.50000059604619
20
-54.766082010986771
30
0
11
-251.12210333347295
21
-54.766082010986722
31
0
0
LINE
5
355
100
AcDbEntity
8
0
100
AcDbLine
10
-251.12210333347295
20
-54.766082010986722
30
0
11
-251.12210333347295
21
-53.875904522659695
31
0
0
LINE
5
356
100
AcDbEntity
8
0
100
AcDbLine
10
-251.12210333347292
20
-53.875904522659695
30
0
11
-250.59004366397829
21
-53.87590452265971
31
0
0
SPLINE
5
357
100
AcDbEntity
8
0
100
AcDbSpline
70
0
71
2
72
6
73
3
74
0
42
0.000000001
43
0.0000000001
44
0.0000000001
40
0
40
0
40
0
40
1
40
1
40
1
10
-250.59004366397829
20
-53.875904522659695
30
0
10
-251.20395720005007
20
-53.401825867416775
30
0
10
-251.20395720005007
20
-52.682180844070828
30
0
0
SPLINE
5
358
100
AcDbEntity
8
0
100
AcDbSpline
70
0
71
2
72
6
73
3
74
0
42
0.000000001
43
0.0000000001
44
0.0000000001
40
0
40
0
40
0
40
1
40
1
40
1
10
-251.20395720005007
20
-52.682180844070828
30
0
10
-251.20395720005007
20
-52.3649911506199
30
0
10
-251.08799517154665
20
-52.102370701553738
30
0
0
SPLINE
5
359
100
AcDbEntity
8
0
100
AcDbSpline
70
0
71
2
72
6
73
3
74
0
42
0.000000001
43
0.0000000001
44
0.0000000001
40
0
40
0
40
0
40
1
40
1
40
1
10
-251.08799517154665
20
-52.102370701553738
30
0
10
-250.97544252872439
20
-51.839752636673367
30
0
10
-250.7980924844739
20
-51.706736527206814
30
0
0
SPLINE
5
360
100
AcDbEntity
8
0
100
AcDbSpline
70
0
71
2
72
6
73
3
74
0
42
0.000000001
43
0.0000000001
44
0.0000000001
40
0
40
0
40
0
40
1
40
1
40
1
10
-250.7980924844739
20
-51.706736527206814
30
0
10
-250.62073767185183
20
-51.570311032059109
30
0
10
-250.39563715457888
20
-51.51915117335551
30
0
0
SPLINE
5
361
100
AcDbEntity
8
0
100
AcDbSpline
70
0
71
2
72
6
73
3
74
0
42
0.000000001
43
0.0000000001
44
0.0000000001
40
0
40
0
40
0
40
1
40
1
40
1
10
-250.39563715457888
20
-51.51915117335551
30
0
10
-250.17053186893435
20
-51.464581928970745
30
0
10
-249.75102484226198
20
-51.464581928970752
30
0
0
LINE
5
362
100
AcDbEntity
8
0
100
AcDbLine
10
-249.75102484226198
20
-51.464581928970752
30
0
11
-247.50000059604616
21
-51.46458192897078
31
0
0
LINE
5
363
100
AcDbEntity
8
0
100
AcDbLine
10
-251.61323606967898
20
-50.492545805694967
30
0
11
-252.50000059604616
21
-50.492545805694959
31
0
0
LINE
5
364
100
AcDbEntity
8
0
100
AcDbLine
10
-252.50000059604616
20
-50.492545805694959
30
0
11
-252.50000059604616
21
-49.534155569794081
31
0
0
LINE
5
365
100
AcDbEntity
8
0
100
AcDbLine
10
-252.50000059604614
20
-49.534155569794081
30
0
11
-251.61323606967895
21
-49.534155569794088
31
0
0
LINE
5
366
100
AcDbEntity
8
0
100
AcDbLine
10
-251.61323606967895
20
-49.534155569794088
30
0
11
-251.61323606967895
21
-50.492545805694967
31
0
0
LINE
5
367
100
AcDbEntity
8
0
100
AcDbLine
10
-247.50000059604616
20
-50.492545805695016
30
0
11
-251.12210333347292
21
-50.492545805694967
31
0
0
LINE
5
368
100
AcDbEntity
8
0
100
AcDbLine
10
-251.12210333347292
20
-50.492545805694974
30
0
11
-251.12210333347292
21
-49.534155569794095
31
0
0
LINE
5
369
100
AcDbEntity
8
0
100
AcDbLine
10
-251.12210333347289
20
-49.534155569794095
30
0
11
-247.50000059604614
21
-49.534155569794144
31
0
0
LINE
5
370
100
AcDbEntity
8
0
100
AcDbLine
10
-247.50000059604614
20
-49.534155569794137
30
0
11
-247.50000059604614
21
-50.492545805695016
31
0
0
LINE
5
371
100
AcDbEntity
8
0
100
AcDbLine
10
-250.01705229282345
20
-47.835661612274585
30
0
11
-250.17394125461544
21
-48.705374441864429
31
0
0
SPLINE
5
372
100
AcDbEntity
8
0
100
AcDbSpline
70
0
71
2
72
6
73
3
74
0
42
0.000000001
43
0.0000000001
44
0.0000000001
40
0
40
0
40
0
40
1
40
1
40
1
10
-250.17394125461547
20
-48.705374441864421
30
0
10
-250.6991821527478
20
-48.558713637115872
30
0
10
-250.95156729221313
20
-48.200599394562161
30
0
0
SPLINE
5
373
100
AcDbEntity
8
0
100
AcDbSpline
70
0
71
2
72
6
73
3
74
0
42
0.000000001
43
0.0000000001
44
0.0000000001
40
0
40
0
40
0
40
1
40
1
40
1
10
-250.95156729221313
20
-48.200599394562161
30
0
10
-251.20395720005001
20
-47.842480383636868
30
0
10
-251.20395720005001
20
-47.136480055572903
30
0
0
SPLINE
5
374
100
AcDbEntity
8
0
100
AcDbSpline
70
0
71
2
72
6
73
3
74
0
42
0.000000001
43
0.0000000001
44
0.0000000001
40
0
40
0
40
0
40
1
40
1
40
1
10
-251.20395720005001
20
-47.136480055572903
30
0
10
-251.20395720005001
20
-46.495277128937161
30
0
10
-251.05047762393917
20
-46.181499205353177
30
0
0
SPLINE
5
375
100
AcDbEntity
8
0
100
AcDbSpline
70
0
71
2
72
6
73
3
74
0
42
0.000000001
43
0.0000000001
44
0.0000000001
40
0
40
0
40
0
40
1
40
1
40
1
10
-251.05047762393917
20
-46.181499205353177
30
0
10
-250.90041220188107
20
-45.867721281769192
30
0
10
-250.6650739908215
20
-45.741526327850735
30
0
0
SPLINE
5
376
100
AcDbEntity
8
0
100
AcDbSpline
70
0
71
2
72
6
73
3
74
0
42
0.000000001
43
0.0000000001
44
0.0000000001
40
0
40
0
40
0
40
1
40
1
40
1
10
-250.6650739908215
20
-45.741526327850735
30
0
10
-250.43314993381466
20
-45.611921988251126
30
0
10
-249.80900347232784
20
-45.611921988251147
30
0
0
LINE
5
377
100
AcDbEntity
8
0
100
AcDbLine
10
-249.80900347232784
20
-45.611921988251147
30
0
11
-248.69031488895382
21
-45.622154913666208
31
0
0
SPLINE
5
378
100
AcDbEntity
8
0
100
AcDbSpline
70
0
71
2
72
6
73
3
74
0
42
0.000000001
43
0.0000000001
44
0.0000000001
40
0
40
0
40
0
40
1
40
1
40
1
10
-248.69031488895382
20
-45.622154913666193
30
0
10
-248.21282446384396
20
-45.622154913666208
30
0
10
-247.98430979251827
20
-45.577813826324899
30
0
0
SPLINE
5
379
100
AcDbEntity
8
0
100
AcDbSpline
70
0
71
2
72
6
73
3
74
0
42
0.000000001
43
0.0000000001
44
0.0000000001
40
0
40
0
40
0
40
1
40
1
40
1
10
-247.98430979251827
20
-45.577813826324899
30
0
10
-247.75920927524533
20
-45.53006812167402
30
0
10
-247.50000059604611
20
-45.403873167755563
30
0
0
LINE
5
380
100
AcDbEntity
8
0
100
AcDbLine
10
-247.50000059604611
20
-45.403873167755563
30
0
11
-247.50000059604611
21
-46.352030478241403
31
0
0
SPLINE
5
381
100
AcDbEntity
8
0
100
AcDbSpline
70
0
71
2
72
6
73
3
74
0
42
0.000000001
43
0.0000000001
44
0.0000000001
40
0
40
0
40
0
40
1
40
1
40
1
10
-247.50000059604611
20
-46.352030478241403
30
0
10
-247.59549677371945
20
-46.389548025848825
30
0
10
-247.78308451175656
20
-46.44411727023359
30
0
0
SPLINE
5
382
100
AcDbEntity
8
0
100
AcDbSpline
70
0
71
2
72
6
73
3
74
0
42
0.000000001
43
0.0000000001
44
0.0000000001
40
0
40
0
40
0
40
1
40
1
40
1
10
-247.78308451175656
20
-46.44411727023359
30
0
10
-247.86834776401486
20
-46.467992506744821
30
0
10
-247.89563715457882
20
-46.47822543215986
30
0
0
SPLINE
5
383
100
AcDbEntity
8
0
100
AcDbSpline
70
0
71
2
72
6
73
3
74
0
42
0.000000001
43
0.0000000001
44
0.0000000001
40
0
40
0
40
0
40
1
40
1
40
1
10
-247.89563715457882
20
-46.47822543215986
30
0
10
-247.6568895578381
20
-46.723791800262887
30
0
10
-247.53751814365353
20
-47.003461561920602
30
0
0
SPLINE
5
384
100
AcDbEntity
8
0
100
AcDbSpline
70
0
71
2
72
6
73
3
74
0
42
0.000000001
43
0.0000000001
44
0.0000000001
40
0
40
0
40
0
40
1
40
1
40
1
10
-247.53751814365353
20
-47.003461561920602
30
0
10
-247.41814672946896
20
-47.283136091949906
30
0
10
-247.41814672946896
20
-47.600323401215043
30
0
0
SPLINE
5
385
100
AcDbEntity
8
0
100
AcDbSpline
70
0
71
2
72
6
73
3
74
0
42
0.000000001
43
0.0000000001
44
0.0000000001
40
0
40
0
40
0
40
1
40
1
40
1
10
-247.41814672946896
20
-47.600323401215043
30
0
10
-247.41814672946899
20
-48.159672461273637
30
0
10
-247.72169172763793
20
-48.483683310272653
30
0
0
SPLINE
5
386
100
AcDbEntity
8
0
100
AcDbSpline
70
0
71
2
72
6
73
3
74
0
42
0.000000001
43
0.0000000001
44
0.0000000001
40
0
40
0
40
0
40
1
40
1
40
1
10
-247.72169172763793
20
-48.483683310272653
30
0
10
-248.02524149417846
20
-48.804280005218942
30
0
10
-248.48908483982055
20
-48.804280005218942
30
0
0
SPLINE
5
387
100
AcDbEntity
8
0
100
AcDbSpline
70
0
71
2
72
6
73
3
74
0
42
0.000000001
43
0.0000000001
44
0.0000000001
40
0
40
0
40
0
40
1
40
1
40
1
10
-248.48908483982055
20
-48.804280005218942
30
0
10
-248.79604399204223
20
-48.804280005218928
30
0
10
-249.03478682041137
20
-48.657623968841968
30
0
0
SPLINE
5
388
100
AcDbEntity
8
0
100
AcDbSpline
70
0
71
2
72
6
73
3
74
0
42
0.000000001
43
0.0000000001
44
0.0000000001
40
0
40
0
40
0
40
1
40
1
40
1
10
-249.03478682041137
20
-48.657623968841968
30
0
10
-249.27694380283324
20
-48.510967932465014
30
0
10
-249.4031387567517
20
-48.248345099213061
30
0
0
SPLINE
5
389
100
AcDbEntity
8
0
100
AcDbSpline
70
0
71
2
72
6
73
3
74
0
42
0.000000001
43
0.0000000001
44
0.0000000001
40
0
40
0
40
0
40
1
40
1
40
1
10
-249.4031387567517
20
-48.248345099213061
30
0
10
-249.53274309635128
20
-47.982317648651538
30
0
10
-249.62823927402462
20
-47.484361372711597
30
0
0
SPLINE
5
390
100
AcDbEntity
8
0
100
AcDbSpline
70
0
71
2
72
6
73
3
74
0
42
0.000000001
43
0.0000000001
44
0.0000000001
40
0
40
0
40
0
40
1
40
1
40
1
10
-249.62823927402462
20
-47.484361372711597
30
0
10
-249.75443422794308
20
-46.812469206573901
30
0
10
-249.86357271671261
20
-46.553260527374682
30
0
0
LINE
5
391
100
AcDbEntity
8
0
100
AcDbLine
10
-249.86357271671261
20
-46.553260527374682
30
0
11
-249.95907366275753
21
-46.553260527374682
31
0
0
SPLINE
5
392
100
AcDbEntity
8
0
100
AcDbSpline
70
0
71
2
72
6
73
3
74
0
42
0.000000001
43
0.0000000001
44
0.0000000001
40
0
40
0
40
0
40
1
40
1
40
1
10
-249.95907366275753
20
-46.553260527374682
30
0
10
-250.23533403873409
20
-46.553260527374675
30
0
10
-250.35129606723751
20
-46.689683638336589
30
0
0
SPLINE
5
393
100
AcDbEntity
8
0
100
AcDbSpline
70
0
71
2
72
6
73
3
74
0
42
0.000000001
43
0.0000000001
44
0.0000000001
40
0
40
0
40
0
40
1
40
1
40
1
10
-250.35129606723751
20
-46.689683638336589
30
0
10
-250.47066748142208
20
-46.826111517670071
30
0
10
-250.47066748142208
20
-47.20469161105386
30
0
0
SPLINE
5
394
100
AcDbEntity
8
0
100
AcDbSpline
70
0
71
2
72
6
73
3
74
0
42
0.000000001
43
0.0000000001
44
0.0000000001
40
0
40
0
40
0
40
1
40
1
40
1
10
-250.47066748142208
20
-47.20469161105386
30
0
10
-250.47066748142208
20
-47.460490904571927
30
0
10
-250.36834776401486
20
-47.603737555267742
30
0
0
SPLINE
5
395
100
AcDbEntity
8
0
100
AcDbSpline
70
0
71
2
72
6
73
3
74
0
42
0.000000001
43
0.0000000001
44
0.0000000001
40
0
40
0
40
0
40
1
40
1
40
1
10
-250.36834776401486
20
-47.603737555267742
30
0
10
-250.26944220066036
20
-47.746984205963543
30
0
10
-250.01705229282345
20
-47.835661612274585
30
0
0
SPLINE
5
396
100
AcDbEntity
8
0
100
AcDbSpline
70
0
71
2
72
6
73
3
74
0
42
0.000000001
43
0.0000000001
44
0.0000000001
40
0
40
0
40
0
40
1
40
1
40
1
10
-249.23942625522579
20
-46.553260527374682
30
0
10
-249.17803823947872
20
-46.737434111359057
30
0
10
-249.09277021884884
20
-47.136480055572925
30
0
0
SPLINE
5
397
100
AcDbEntity
8
0
100
AcDbSpline
70
0
71
2
72
6
73
3
74
0
42
0.000000001
43
0.0000000001
44
0.0000000001
40
0
40
0
40
0
40
1
40
1
40
1
10
-249.09277021884884
20
-47.136480055572925
30
0
10
-249.00750219821896
20
-47.53552123141521
30
0
10
-248.92564833164181
20
-47.658306799652522
30
0
0
SPLINE
5
398
100
AcDbEntity
8
0
100
AcDbSpline
70
0
71
2
72
6
73
3
74
0
42
0.000000001
43
0.0000000001
44
0.0000000001
40
0
40
0
40
0
40
1
40
1
40
1
10
-248.92564833164181
20
-47.658306799652522
30
0
10
-248.79263460636105
20
-47.845889769318049
30
0
10
-248.58799517154659
20
-47.845889769318049
30
0
0
SPLINE
5
399
100
AcDbEntity
8
0
100
AcDbSpline
70
0
71
2
72
6
73
3
74
0
42
0.000000001
43
0.0000000001
44
0.0000000001
40
0
40
0
40
0
40
1
40
1
40
1
10
-248.58799517154659
20
-47.845889769318049
30
0
10
-248.38676512241329
20
-47.845889769318063
30
0
10
-248.24010908603634
20
-47.695824347259958
30
0
0
SPLINE
5
400
100
AcDbEntity
8
0
100
AcDbSpline
70
0
71
2
72
6
73
3
74
0
42
0.000000001
43
0.0000000001
44
0.0000000001
40
0
40
0
40
0
40
1
40
1
40
1
10
-248.24010908603634
20
-47.695824347259958
30
0
10
-248.09345304965939
20
-47.54575415683027
30
0
10
-248.09345304965939
20
-47.313830099823434
30
0
0
SPLINE
5
401
100
AcDbEntity
8
0
100
AcDbSpline
70
0
71
2
72
6
73
3
74
0
42
0.000000001
43
0.0000000001
44
0.0000000001
40
0
40
0
40
0
40
1
40
1
40
1
10
-248.09345304965939
20
-47.313830099823434
30
0
10
-248.09345304965939
20
-47.054621420624215
30
0
10
-248.26398432254757
20
-46.819287977936227
30
0
0
SPLINE
5
402
100
AcDbEntity
8
0
100
AcDbSpline
70
0
71
2
72
6
73
3
74
0
42
0.000000001
43
0.0000000001
44
0.0000000001
40
0
40
0
40
0
40
1
40
1
40
1
10
-248.26398432254757
20
-46.819287977936227
30
0
10
-248.39358866214718
20
-46.645347319366891
30
0
10
-248.58117163181271
20
-46.590773306610544
30
0
0
SPLINE
5
403
100
AcDbEntity
8
0
100
AcDbSpline
70
0
71
2
72
6
73
3
74
0
42
0.000000001
43
0.0000000001
44
0.0000000001
40
0
40
0
40
0
40
1
40
1
40
1
10
-248.58117163181271
20
-46.590773306610544
30
0
10
-248.70395720005001
20
-46.55326052737469
30
0
10
-249.04843389987911
20
-46.553260527374682
30
0
0
LINE
5
404
100
AcDbEntity
8
0
100
AcDbLine
10
-249.04843389987911
20
-46.553260527374682
30
0
11
-249.23942625522579
21
-46.553260527374682
31
0
0
ENDSEC
0
SECTION
2
OBJECTS
0
DICTIONARY
5
C
100
AcDbDictionary
3
ACAD_GROUP
350
D
3
ACAD_MLINESTYLE
350
17
0
DICTIONARY
5
D
100
AcDbDictionary
0
DICTIONARY
5
1A
330
C
100
AcDbDictionary
0
DICTIONARY
5
17
100
AcDbDictionary
0
ENDSEC
0
EOF
