0
SECTION
2
HEADER
9
$INSUNITS
70
4
9
$ACADVER
1
AC1014
9
$HANDSEED
5
FFFF
0
ENDSEC
0
SECTION
2
TABLES
0
TABLE
2
VPORT
5
8
100
AcDbSymbolTable
0
ENDTAB
0
TABLE
2
LTYPE
5
5
100
AcDbSymbolTable
0
LTYPE
5
14
100
AcDbSymbolTableRecord
100
AcDbLinetypeTableRecord
2
BYBLOCK
70
0
0
LTYPE
5
15
100
AcDbSymbolTableRecord
100
AcDbLinetypeTableRecord
2
BYLAYER
70
0
0
LTYPE
5
16
100
AcDbSymbolTableRecord
100
AcDbLinetypeTableRecord
2
DASHED
70
0
3
Dashed __ __ __ __ __ __ __ __ __ __ __ __ __ _
72
65
73
2
40
0.75
49
0.5
74
0
49
-0.25
74
0
0
ENDTAB
0
TABLE
2
LAYER
5
2
100
AcDbSymbolTable
70
2
0
LAYER
5
50
100
AcDbSymbolTableRecord
100
AcDbLayerTableRecord
2
0
70
0
62
7
6
CONTINUOUS
0
ENDTAB
0
TABLE
2
STYLE
5
3
100
AcDbSymbolTable
70
1
0
STYLE
5
11
100
AcDbSymbolTableRecord
100
AcDbTextStyleTableRecord
2
STANDARD
70
0
0
ENDTAB
0
TABLE
2
VIEW
5
6
100
AcDbSymbolTable
70
0
0
ENDTAB
0
TABLE
2
UCS
5
7
100
AcDbSymbolTable
70
0
0
ENDTAB
0
TABLE
2
APPID
5
9
100
AcDbSymbolTable
70
2
0
APPID
5
12
100
AcDbSymbolTableRecord
100
AcDbRegAppTableRecord
2
ACAD
70
0
0
ENDTAB
0
TABLE
2
DIMSTYLE
5
A
100
AcDbSymbolTable
70
1
0
ENDTAB
0
TABLE
2
BLOCK_RECORD
5
1
100
AcDbSymbolTable
70
1
0
BLOCK_RECORD
5
1F
100
AcDbSymbolTableRecord
100
AcDbBlockTableRecord
2
*MODEL_SPACE
0
BLOCK_RECORD
5
1B
100
AcDbSymbolTableRecord
100
AcDbBlockTableRecord
2
*PAPER_SPACE
0
ENDTAB
0
ENDSEC
0
SECTION
2
BLOCKS
0
BLOCK
5
20
100
AcDbEntity
100
AcDbBlockBegin
2
*MODEL_SPACE
0
ENDBLK
5
21
100
AcDbEntity
100
AcDbBlockEnd
0
BLOCK
5
1C
100
AcDbEntity
100
AcDbBlockBegin
2
*PAPER_SPACE
0
ENDBLK
5
1D
100
AcDbEntity
100
AcDbBlockEnd
0
ENDSEC
0
SECTION
2
ENTITIES
0
POINT
5
100
100
AcDbEntity
8
0
100
AcDbPoint
10
-58.424187553027949
20
44.618622312321804
30
0
0
POINT
5
101
100
AcDbEntity
8
0
100
AcDbPoint
10
-32.211655880657865
20
44.482806086040092
30
0
0
POINT
5
102
100
AcDbEntity
8
0
100
AcDbPoint
10
-3.1469834563718813
20
20.026070991166939
30
0
0
POINT
5
103
100
AcDbEntity
8
0
100
AcDbPoint
10
-32.211655880657865
20
19.482806086040092
30
0
0
POINT
5
104
100
AcDbEntity
8
0
100
AcDbPoint
10
-58.424187553027949
20
19.618622312321801
30
0
0
POINT
5
105
100
AcDbEntity
8
0
100
AcDbPoint
10
-3.1469834563718813
20
45.026070991166939
30
0
0
POINT
5
106
100
AcDbEntity
8
0
100
AcDbPoint
10
44.800000000000004
20
49.53805512786208
30
0
0
POINT
5
107
100
AcDbEntity
8
0
100
AcDbPoint
10
151.98072424554056
20
19.459921240902862
30
0
0
POINT
5
108
100
AcDbEntity
8
0
100
AcDbPoint
10
-7.7806602834916472
20
-54.446086477550566
30
0
0
LWPOLYLINE
5
109
100
AcDbEntity
8
0
100
AcDbPolyline
90
4
70
1
43
0.0
10
-34.070156749879899
20
21.032765607806489
42
0.34729840314994964
10
-34.149917202664312
20
18.033826083546014
10
-30.273394558655468
20
18.033826083546014
42
0.34729840314994992
10
-30.353155011439878
20
21.032765607806489
0
LWPOLYLINE
5
110
100
AcDbEntity
8
0
100
AcDbPolyline
90
4
70
1
43
0.0
10
-5.0443500524730407
20
46.576070991166944
42
0.35653767993532509
10
-5.0443500524730407
20
43.476070991166935
10
-1.2496168602707212
20
43.476070991166935
42
0.35653767993473562
10
-1.2496168602707212
20
46.576070991166944
0
LWPOLYLINE
5
111
100
AcDbEntity
8
0
100
AcDbPolyline
90
4
70
1
43
0.0
10
-34.070156749879899
20
46.032765607806489
42
0.34729840314994964
10
-34.149917202664312
20
43.033826083546018
10
-30.273394558655468
20
43.033826083546018
42
0.34729840314994992
10
-30.353155011439878
20
46.032765607806489
0
CIRCLE
5
112
100
AcDbEntity
8
0
100
AcDbCircle
10
-32.211655880657865
20
44.482806086040092
30
0
40
10
210
0
220
0
230
1
0
LWPOLYLINE
5
113
100
AcDbEntity
8
0
100
AcDbPolyline
90
4
70
1
43
0.0
10
-60.411306539340444
20
43.272755255643929
10
-56.437068566719518
20
43.272755255643929
42
0.33623506904101569
10
-56.591839332847528
20
46.168622312321801
10
-60.25653577321242
20
46.168622312321801
42
0.33623506904101452
0
CIRCLE
5
114
100
AcDbEntity
8
0
100
AcDbCircle
10
-58.424187553027949
20
44.618622312321804
30
0
40
10
210
0
220
0
230
1
0
LWPOLYLINE
5
115
100
AcDbEntity
8
0
100
AcDbPolyline
90
4
70
1
43
0.0
10
-1.2496168602707212
20
18.476070991166935
42
0.35653767993473562
10
-1.2496168602707212
20
21.57607099116694
10
-5.0443500524730407
20
21.57607099116694
42
0.35653767993532509
10
-5.0443500524730407
20
18.476070991166935
0
LWPOLYLINE
5
116
100
AcDbEntity
8
0
100
AcDbPolyline
90
4
70
1
43
0.0
10
-56.437068566719518
20
18.272755255643929
42
0.33623506904101569
10
-56.591839332847528
20
21.168622312321801
10
-60.25653577321242
20
21.168622312321801
42
0.33623506904101452
10
-60.411306539340444
20
18.272755255643929
0
CIRCLE
5
117
100
AcDbEntity
8
0
100
AcDbCircle
10
-3.1469834563718813
20
45.026070991166939
30
0
40
10
210
0
220
0
230
1
0
CIRCLE
5
118
100
AcDbEntity
8
0
100
AcDbCircle
10
-58.424187553027949
20
19.618622312321801
30
0
40
10
210
0
220
0
230
1
0
CIRCLE
5
119
100
AcDbEntity
8
0
100
AcDbCircle
10
-32.211655880657865
20
19.482806086040092
30
0
40
10
210
0
220
0
230
1
0
CIRCLE
5
120
100
AcDbEntity
8
0
100
AcDbCircle
10
-3.1469834563718813
20
20.026070991166939
30
0
40
10
210
0
220
0
230
1
0
LWPOLYLINE
5
121
100
AcDbEntity
8
0
100
AcDbPolyline
90
6
70
1
43
0.0
10
33.799999999999997
20
40
10
55.799999999999997
20
40
10
74.599999999999994
20
40
10
74.599999999999994
20
4.0000000000000036
10
55.799999999999997
20
4.0000000000000036
10
33.799999999999997
20
4.0000000000000036
0
LWPOLYLINE
5
122
100
AcDbEntity
8
0
100
AcDbPolyline
90
10
70
1
43
0.0
10
55.799999999999997
20
40
10
55.799999999999997
20
4.0000000000000036
10
55.799999999999997
20
-4.1999999999999957
10
33.799999999999997
20
-4.1999999999999993
10
33.799999999999997
20
4.0000000000000036
10
15
20
4.0000000000000036
10
15
20
40
10
33.799999999999997
20
40
10
33.799999999999997
20
58.799999999999997
10
55.799999999999997
20
58.799999999999997
0
LWPOLYLINE
5
123
100
AcDbEntity
8
0
100
AcDbPolyline
90
4
70
1
43
0.0
10
42.450000000000017
20
48.088055127862077
10
47.150000000000006
20
48.088055127862084
10
47.150000000000006
20
50.988055127862083
10
42.450000000000017
20
50.988055127862076
0
LINE
5
124
100
AcDbEntity
8
0
100
AcDbLine
10
42.450000000000017
20
48.088055127862077
30
0
11
47.150000000000006
21
50.988055127862083
31
0
6
DASHED
0
LINE
5
125
100
AcDbEntity
8
0
100
AcDbLine
10
47.150000000000006
20
48.088055127862084
30
0
11
42.450000000000017
21
50.988055127862076
31
0
6
DASHED
0
LINE
5
126
100
AcDbEntity
8
0
100
AcDbLine
10
44.800000000000004
20
40
30
0
11
44.800000000000004
21
58.799999999999997
31
0
6
DASHED
0
CIRCLE
5
127
100
AcDbEntity
8
0
100
AcDbCircle
10
-17.073226479042685
20
-6.2687279168105947
30
0
40
12.999999999999998
210
0
220
0
230
1
0
LWPOLYLINE
5
128
100
AcDbEntity
8
0
100
AcDbPolyline
90
4
70
1
43
0.0
10
152.61546618282279
20
21.757903751880974
10
149.74029551349841
20
21.757903751880974
42
0.35273740979103063
10
149.73600876623829
20
18.657906715785948
10
154.22580634853983
20
18.657906715785948
42
0.43594014132578929
0
CIRCLE
5
129
100
AcDbEntity
8
0
100
AcDbCircle
10
151.98072424554059
20
19.459921240902865
30
0
40
8
210
0
220
0
230
1
6
DASHED
0
LWPOLYLINE
5
130
100
AcDbEntity
8
0
100
AcDbPolyline
90
4
70
1
43
0.0
10
151.9807242455428
20
35.459921240888924
10
138.12431778498964
20
11.459921240902871
10
104.00920758720949
20
40.805436335926558
10
109.5092075872065
20
50.331715777550812
0
LWPOLYLINE
5
131
100
AcDbEntity
8
0
100
AcDbPolyline
90
8
70
1
43
0.0
10
138.12431778498964
20
11.459921240902871
10
165.83713070608428
20
11.459921240913662
10
199.9522409038716
20
40.8054363359538
10
194.45224090387154
20
50.331715777582545
10
151.9807242455428
20
35.459921240888917
10
165.83713070608428
20
11.459921240913665
10
157.48072424554582
20
-32.757388390798688
10
146.48072424554582
20
-32.757388390814135
0
LWPOLYLINE
5
132
100
AcDbEntity
8
0
100
AcDbPolyline
90
11
70
1
43
0.0
10
-22.780660283491653
20
-99.984141605412646
10
-22.780660283491653
20
-108.18414160541265
10
7.2193397165083528
20
-108.18414160541265
10
7.2193397165083528
20
-99.984141605412646
10
-22.780660283491653
20
-99.984141605412646
10
-22.780660283491649
20
-63.984141605412646
10
-32.230660283491645
20
-63.984141605412646
10
-32.230660283491645
20
-57.984141605412646
10
-41.580660283491646
20
-57.984141605412646
10
-41.580660283491646
20
-63.984141605412646
10
-41.580660283491653
20
-99.984141605412646
0
LWPOLYLINE
5
133
100
AcDbEntity
8
0
100
AcDbPolyline
90
12
70
1
43
0.0
10
-22.780660283491649
20
-63.984141605412646
10
7.2193397165083528
20
-63.984141605412646
10
7.2193397165083351
20
-62.973560901067309
10
13.219339716508337
20
-62.973560901067309
10
13.219339716508337
20
-53.623560901067307
10
7.2193397165083395
20
-53.623560901067307
10
7.2193397165083528
20
-45.184141605412648
10
-22.780660283491653
20
-45.184141605412648
10
-22.780660283491653
20
-53.623560901067307
10
-28.780660283491649
20
-53.623560901067307
10
-28.780660283491649
20
-62.973560901067309
10
-22.780660283491649
20
-62.973560901067309
0
LINE
5
134
100
AcDbEntity
8
0
100
AcDbLine
10
7.2193397165083528
20
-63.984141605412646
30
0
11
7.2193397165083528
21
-99.984141605412646
31
0
0
LINE
5
135
100
AcDbEntity
8
0
100
AcDbLine
10
-10.130660283491641
20
-52.99608647755057
30
0
11
-10.130660283491641
21
-55.896086477550568
31
0
0
LINE
5
136
100
AcDbEntity
8
0
100
AcDbLine
10
-5.4306602834917417
20
-55.896086477550469
30
0
11
-10.130660283491641
21
-52.99608647755057
31
0
6
DASHED
0
LINE
5
137
100
AcDbEntity
8
0
100
AcDbLine
10
26.019339716508352
20
-99.984141605412646
30
0
11
7.2193397165083528
21
-99.984141605412646
31
0
0
LINE
5
138
100
AcDbEntity
8
0
100
AcDbLine
10
-5.4306602834917417
20
-55.896086477550469
30
0
11
-5.4306602834917417
21
-52.99608647755047
31
0
0
LINE
5
139
100
AcDbEntity
8
0
100
AcDbLine
10
-10.130660283491641
20
-55.896086477550568
30
0
11
-5.4306602834917417
21
-55.896086477550469
31
0
0
LINE
5
140
100
AcDbEntity
8
0
100
AcDbLine
10
-10.130660283491641
20
-55.896086477550568
30
0
11
-5.4306602834917417
21
-52.99608647755047
31
0
6
DASHED
0
LINE
5
141
100
AcDbEntity
8
0
100
AcDbLine
10
-7.7806602834916561
20
-63.984141605412646
30
0
11
-7.7806602834916561
21
-45.184141605412648
31
0
6
DASHED
0
LINE
5
142
100
AcDbEntity
8
0
100
AcDbLine
10
26.019339716508352
20
-63.984141605412646
30
0
11
26.019339716508352
21
-99.984141605412646
31
0
0
LINE
5
143
100
AcDbEntity
8
0
100
AcDbLine
10
-5.4306602834917417
20
-52.99608647755047
30
0
11
-10.130660283491641
21
-52.99608647755057
31
0
0
CIRCLE
5
144
100
AcDbEntity
8
0
100
AcDbCircle
10
81.563906809148619
20
-238.38472829013941
30
0
40
4.5999999999999996
210
0
220
0
230
1
0
LWPOLYLINE
5
145
100
AcDbEntity
8
0
100
AcDbPolyline
90
24
70
1
43
0.0
10
81.547668853925614
20
-225.88473883699146
42
0.50322633323267529
10
81.532409287987079
20
-200.80290157967184
42
-0.65140537097084483
10
86.605731886874295
20
-226.94663404828177
42
-0.09249456727175169
10
90.391252147979074
20
-229.53441901480741
42
0.50322633323267529
10
108.11599921469401
20
-211.78809166298618
42
-0.65140537097084539
10
93.216969513433199
20
-233.86188298988728
42
-0.092494567271748554
10
94.063896262296566
20
-238.36849033491637
42
0.50322633323267585
10
119.14573351961621
20
-238.35323076897788
42
-0.65140537097084583
10
93.002001051006275
20
-243.42655336786515
42
-0.092494567271742059
10
90.414216084480671
20
-247.21207362896985
42
0.50322633323267529
10
108.16054343630185
20
-264.93682069568484
42
-0.65140537097084328
10
86.086752109400749
20
-250.03779099442397
42
-0.09249456727174038
10
81.580144764371653
20
-250.88471774328738
42
0.50322633323267552
10
81.595404330310174
20
-275.96655500060695
42
-0.65140537097084383
10
76.522081731422958
20
-249.82282253199708
42
-0.092494567271741615
10
72.736561470318179
20
-247.23503756547143
42
0.50322633323267596
10
55.011814403603225
20
-264.98136491729264
42
-0.6514053709708465
10
69.910844104864083
20
-242.90757359039151
42
-0.09249456727173512
10
69.063917356000658
20
-238.40096624536244
42
0.50322633323267563
10
43.982080098681053
20
-238.41622581130096
42
-0.65140537097084572
10
70.125812567290978
20
-233.34290321241369
42
-0.092494567271729958
10
72.713597533816582
20
-229.55738295130897
42
0.50322633323267596
10
54.967270181995389
20
-211.832635884594
42
-0.65140537097084406
10
77.041061508896505
20
-226.73166558585481
42
-0.092494567271730069
0
LINE
5
146
100
AcDbEntity
8
0
100
AcDbLine
10
85.537712936285487
20
-221.52849012005848
30
0
11
90.65489221794509
21
-222.68404697059876
31
0
0
LINE
5
147
100
AcDbEntity
8
0
100
AcDbLine
10
87.412812514134714
20
-217.02266857196071
30
0
11
92.500115552691511
21
-218.17147879599335
31
0
0
LINE
5
148
100
AcDbEntity
8
0
100
AcDbLine
10
87.827817293065038
20
-212.49957951433765
30
0
11
92.63516822293839
21
-212.49957951433765
31
0
0
LINE
5
149
100
AcDbEntity
8
0
100
AcDbLine
10
87.190023912441774
20
-208.85442135456313
30
0
11
91.114907827870553
21
-208.10167706076606
31
0
0
LINE
5
150
100
AcDbEntity
8
0
100
AcDbLine
10
85.636592136046247
20
-205.33351715479751
30
0
11
88.594356551087415
21
-204.70924195714517
31
0
0
LINE
5
151
100
AcDbEntity
8
0
100
AcDbLine
10
64.661092079970729
20
-213.52538244998513
30
0
11
66.904133517296998
21
-210.21779982337199
31
0
0
LINE
5
152
100
AcDbEntity
8
0
100
AcDbLine
10
61.07299470120828
20
-212.13416935762254
30
0
11
62.723020750649631
21
-209.60128485700812
31
0
0
LINE
5
153
100
AcDbEntity
8
0
100
AcDbLine
10
72.454651753408001
20
-223.65566271516053
30
0
11
76.890146009080425
21
-220.85437262961531
31
0
0
LINE
5
154
100
AcDbEntity
8
0
100
AcDbLine
10
70.594450408828862
20
-219.14367011678695
30
0
11
75.004048385053196
21
-216.35873513998246
31
0
0
LINE
5
155
100
AcDbEntity
8
0
100
AcDbLine
10
67.689596157679361
20
-215.65191047882456
30
0
11
71.088906599736262
21
-212.25260003676763
31
0
0
LINE
5
156
100
AcDbEntity
8
0
100
AcDbLine
10
52.033599873572356
20
-232.75861118684622
30
0
11
51.28085557977527
21
-228.8337272714175
31
0
0
LINE
5
157
100
AcDbEntity
8
0
100
AcDbLine
10
48.512695673806704
20
-234.31204296324179
30
0
11
47.888420476154387
21
-231.35427854820057
31
0
0
LINE
5
158
100
AcDbEntity
8
0
100
AcDbLine
10
64.707668639067691
20
-234.41092216300251
30
0
11
65.86322548960797
21
-229.29374288134289
31
0
0
LINE
5
159
100
AcDbEntity
8
0
100
AcDbLine
10
60.201847090969949
20
-232.53582258515331
30
0
11
61.350657315002607
21
-227.44851954659651
31
0
0
LINE
5
160
100
AcDbEntity
8
0
100
AcDbLine
10
55.678758033346909
20
-232.12081780622299
30
0
11
55.678758033346874
21
-227.31346687634959
31
0
0
LINE
5
161
100
AcDbEntity
8
0
100
AcDbLine
10
56.704560968994315
20
-255.28754301931735
30
0
11
53.396978342381217
21
-253.04450158199103
31
0
0
LINE
5
162
100
AcDbEntity
8
0
100
AcDbLine
10
55.313347876631759
20
-258.87564039807972
30
0
11
52.780463376017359
21
-257.22561434863843
31
0
0
LINE
5
163
100
AcDbEntity
8
0
100
AcDbLine
10
66.834841234169744
20
-247.49398334588005
30
0
11
64.033551148624525
21
-243.05848909020764
31
0
0
LINE
5
164
100
AcDbEntity
8
0
100
AcDbLine
10
62.322848635796156
20
-249.35418469045916
30
0
11
59.537913658991656
21
-244.94458671423484
31
0
0
LINE
5
165
100
AcDbEntity
8
0
100
AcDbLine
10
58.831088997833788
20
-252.25903894160868
30
0
11
55.431778555776845
21
-248.85972849955178
31
0
0
LINE
5
166
100
AcDbEntity
8
0
100
AcDbLine
10
75.937789705855465
20
-267.91503522571566
30
0
11
72.012905790426728
21
-268.66777951951281
31
0
0
LINE
5
167
100
AcDbEntity
8
0
100
AcDbLine
10
77.491221482250992
20
-271.43593942548131
30
0
11
74.533457067209838
21
-272.06021462313362
31
0
0
LINE
5
168
100
AcDbEntity
8
0
100
AcDbLine
10
77.590100682011766
20
-255.24096646022031
30
0
11
72.472921400352149
21
-254.08540960968008
31
0
0
LINE
5
169
100
AcDbEntity
8
0
100
AcDbLine
10
75.715001104162539
20
-259.74678800831805
30
0
11
70.627698065605756
21
-258.59797778428543
31
0
0
LINE
5
170
100
AcDbEntity
8
0
100
AcDbLine
10
75.299996325232229
20
-264.2698770659411
30
0
11
70.492645395358849
21
-264.2698770659411
31
0
0
LINE
5
171
100
AcDbEntity
8
0
100
AcDbLine
10
98.466721538326539
20
-263.24407413029371
30
0
11
96.223680101000269
21
-266.55165675690677
31
0
0
LINE
5
172
100
AcDbEntity
8
0
100
AcDbLine
10
102.05481891708898
20
-264.63528722265625
30
0
11
100.40479286764764
21
-267.16817172327063
31
0
0
LINE
5
173
100
AcDbEntity
8
0
100
AcDbLine
10
90.673161864889252
20
-253.11379386511831
30
0
11
86.237667609216814
21
-255.91508395066353
31
0
0
LINE
5
174
100
AcDbEntity
8
0
100
AcDbLine
10
92.533363209468405
20
-257.62578646349186
30
0
11
88.123765233244058
21
-260.41072144029636
31
0
0
LINE
5
175
100
AcDbEntity
8
0
100
AcDbLine
10
95.438217460617892
20
-261.1175461014542
30
0
11
92.038907018560977
21
-264.51685654351121
31
0
0
LINE
5
176
100
AcDbEntity
8
0
100
AcDbLine
10
111.09421374472488
20
-244.01084539343259
30
0
11
111.84695803852199
21
-247.93572930886131
31
0
0
LINE
5
177
100
AcDbEntity
8
0
100
AcDbLine
10
114.61511794449054
20
-242.45741361703699
30
0
11
115.23939314214287
21
-245.41517803207819
31
0
0
LINE
5
178
100
AcDbEntity
8
0
100
AcDbLine
10
98.420144979229576
20
-242.35853441727627
30
0
11
97.264588128689297
21
-247.47571369893592
31
0
0
LINE
5
179
100
AcDbEntity
8
0
100
AcDbLine
10
102.92596652732729
20
-244.23363399512553
30
0
11
101.77715630329465
21
-249.32093703368227
31
0
0
LINE
5
180
100
AcDbEntity
8
0
100
AcDbLine
10
107.44905558495034
20
-244.6486387740558
30
0
11
107.44905558495037
21
-249.45598970392919
31
0
0
LINE
5
181
100
AcDbEntity
8
0
100
AcDbLine
10
106.42325264930294
20
-221.48191356096152
30
0
11
109.73083527591604
21
-223.72495499828776
31
0
0
LINE
5
182
100
AcDbEntity
8
0
100
AcDbLine
10
107.8144657416655
20
-217.89381618219909
30
0
11
110.3473502422799
21
-219.54384223164041
31
0
0
LINE
5
183
100
AcDbEntity
8
0
100
AcDbLine
10
96.292972384127495
20
-229.27547323439879
30
0
11
99.094262469672742
21
-233.7109674900712
31
0
0
LINE
5
184
100
AcDbEntity
8
0
100
AcDbLine
10
100.80496498250112
20
-227.41527188981965
30
0
11
103.5898999593056
21
-231.82486986604397
31
0
0
LINE
5
185
100
AcDbEntity
8
0
100
AcDbLine
10
104.29672462046348
20
-224.51041763867011
30
0
11
107.69603506252042
21
-227.90972808072706
31
0
0
CIRCLE
5
186
100
AcDbEntity
8
0
100
AcDbCircle
10
137.7966274779248
20
-140.74753539052435
30
0
40
4.5999999999999996
210
0
220
0
230
1
0
CIRCLE
5
187
100
AcDbEntity
8
0
100
AcDbCircle
10
137.7966274779248
20
-140.74753539052435
30
0
40
14.000000000000004
210
0
220
0
230
1
0
LWPOLYLINE
5
188
100
AcDbEntity
8
0
100
AcDbPolyline
90
16
70
1
43
0.0
10
140.79303878352539
20
-127.0719542588989
42
0.48302009779387184
10
142.38741559531388
20
-77.613957718626295
42
-0.80361733630464405
10
149.5855063861782
20
-133.19622198909943
42
0.51107988507948354
10
185.68498577908795
20
-99.351531906954136
42
-0.80361733630464405
10
151.47220860955025
20
-143.74394669612497
42
0.51741781722463831
10
200.93020514982288
20
-145.33832350791346
42
-0.8036173363046446
10
145.34794087934969
20
-152.53641429877771
42
0.5076040114112631
10
179.1926309614951
20
-188.63589369168756
42
-0.80361733630464405
10
134.80021617232416
20
-154.42311652214977
42
0.50001775268618887
10
133.20583936053572
20
-203.88111306242237
42
-0.80361733630464394
10
126.00774856967138
20
-148.29884879194927
42
0.50543430946063983
10
89.908269176761621
20
-182.14353887409462
42
-0.80361733630464438
10
124.12104634629938
20
-137.7511240849237
42
0.51493719265155835
10
74.663049806026777
20
-136.1567472731353
42
-0.80361733630464471
10
130.24531407649988
20
-128.95865648227095
42
0.51216910449894415
10
96.400623994354532
20
-92.859177089361168
42
-0.80361733630464394
0
LINE
5
189
100
AcDbEntity
8
0
100
AcDbLine
10
147.52914152785391
20
-120.26220130805811
30
0
11
160.00308121982269
21
-126.63772398901892
31
0
0
LINE
5
190
100
AcDbEntity
8
0
100
AcDbLine
10
151.76628925436074
20
-112.17812404204142
30
0
11
165.45576040923669
21
-119.17491382886901
31
0
0
LINE
5
191
100
AcDbEntity
8
0
100
AcDbLine
10
152.81618928213791
20
-94.935670583013348
30
0
11
167.62910804245305
21
-98.957941107675794
31
0
0
LINE
5
192
100
AcDbEntity
8
0
100
AcDbLine
10
150.7642656100638
20
-88.737353588885682
30
0
11
163.28127942764723
21
-89.615949015919739
31
0
0
LINE
5
193
100
AcDbEntity
8
0
100
AcDbLine
10
153.47979012271219
20
-103.83349553832444
30
0
11
168.47609827920692
21
-108.35866691373604
31
0
0
LINE
5
194
100
AcDbEntity
8
0
100
AcDbLine
10
109.91791264242478
20
-95.038527987212944
30
0
11
119.66150622944394
21
-86.571673722388041
31
0
0
LINE
5
195
100
AcDbEntity
8
0
100
AcDbLine
10
115.43726403044771
20
-98.071603536907588
30
0
11
129.3416712842818
21
-90.103080583293746
31
0
0
LINE
5
196
100
AcDbEntity
8
0
100
AcDbLine
10
121.78244411539688
20
-104.09480297033906
30
0
11
136.58790078982986
21
-96.151485008826853
31
0
0
LINE
5
197
100
AcDbEntity
8
0
100
AcDbLine
10
125.86403811670951
20
-111.18718611428223
30
0
11
142.10044094117802
21
-105.93542793883594
31
0
0
LINE
5
198
100
AcDbEntity
8
0
100
AcDbLine
10
127.91579505060945
20
-120.11591626665833
30
0
11
143.52181818165843
21
-115.06805804025521
31
0
0
LINE
5
199
100
AcDbEntity
8
0
100
AcDbLine
10
85.762250070789108
20
-128.13961460528481
30
0
11
86.665041103320206
21
-115.26288344080189
31
0
0
LINE
5
200
100
AcDbEntity
8
0
100
AcDbLine
10
91.809729154051752
20
-126.38155210010261
30
0
11
96.007033195076232
21
-110.91505482599615
31
0
0
LINE
5
201
100
AcDbEntity
8
0
100
AcDbLine
10
100.55549418378749
20
-126.15387739800357
30
0
11
105.40775900113647
21
-110.06806458924224
31
0
0
LINE
5
202
100
AcDbEntity
8
0
100
AcDbLine
10
108.45668919602136
20
-128.28282681748047
30
0
11
116.22400591626949
21
-113.0884024592124
31
0
0
LINE
5
203
100
AcDbEntity
8
0
100
AcDbLine
10
116.22106607545848
20
-133.14558121430326
30
0
11
123.6868160764194
21
-118.54108164862646
31
0
0
LINE
5
204
100
AcDbEntity
8
0
100
AcDbLine
10
92.087620074613397
20
-168.62625022602433
30
0
11
83.620765809788509
21
-158.88265663900518
31
0
0
LINE
5
205
100
AcDbEntity
8
0
100
AcDbLine
10
95.12069562430807
20
-163.1068988380014
30
0
11
87.152172670694213
21
-149.20249158416735
31
0
0
LINE
5
206
100
AcDbEntity
8
0
100
AcDbLine
10
101.1438950577395
20
-156.76171875305226
30
0
11
93.20057709622732
21
-141.95626207861929
31
0
0
LINE
5
207
100
AcDbEntity
8
0
100
AcDbLine
10
108.23627820168269
20
-152.68012475173964
30
0
11
102.98452002623641
21
-136.44372192727113
31
0
0
LINE
5
208
100
AcDbEntity
8
0
100
AcDbLine
10
117.1650083540588
20
-150.62836781783969
30
0
11
112.11715012765568
21
-135.02234468679072
31
0
0
LINE
5
209
100
AcDbEntity
8
0
100
AcDbLine
10
125.18870669268526
20
-192.78191279766006
30
0
11
112.31197552820235
21
-191.87912176512893
31
0
0
LINE
5
210
100
AcDbEntity
8
0
100
AcDbLine
10
123.43064418750309
20
-186.73443371439743
30
0
11
107.9641469133966
21
-182.53712967337293
31
0
0
LINE
5
211
100
AcDbEntity
8
0
100
AcDbLine
10
123.20296948540403
20
-177.98866868466166
30
0
11
107.11715667664271
21
-173.13640386731265
31
0
0
LINE
5
212
100
AcDbEntity
8
0
100
AcDbLine
10
125.33191890488091
20
-170.08747367242779
30
0
11
110.13749454661288
21
-162.32015695217964
31
0
0
LINE
5
213
100
AcDbEntity
8
0
100
AcDbLine
10
130.19467330170372
20
-162.32309679299064
30
0
11
115.59017373602693
21
-154.85734679202974
31
0
0
LINE
5
214
100
AcDbEntity
8
0
100
AcDbLine
10
165.67534231342484
20
-186.45654279383569
30
0
11
155.93174872640569
21
-194.92339705866067
31
0
0
LINE
5
215
100
AcDbEntity
8
0
100
AcDbLine
10
160.15599092540188
20
-183.42346724414111
30
0
11
146.25158367156783
21
-191.39199019775492
31
0
0
LINE
5
216
100
AcDbEntity
8
0
100
AcDbLine
10
153.81081084045269
20
-177.40026781070966
30
0
11
139.00535416601974
21
-185.34358577222181
31
0
0
LINE
5
217
100
AcDbEntity
8
0
100
AcDbLine
10
149.72921683914009
20
-170.30788466676648
30
0
11
133.49281401467161
21
-175.55964284221275
31
0
0
LINE
5
218
100
AcDbEntity
8
0
100
AcDbLine
10
147.67745990524014
20
-161.37915451439039
30
0
11
132.07143677419117
21
-166.42701274079346
31
0
0
LINE
5
219
100
AcDbEntity
8
0
100
AcDbLine
10
189.83100488506042
20
-153.35545617576386
30
0
11
188.92821385252941
21
-166.23218734024678
31
0
0
LINE
5
220
100
AcDbEntity
8
0
100
AcDbLine
10
183.78352580179785
20
-155.11351868094607
30
0
11
179.58622176077336
21
-170.58001595505257
31
0
0
LINE
5
221
100
AcDbEntity
8
0
100
AcDbLine
10
175.03776077206214
20
-155.34119338304509
30
0
11
170.18549595471313
21
-171.42700619180647
31
0
0
LINE
5
222
100
AcDbEntity
8
0
100
AcDbLine
10
167.13656575982824
20
-153.21224396356823
30
0
11
159.3692490395801
21
-168.40666832183626
31
0
0
LINE
5
223
100
AcDbEntity
8
0
100
AcDbLine
10
159.37218888039112
20
-148.34948956674543
30
0
11
151.9064388794302
21
-162.95398913242221
31
0
0
LINE
5
224
100
AcDbEntity
8
0
100
AcDbLine
10
183.50563488123623
20
-112.86882055502431
30
0
11
191.97248914606106
21
-122.61241414204349
31
0
0
LINE
5
225
100
AcDbEntity
8
0
100
AcDbLine
10
180.47255933154159
20
-118.38817194304724
30
0
11
188.4410822851554
21
-132.29257919688132
31
0
0
LINE
5
226
100
AcDbEntity
8
0
100
AcDbLine
10
174.44935989811015
20
-124.73335202799645
30
0
11
182.39267785962227
21
-139.53880870242938
31
0
0
LINE
5
227
100
AcDbEntity
8
0
100
AcDbLine
10
167.35697675416696
20
-128.81494602930906
30
0
11
172.60873492961323
21
-145.05134885377757
31
0
0
LINE
5
228
100
AcDbEntity
8
0
100
AcDbLine
10
158.42824660179082
20
-130.86670296320901
30
0
11
163.47610482819391
21
-146.47272609425798
31
0
0
CIRCLE
5
229
100
AcDbEntity
8
0
100
AcDbCircle
10
-25
20
-160
30
0
40
4.5999999999999996
210
0
220
0
230
1
0
SPLINE
5
230
100
AcDbEntity
8
0
100
AcDbSpline
70
4
71
5
72
26
73
20
74
0
42
0.000000001
43
0.0000000001
44
0.0000000001
40
0
40
0
40
0
40
0
40
0
40
0
40
0.066666666666666666
40
0.13333333333333333
40
0.20000000000000001
40
0.26666666666666666
40
0.33333333333333331
40
0.39999999999999997
40
0.46666666666666662
40
0.53333333333333333
40
0.59999999999999998
40
0.66666666666666663
40
0.73333333333333328
40
0.79999999999999993
40
0.86666666666666659
40
0.93333333333333324
40
1
40
1
40
1
40
1
40
1
40
1
41
1
41
1
41
1
41
1
41
1
41
1
41
1
41
1
41
1
41
1
41
1
41
1
41
1
41
1
41
1
41
1
41
1
41
1
41
1
41
1
10
-25.017492519820969
20
-152.27834608695053
30
0
10
-24.486554859045526
20
-151.80614114741272
30
0
10
-23.457645540482087
20
-150.86118100453692
30
0
10
-22.013179533101944
20
-149.44208982201832
30
0
10
-20.286458905025203
20
-147.54664375552412
30
0
10
-18.4685939369975
20
-145.17285584453145
30
0
10
-17.001478853351291
20
-142.798077520481
30
0
10
-15.893364871857671
20
-140.42951689026032
30
0
10
-15.145352230423303
20
-138.07966316346165
30
0
10
-14.746511025431024
20
-135.76750151195449
30
0
10
-14.664547081459123
20
-133.52090973123268
30
0
10
-14.847744884123115
20
-131.37503280773703
30
0
10
-15.236564416917172
20
-129.36725200557652
30
0
10
-15.771720635025988
20
-127.53256970228725
30
0
10
-16.402101562341592
20
-125.89908490811106
30
0
10
-17.094269129830227
20
-124.48083837294027
30
0
10
-17.684071062450212
20
-123.52033560685796
30
0
10
-18.143863553754525
20
-122.8968507909787
30
0
10
-18.458098468573965
20
-122.52393505355607
30
0
10
-18.617141944635975
20
-122.34816305824515
30
0
0
SPLINE
5
231
100
AcDbEntity
8
0
100
AcDbSpline
70
4
71
5
72
26
73
20
74
0
42
0.000000001
43
0.0000000001
44
0.0000000001
40
0
40
0
40
0
40
0
40
0
40
0
40
0.066666666666666666
40
0.13333333333333333
40
0.20000000000000001
40
0.26666666666666666
40
0.33333333333333331
40
0.39999999999999997
40
0.46666666666666662
40
0.53333333333333333
40
0.59999999999999998
40
0.66666666666666663
40
0.73333333333333328
40
0.79999999999999993
40
0.86666666666666659
40
0.93333333333333324
40
1
40
1
40
1
40
1
40
1
40
1
41
1
41
1
41
1
41
1
41
1
41
1
41
1
41
1
41
1
41
1
41
1
41
1
41
1
41
1
41
1
41
1
41
1
41
1
41
1
41
1
10
-21.976527304711123
20
-152.89487100736346
30
0
10
-21.489263853675208
20
-152.44811219136463
30
0
10
-20.545388207696178
20
-151.54794499525394
30
0
10
-19.221528220765943
20
-150.17774543377905
30
0
10
-17.641627836144206
20
-148.31062566184639
30
0
10
-15.983354918487539
20
-145.90978670903047
30
0
10
-14.651146718473429
20
-143.44524725557397
30
0
10
-13.652533793573342
20
-140.92602666611779
30
0
10
-12.988451235487297
20
-138.36998845776503
30
0
10
-12.648268797779302
20
-135.80675711722273
30
0
10
-12.602038042858632
20
-133.28219112665852
30
0
10
-12.806892582554584
20
-130.85248773781461
30
0
10
-13.214725218412667
20
-128.57697958501339
30
0
10
-13.77855215621363
20
-126.51081898942694
30
0
10
-14.458143608860981
20
-124.69818175359272
30
0
10
-15.2267929484305
20
-123.16171684026176
30
0
10
-15.901627696650568
20
-122.15771811651693
30
0
10
-16.438815973223846
20
-121.53036353407599
30
0
10
-16.810653702242284
20
-121.1675511385959
30
0
10
-17.00000025331974
20
-121.0000018030405
30
0
0
SPLINE
5
232
100
AcDbEntity
8
0
100
AcDbSpline
70
4
71
5
72
46
73
40
74
0
42
0.000000001
43
0.0000000001
44
0.0000000001
40
0
40
0
40
0
40
0
40
0
40
0
40
0.028571428571428571
40
0.057142857142857141
40
0.085714285714285715
40
0.11428571428571428
40
0.14285714285714285
40
0.17142857142857143
40
0.20000000000000001
40
0.22857142857142859
40
0.25714285714285717
40
0.28571428571428575
40
0.31428571428571433
40
0.34285714285714292
40
0.3714285714285715
40
0.40000000000000008
40
0.42857142857142866
40
0.45714285714285724
40
0.48571428571428582
40
0.51428571428571435
40
0.54285714285714293
40
0.57142857142857151
40
0.60000000000000009
40
0.62857142857142867
40
0.65714285714285725
40
0.68571428571428583
40
0.71428571428571441
40
0.74285714285714299
40
0.77142857142857157
40
0.80000000000000016
40
0.82857142857142874
40
0.85714285714285732
40
0.8857142857142859
40
0.91428571428571448
40
0.94285714285714306
40
0.97142857142857164
40
1
40
1
40
1
40
1
40
1
40
1
41
1
41
1
41
1
41
1
41
1
41
1
41
1
41
1
41
1
41
1
41
1
41
1
41
1
41
1
41
1
41
1
41
1
41
1
41
1
41
1
41
1
41
1
41
1
41
1
41
1
41
1
41
1
41
1
41
1
41
1
41
1
41
1
41
1
41
1
41
1
41
1
41
1
41
1
41
1
41
1
10
-17.00000025331974
20
-121.0000018030405
30
0
10
-16.886653392880476
20
-120.74751000085827
30
0
10
-16.681595208559834
20
-120.25454676738578
30
0
10
-16.438915521984995
20
-119.55116257793313
30
0
10
-16.245321973010377
20
-118.68553812540002
30
0
10
-16.216936129454925
20
-117.72574215255125
30
0
10
-16.39115838760577
20
-116.8928875473232
30
0
10
-16.744897540325066
20
-116.19553975111783
30
0
10
-17.237757294388466
20
-115.64760437893614
30
0
10
-17.809115391544619
20
-115.26875632545239
30
0
10
-18.369270659922911
20
-115.08749244433703
30
0
10
-18.813495678246216
20
-115.13388599520106
30
0
10
-19.055155702904749
20
-115.42368946022086
30
0
10
-19.052707045433483
20
-115.94527003522494
30
0
10
-18.8413113851616
20
-116.64410960953815
30
0
10
-18.509256104664289
20
-117.43924448273235
30
0
10
-18.173093904712751
20
-118.24033814845944
30
0
10
-17.952527917568062
20
-118.96531063567176
30
0
10
-17.947514055570146
20
-119.55578417299785
30
0
10
-18.209307866454644
20
-119.99839755612336
30
0
10
-18.733217279483497
20
-120.32528730381563
30
0
10
-19.475071890381098
20
-120.59194196692728
30
0
10
-20.361192872730452
20
-120.86098750740193
30
0
10
-21.300758854574447
20
-121.18408408533186
30
0
10
-22.197115848373446
20
-121.58353179251849
30
0
10
-22.9591605356268
20
-122.03694985505075
30
0
10
-23.508678988308883
20
-122.49557817932515
30
0
10
-23.788320373380504
20
-122.89976828722391
30
0
10
-23.769120600757624
20
-123.19510107173522
30
0
10
-23.459157406473228
20
-123.3490927889501
30
0
10
-22.909774776013872
20
-123.36532364839975
30
0
10
-22.198716234399349
20
-123.27093964759236
30
0
10
-21.41467299594224
20
-123.10608542601507
30
0
10
-20.642614046657549
20
-122.9134782786018
30
0
10
-19.94587608483474
20
-122.72609357057851
30
0
10
-19.360490067206339
20
-122.5626296778517
30
0
10
-18.995723588413838
20
-122.45863300559598
30
0
10
-18.782849554122851
20
-122.39702658648879
30
0
10
-18.667886113598428
20
-122.36323751115178
30
0
10
-18.617141944635975
20
-122.34816305824515
30
0
0
SPLINE
5
233
100
AcDbEntity
8
0
100
AcDbSpline
70
4
71
5
72
46
73
40
74
0
42
0.000000001
43
0.0000000001
44
0.0000000001
40
0
40
0
40
0
40
0
40
0
40
0
40
0.028571428571428571
40
0.057142857142857141
40
0.085714285714285715
40
0.11428571428571428
40
0.14285714285714285
40
0.17142857142857143
40
0.20000000000000001
40
0.22857142857142859
40
0.25714285714285717
40
0.28571428571428575
40
0.31428571428571433
40
0.34285714285714292
40
0.3714285714285715
40
0.40000000000000008
40
0.42857142857142866
40
0.45714285714285724
40
0.48571428571428582
40
0.51428571428571435
40
0.54285714285714293
40
0.57142857142857151
40
0.60000000000000009
40
0.62857142857142867
40
0.65714285714285725
40
0.68571428571428583
40
0.71428571428571441
40
0.74285714285714299
40
0.77142857142857157
40
0.80000000000000016
40
0.82857142857142874
40
0.85714285714285732
40
0.8857142857142859
40
0.91428571428571448
40
0.94285714285714306
40
0.97142857142857164
40
1
40
1
40
1
40
1
40
1
40
1
41
1
41
1
41
1
41
1
41
1
41
1
41
1
41
1
41
1
41
1
41
1
41
1
41
1
41
1
41
1
41
1
41
1
41
1
41
1
41
1
41
1
41
1
41
1
41
1
41
1
41
1
41
1
41
1
41
1
41
1
41
1
41
1
41
1
41
1
41
1
41
1
41
1
41
1
41
1
41
1
10
20.964620819324438
20
-121.21818928046949
30
0
10
21.077967679755382
20
-120.96569747821739
30
0
10
21.283025864061521
20
-120.47273424462161
30
0
10
21.525705550620945
20
-119.76935005503395
30
0
10
21.719299099586738
20
-118.90372560241671
30
0
10
21.747684943145828
20
-117.94392962959023
30
0
10
21.573462685007367
20
-117.11107502446654
30
0
10
21.219723532303338
20
-116.41372722839746
30
0
10
20.726863778252973
20
-115.86579185633802
30
0
10
20.155505681104493
20
-115.48694380292886
30
0
10
19.595350412728049
20
-115.30567992183188
30
0
10
19.151125394402214
20
-115.35207347267229
30
0
10
18.909465369739419
20
-115.64187693765021
30
0
10
18.911914027207185
20
-116.16345751261818
30
0
10
19.12330968747753
20
-116.862297086913
30
0
10
19.455364967975395
20
-117.65743196010877
30
0
10
19.791527167928884
20
-118.4585256258529
30
0
10
20.012093155075629
20
-119.18349811308951
30
0
10
20.017107017074736
20
-119.7739716504384
30
0
10
19.755313206190195
20
-120.21658503357848
30
0
10
19.231403793160489
20
-120.54347478127497
30
0
10
18.48954918226201
20
-120.81012944438122
30
0
10
17.603428199912557
20
-121.07917498484372
30
0
10
16.663862218069639
20
-121.40227156275898
30
0
10
15.767505224272684
20
-121.8017192699327
30
0
10
15.005460537021378
20
-122.25513733245741
30
0
10
14.45594208434018
20
-122.71376565673192
30
0
10
14.176300699267323
20
-123.11795576463901
30
0
10
14.195500471886524
20
-123.41328854916526
30
0
10
14.505463666165596
20
-123.56728026639723
30
0
10
15.054846296620445
20
-123.58351112585943
30
0
10
15.765904838234139
20
-123.48912712505302
30
0
10
16.54994807669593
20
-123.32427290346118
30
0
10
17.322007025990811
20
-123.13166575601858
30
0
10
18.018744987826089
20
-122.94428104796066
30
0
10
18.604131005462992
20
-122.78081715521063
30
0
10
18.968897484253766
20
-122.67682048296017
30
0
10
19.181771518536184
20
-122.61521406387699
30
0
10
19.296734959051292
20
-122.58142498856559
30
0
10
19.347479128008203
20
-122.56635053567413
30
0
0
SPLINE
5
234
100
AcDbEntity
8
0
100
AcDbSpline
70
4
71
5
72
26
73
20
74
0
42
0.000000001
43
0.0000000001
44
0.0000000001
40
0
40
0
40
0
40
0
40
0
40
0
40
0.066666666666666666
40
0.13333333333333333
40
0.20000000000000001
40
0.26666666666666666
40
0.33333333333333331
40
0.39999999999999997
40
0.46666666666666662
40
0.53333333333333333
40
0.59999999999999998
40
0.66666666666666663
40
0.73333333333333328
40
0.79999999999999993
40
0.86666666666666659
40
0.93333333333333324
40
1
40
1
40
1
40
1
40
1
40
1
41
1
41
1
41
1
41
1
41
1
41
1
41
1
41
1
41
1
41
1
41
1
41
1
41
1
41
1
41
1
41
1
41
1
41
1
41
1
41
1
10
12.947128552823211
20
-152.49653356437955
30
0
10
13.478066213630695
20
-152.02432862480737
30
0
10
14.506975532250916
20
-151.07936848187074
30
0
10
15.951441539694109
20
-149.66027729928427
30
0
10
17.678162167812282
20
-147.76483123274494
30
0
10
19.496027135833916
20
-145.39104332175771
30
0
10
20.963142219434971
20
-143.01626499775455
30
0
10
22.071256200865555
20
-140.64770436760119
30
0
10
22.819268842238817
20
-138.29785064086951
30
0
10
23.21811004718743
20
-135.98568898941272
30
0
10
23.300073991139811
20
-133.7390972087164
30
0
10
23.116876188478052
20
-131.59322028522149
30
0
10
22.728056655700527
20
-129.58543948304268
30
0
10
22.192900437613087
20
-127.7507571797253
30
0
10
21.562519510314576
20
-126.11727238552152
30
0
10
20.870351942833665
20
-124.69902585033381
30
0
10
20.280550010211126
20
-123.738523084253
30
0
10
19.820757518900052
20
-123.1150382683861
30
0
10
19.506522604074018
20
-122.74212253097696
30
0
10
19.347479128008203
20
-122.56635053567413
30
0
0
SPLINE
5
235
100
AcDbEntity
8
0
100
AcDbSpline
70
4
71
5
72
26
73
20
74
0
42
0.000000001
43
0.0000000001
44
0.0000000001
40
0
40
0
40
0
40
0
40
0
40
0
40
0.066666666666666666
40
0.13333333333333333
40
0.20000000000000001
40
0.26666666666666666
40
0.33333333333333331
40
0.39999999999999997
40
0.46666666666666662
40
0.53333333333333333
40
0.59999999999999998
40
0.66666666666666663
40
0.73333333333333328
40
0.79999999999999993
40
0.86666666666666659
40
0.93333333333333324
40
1
40
1
40
1
40
1
40
1
40
1
41
1
41
1
41
1
41
1
41
1
41
1
41
1
41
1
41
1
41
1
41
1
41
1
41
1
41
1
41
1
41
1
41
1
41
1
41
1
41
1
10
15.988093767933055
20
-153.11305848479245
30
0
10
16.475357218987806
20
-152.66629966880129
30
0
10
17.41923286500009
20
-151.76613247270407
30
0
10
18.743092851966747
20
-150.39593291124382
30
0
10
20.322993236611083
20
-148.52881313931928
30
0
10
21.981266154261185
20
-146.1279741864989
30
0
10
23.313474354245969
20
-143.66343473302965
30
0
10
24.31208727910748
20
-141.14421414355857
30
0
10
24.976169837158007
20
-138.58817593519373
30
0
10
25.316352274842462
20
-136.02494459464549
30
0
10
25.362583029754177
20
-133.50037860408139
30
0
10
25.15772849006186
20
-131.07067521524101
30
0
10
24.749895854215197
20
-128.79516706244334
30
0
10
24.186068916427853
20
-126.72900646685748
30
0
10
23.506477463791136
20
-124.91636923101981
30
0
10
22.737828124226333
20
-123.37990431768401
30
0
10
22.062993376004592
20
-122.37590559393792
30
0
10
21.525805099426982
20
-121.74855101149946
30
0
10
21.153967370404331
20
-121.38573861602276
30
0
10
20.964620819324438
20
-121.21818928046949
30
0
0
CIRCLE
5
236
100
AcDbEntity
8
0
100
AcDbCircle
10
12.964621072644178
20
-160.21818747742898
30
0
40
4.5999999999999996
210
0
220
0
230
1
0
SPLINE
5
237
100
AcDbEntity
8
0
100
AcDbSpline
70
4
71
5
72
46
73
40
74
0
42
0.000000001
43
0.0000000001
44
0.0000000001
40
0
40
0
40
0
40
0
40
0
40
0
40
0.028571428571428571
40
0.057142857142857141
40
0.085714285714285715
40
0.11428571428571428
40
0.14285714285714285
40
0.17142857142857143
40
0.20000000000000001
40
0.22857142857142859
40
0.25714285714285717
40
0.28571428571428575
40
0.31428571428571433
40
0.34285714285714292
40
0.3714285714285715
40
0.40000000000000008
40
0.42857142857142866
40
0.45714285714285724
40
0.48571428571428582
40
0.51428571428571435
40
0.54285714285714293
40
0.57142857142857151
40
0.60000000000000009
40
0.62857142857142867
40
0.65714285714285725
40
0.68571428571428583
40
0.71428571428571441
40
0.74285714285714299
40
0.77142857142857157
40
0.80000000000000016
40
0.82857142857142874
40
0.85714285714285732
40
0.8857142857142859
40
0.91428571428571448
40
0.94285714285714306
40
0.97142857142857164
40
1
40
1
40
1
40
1
40
1
40
1
41
1
41
1
41
1
41
1
41
1
41
1
41
1
41
1
41
1
41
1
41
1
41
1
41
1
41
1
41
1
41
1
41
1
41
1
41
1
41
1
41
1
41
1
41
1
41
1
41
1
41
1
41
1
41
1
41
1
41
1
41
1
41
1
41
1
41
1
41
1
41
1
41
1
41
1
41
1
41
1
10
-32.99999974668026
20
-198.9999981969595
30
0
10
-33.113346607119524
20
-199.25248999914174
30
0
10
-33.318404791440166
20
-199.74545323261424
30
0
10
-33.561084478015005
20
-200.44883742206684
30
0
10
-33.75467802698963
20
-201.3144618746
30
0
10
-33.783063870545078
20
-202.27425784744872
30
0
10
-33.60884161239423
20
-203.1071124526768
30
0
10
-33.255102459674937
20
-203.80446024888215
30
0
10
-32.762242705611541
20
-204.35239562106386
30
0
10
-32.190884608455391
20
-204.73124367454761
30
0
10
-31.630729340077096
20
-204.91250755566298
30
0
10
-31.186504321753787
20
-204.86611400479893
30
0
10
-30.944844297095251
20
-204.57631053977912
30
0
10
-30.947292954566521
20
-204.05472996477505
30
0
10
-31.158688614838404
20
-203.35589039046184
30
0
10
-31.490743895335711
20
-202.56075551726767
30
0
10
-31.826906095287253
20
-201.75966185154056
30
0
10
-32.047472082431938
20
-201.03468936432824
30
0
10
-32.052485944429854
20
-200.44421582700215
30
0
10
-31.79069213354536
20
-200.00160244387666
30
0
10
-31.266782720516506
20
-199.67471269618437
30
0
10
-30.524928109618905
20
-199.40805803307271
30
0
10
-29.638807127269551
20
-199.13901249259808
30
0
10
-28.699241145425557
20
-198.81591591466815
30
0
10
-27.802884151626557
20
-198.41646820748153
30
0
10
-27.040839464373203
20
-197.96305014494925
30
0
10
-26.49132101169112
20
-197.50442182067485
30
0
10
-26.2116796266195
20
-197.10023171277609
30
0
10
-26.230879399242379
20
-196.80489892826478
30
0
10
-26.540842593526776
20
-196.65090721104988
30
0
10
-27.090225223986131
20
-196.63467635160026
30
0
10
-27.801283765600658
20
-196.72906035240766
30
0
10
-28.585327004057763
20
-196.89391457398494
30
0
10
-29.357385953342458
20
-197.08652172139821
30
0
10
-30.054123915165263
20
-197.27390642942146
30
0
10
-30.639509932793665
20
-197.4373703221483
30
0
10
-31.004276411586162
20
-197.54136699440403
30
0
10
-31.217150445877149
20
-197.60297341351119
30
0
10
-31.332113886401576
20
-197.63676248884821
30
0
10
-31.382858055364025
20
-197.65183694175482
30
0
0
SPLINE
5
238
100
AcDbEntity
8
0
100
AcDbSpline
70
4
71
5
72
26
73
20
74
0
42
0.000000001
43
0.0000000001
44
0.0000000001
40
0
40
0
40
0
40
0
40
0
40
0
40
0.066666666666666666
40
0.13333333333333333
40
0.20000000000000001
40
0.26666666666666666
40
0.33333333333333331
40
0.39999999999999997
40
0.46666666666666662
40
0.53333333333333333
40
0.59999999999999998
40
0.66666666666666663
40
0.73333333333333328
40
0.79999999999999993
40
0.86666666666666659
40
0.93333333333333324
40
1
40
1
40
1
40
1
40
1
40
1
41
1
41
1
41
1
41
1
41
1
41
1
41
1
41
1
41
1
41
1
41
1
41
1
41
1
41
1
41
1
41
1
41
1
41
1
41
1
41
1
10
-24.982507480179031
20
-167.72165391304947
30
0
10
-25.513445140954474
20
-168.19385885258728
30
0
10
-26.542354459517913
20
-169.13881899546308
30
0
10
-27.986820466898056
20
-170.55791017798168
30
0
10
-29.713541094974797
20
-172.45335624447591
30
0
10
-31.531406063002496
20
-174.82714415546852
30
0
10
-32.998521146648713
20
-177.201922479519
30
0
10
-34.106635128142329
20
-179.57048310973965
30
0
10
-34.854647769576694
20
-181.92033683653835
30
0
10
-35.253488974568981
20
-184.23249848804551
30
0
10
-35.335452918540881
20
-186.47909026876732
30
0
10
-35.152255115876883
20
-188.624967192263
30
0
10
-34.763435583082831
20
-190.63274799442348
30
0
10
-34.228279364974014
20
-192.46743029771272
30
0
10
-33.597898437658415
20
-194.10091509188896
30
0
10
-32.905730870169776
20
-195.5191616270597
30
0
10
-32.315928937549792
20
-196.47966439314203
30
0
10
-31.856136446245475
20
-197.1031492090213
30
0
10
-31.541901531426035
20
-197.47606494644396
30
0
10
-31.382858055364025
20
-197.65183694175482
30
0
0
SPLINE
5
239
100
AcDbEntity
8
0
100
AcDbSpline
70
4
71
5
72
26
73
20
74
0
42
0.000000001
43
0.0000000001
44
0.0000000001
40
0
40
0
40
0
40
0
40
0
40
0
40
0.066666666666666666
40
0.13333333333333333
40
0.20000000000000001
40
0.26666666666666666
40
0.33333333333333331
40
0.39999999999999997
40
0.46666666666666662
40
0.53333333333333333
40
0.59999999999999998
40
0.66666666666666663
40
0.73333333333333328
40
0.79999999999999993
40
0.86666666666666659
40
0.93333333333333324
40
1
40
1
40
1
40
1
40
1
40
1
41
1
41
1
41
1
41
1
41
1
41
1
41
1
41
1
41
1
41
1
41
1
41
1
41
1
41
1
41
1
41
1
41
1
41
1
41
1
41
1
10
-28.023472695288877
20
-167.10512899263654
30
0
10
-28.510736146324792
20
-167.55188780863537
30
0
10
-29.454611792303822
20
-168.45205500474606
30
0
10
-30.778471779234057
20
-169.82225456622098
30
0
10
-32.35837216385579
20
-171.68937433815361
30
0
10
-34.016645081512465
20
-174.09021329096953
30
0
10
-35.348853281526573
20
-176.55475274442603
30
0
10
-36.34746620642666
20
-179.07397333388221
30
0
10
-37.011548764512703
20
-181.63001154223494
30
0
10
-37.351731202220705
20
-184.19324288277727
30
0
10
-37.397961957141369
20
-186.71780887334151
30
0
10
-37.193107417445418
20
-189.14751226218542
30
0
10
-36.78527478158734
20
-191.42302041498658
30
0
10
-36.221447843786372
20
-193.48918101057308
30
0
10
-35.541856391139021
20
-195.30181824640727
30
0
10
-34.7732070515695
20
-196.83828315973824
30
0
10
-34.098372303349436
20
-197.84228188348308
30
0
10
-33.561184026776154
20
-198.469636465924
30
0
10
-33.189346297757716
20
-198.83244886140409
30
0
10
-32.99999974668026
20
-198.9999981969595
30
0
0
LINE
5
240
100
AcDbEntity
8
0
100
AcDbLine
10
18.202795250059275
20
-147.01565100237968
30
0
11
20.819762813360832
21
-147.73567767614753
31
0
0
LINE
5
241
100
AcDbEntity
8
0
100
AcDbLine
10
22.220136967255296
20
-140.01332065503951
30
0
11
24.393104910479046
21
-140.61118625425607
31
0
0
LINE
5
242
100
AcDbEntity
8
0
100
AcDbLine
10
23.222721676459088
20
-131.78516286753717
30
0
11
25.184802709863305
21
-131.78516286753717
31
0
0
LINE
5
243
100
AcDbEntity
8
0
100
AcDbLine
10
21.216663295289617
20
-125.44944859099004
30
0
11
23.222721676459088
21
-124.40993092468274
31
0
0
LINE
5
244
100
AcDbEntity
8
0
100
AcDbLine
10
2.7065204688292699
20
-188.6512120873208
30
0
11
0.74443943542505053
21
-188.6512120873208
31
0
0
LINE
5
245
100
AcDbEntity
8
0
100
AcDbLine
10
4.7125788499987342
20
-194.98692636386792
30
0
11
2.7065204688292654
21
-196.02644403017521
31
0
0
LINE
5
246
100
AcDbEntity
8
0
100
AcDbLine
10
3.7091051780330586
20
-180.42305429981843
30
0
11
1.5361372348093116
21
-179.8251887006019
31
0
0
LINE
5
247
100
AcDbEntity
8
0
100
AcDbLine
10
7.7264468952290821
20
-173.42072395247828
30
0
11
5.1094793319275222
21
-172.70069727871044
31
0
0
SPLINE
5
248
100
AcDbEntity
8
0
100
AcDbSpline
70
4
71
5
72
46
73
40
74
0
42
0.000000001
43
0.0000000001
44
0.0000000001
40
0
40
0
40
0
40
0
40
0
40
0
40
0.028571428571428571
40
0.057142857142857141
40
0.085714285714285715
40
0.11428571428571428
40
0.14285714285714285
40
0.17142857142857143
40
0.20000000000000001
40
0.22857142857142859
40
0.25714285714285717
40
0.28571428571428575
40
0.31428571428571433
40
0.34285714285714292
40
0.3714285714285715
40
0.40000000000000008
40
0.42857142857142866
40
0.45714285714285724
40
0.48571428571428582
40
0.51428571428571435
40
0.54285714285714293
40
0.57142857142857151
40
0.60000000000000009
40
0.62857142857142867
40
0.65714285714285725
40
0.68571428571428583
40
0.71428571428571441
40
0.74285714285714299
40
0.77142857142857157
40
0.80000000000000016
40
0.82857142857142874
40
0.85714285714285732
40
0.8857142857142859
40
0.91428571428571448
40
0.94285714285714306
40
0.97142857142857164
40
1
40
1
40
1
40
1
40
1
40
1
41
1
41
1
41
1
41
1
41
1
41
1
41
1
41
1
41
1
41
1
41
1
41
1
41
1
41
1
41
1
41
1
41
1
41
1
41
1
41
1
41
1
41
1
41
1
41
1
41
1
41
1
41
1
41
1
41
1
41
1
41
1
41
1
41
1
41
1
41
1
41
1
41
1
41
1
41
1
41
1
10
4.9646213259639138
20
-199.21818567438848
30
0
10
4.8512744655329687
20
-199.47067747664056
30
0
10
4.6462162812268293
20
-199.96364071023635
30
0
10
4.4035365946674077
20
-200.66702489982401
30
0
10
4.209943045701614
20
-201.53264935244124
30
0
10
4.1815572021425229
20
-202.49244532526774
30
0
10
4.3557794602809841
20
-203.32529993039142
30
0
10
4.7095186129850131
20
-204.02264772646049
30
0
10
5.2023783670353785
20
-204.57058309851993
30
0
10
5.7737364641838562
20
-204.9494311519291
30
0
10
6.3338917325603035
20
-205.13069503302609
30
0
10
6.778116750886138
20
-205.08430148218568
30
0
10
7.0197767755489338
20
-204.79449801720776
30
0
10
7.0173281180811671
20
-204.27291744223979
30
0
10
6.8059324578108216
20
-203.57407786794496
30
0
10
6.4738771773129571
20
-202.7789429947492
30
0
10
6.1377149773594697
20
-201.97784932900507
30
0
10
5.9171489902127217
20
-201.25287684176845
30
0
10
5.9121351282136159
20
-200.66240330441957
30
0
10
6.1739289390981593
20
-200.21978992127947
30
0
10
6.6978383521278655
20
-199.892900173583
30
0
10
7.4396929630263431
20
-199.62624551047674
30
0
10
8.3258139453757973
20
-199.35719997001425
30
0
10
9.2653799272187154
20
-199.03410339209898
30
0
10
10.16173692101567
20
-198.63465568492526
30
0
10
10.923781608266976
20
-198.18123762240054
30
0
10
11.473300060948175
20
-197.72260929812603
30
0
10
11.75294144602103
20
-197.31841919021895
30
0
10
11.73374167340183
20
-197.02308640569271
30
0
10
11.423778479122756
20
-196.86909468846073
30
0
10
10.874395848667909
20
-196.85286382899852
30
0
10
10.163337307054213
20
-196.94724782980495
30
0
10
9.3792940685924222
20
-197.11210205139679
30
0
10
8.6072351192975418
20
-197.30470919883939
30
0
10
7.910497157462264
20
-197.49209390689731
30
0
10
7.3251111398253599
20
-197.65555779964734
30
0
10
6.960344661034588
20
-197.75955447189779
30
0
10
6.74747062675217
20
-197.82116089098096
30
0
10
6.6325071862370617
20
-197.85494996629239
30
0
10
6.5817630172801511
20
-197.87002441918384
30
0
0
SPLINE
5
249
100
AcDbEntity
8
0
100
AcDbSpline
70
4
71
5
72
26
73
20
74
0
42
0.000000001
43
0.0000000001
44
0.0000000001
40
0
40
0
40
0
40
0
40
0
40
0
40
0.066666666666666666
40
0.13333333333333333
40
0.20000000000000001
40
0.26666666666666666
40
0.33333333333333331
40
0.39999999999999997
40
0.46666666666666662
40
0.53333333333333333
40
0.59999999999999998
40
0.66666666666666663
40
0.73333333333333328
40
0.79999999999999993
40
0.86666666666666659
40
0.93333333333333324
40
1
40
1
40
1
40
1
40
1
40
1
41
1
41
1
41
1
41
1
41
1
41
1
41
1
41
1
41
1
41
1
41
1
41
1
41
1
41
1
41
1
41
1
41
1
41
1
41
1
41
1
10
9.9411483773553009
20
-167.32331647006555
30
0
10
9.4538849263005513
20
-167.77007528605665
30
0
10
8.5100092802882656
20
-168.67024248215387
30
0
10
7.1861492933216091
20
-170.04044204361412
30
0
10
5.6062489086772738
20
-171.90756181553866
30
0
10
3.9479759910271728
20
-174.30840076835906
30
0
10
2.6157677910423871
20
-176.77294022182832
30
0
10
1.6171548661808766
20
-179.2921608112994
30
0
10
0.95307230813034938
20
-181.84819901966421
30
0
10
0.61288987044589405
20
-184.41143036021245
30
0
10
0.56665911553417825
20
-186.93599635077661
30
0
10
0.77151365522649673
20
-189.36569973961696
30
0
10
1.17934629107316
20
-191.64120789241463
30
0
10
1.7431732288604973
20
-193.7073684880005
30
0
10
2.4227646814972159
20
-195.52000572383815
30
0
10
3.1914140210620179
20
-197.05647063717396
30
0
10
3.8662487692837599
20
-198.06046936092005
30
0
10
4.4034370458613692
20
-198.68782394335852
30
0
10
4.7752747748840196
20
-199.0506363388352
30
0
10
4.9646213259639138
20
-199.21818567438848
30
0
0
SPLINE
5
250
100
AcDbEntity
8
0
100
AcDbSpline
70
4
71
5
72
26
73
20
74
0
42
0.000000001
43
0.0000000001
44
0.0000000001
40
0
40
0
40
0
40
0
40
0
40
0
40
0.066666666666666666
40
0.13333333333333333
40
0.20000000000000001
40
0.26666666666666666
40
0.33333333333333331
40
0.39999999999999997
40
0.46666666666666662
40
0.53333333333333333
40
0.59999999999999998
40
0.66666666666666663
40
0.73333333333333328
40
0.79999999999999993
40
0.86666666666666659
40
0.93333333333333324
40
1
40
1
40
1
40
1
40
1
40
1
41
1
41
1
41
1
41
1
41
1
41
1
41
1
41
1
41
1
41
1
41
1
41
1
41
1
41
1
41
1
41
1
41
1
41
1
41
1
41
1
10
12.982113592465145
20
-167.93984139047842
30
0
10
12.45117593165766
20
-168.4120463300506
30
0
10
11.42226661303744
20
-169.35700647298722
30
0
10
9.977800605594247
20
-170.77609765557369
30
0
10
8.2510799774760741
20
-172.67154372211303
30
0
10
6.4332150094544405
20
-175.04533163310026
30
0
10
4.9660999258533867
20
-177.42010995710345
30
0
10
3.8579859444228015
20
-179.78867058725677
30
0
10
3.1099733030495402
20
-182.13852431398846
30
0
10
2.7111320981009257
20
-184.45068596544525
30
0
10
2.6291681541485445
20
-186.69727774614157
30
0
10
2.8123659568103054
20
-188.84315466963648
30
0
10
3.2011854895878278
20
-190.85093547181529
30
0
10
3.7363417076752681
20
-192.68561777513267
30
0
10
4.3667226349737742
20
-194.31910256933645
30
0
10
5.0588902024546867
20
-195.73734910452416
30
0
10
5.6486921350772246
20
-196.69785187060498
30
0
10
6.1084846263883019
20
-197.32133668647185
30
0
10
6.4227195412143345
20
-197.69425242388104
30
0
10
6.5817630172801511
20
-197.87002441918384
30
0
0
CIRCLE
5
251
100
AcDbEntity
8
0
100
AcDbCircle
10
-65
20
-30
30
0
40
4.5999999999999996
210
0
220
0
230
1
0
CIRCLE
5
252
100
AcDbEntity
8
0
100
AcDbCircle
10
-65
20
-30
30
0
40
7.5
210
0
220
0
230
1
0
CIRCLE
5
253
100
AcDbEntity
8
0
100
AcDbCircle
10
-55.528704856639379
20
-44.06627991588212
30
0
40
7.5
210
0
220
0
230
1
0
CIRCLE
5
254
100
AcDbEntity
8
0
100
AcDbCircle
10
-55.528704856639379
20
-44.06627991588212
30
0
40
4.5999999999999996
210
0
220
0
230
1
0
CIRCLE
5
255
100
AcDbEntity
8
0
100
AcDbCircle
10
-47.464037704866925
20
-29.156023205047056
30
0
40
7.5
210
0
220
0
230
1
0
CIRCLE
5
256
100
AcDbEntity
8
0
100
AcDbCircle
10
-47.464037704866925
20
-29.156023205047056
30
0
40
4.5999999999999996
210
0
220
0
230
1
0
CIRCLE
5
257
100
AcDbEntity
8
0
100
AcDbCircle
10
-70.808270585888508
20
-67.977153830809399
30
0
40
7.5
210
0
220
0
230
1
0
CIRCLE
5
258
100
AcDbEntity
8
0
100
AcDbCircle
10
-70.808270585888508
20
-67.977153830809399
30
0
40
4.5499999999999998
210
0
220
0
230
1
0
CIRCLE
5
259
100
AcDbEntity
8
0
100
AcDbCircle
10
-56.392911897415836
20
-81.44945167050345
30
0
40
4.5499999999999998
210
0
220
0
230
1
0
CIRCLE
5
260
100
AcDbEntity
8
0
100
AcDbCircle
10
-56.392911897415836
20
-81.44945167050345
30
0
40
7.5
210
0
220
0
230
1
0
CIRCLE
5
261
100
AcDbEntity
8
0
100
AcDbCircle
10
-74.176345045811914
20
-85.221695065617737
30
0
40
4.5499999999999998
210
0
220
0
230
1
0
CIRCLE
5
262
100
AcDbEntity
8
0
100
AcDbCircle
10
-74.176345045811914
20
-85.221695065617737
30
0
40
7.5
210
0
220
0
230
1
0
LINE
5
263
100
AcDbEntity
8
0
100
AcDbLine
10
26.019339716508334
20
-57.984141605412646
30
0
11
16.669339716508329
21
-57.984141605412646
31
0
0
LINE
5
264
100
AcDbEntity
8
0
100
AcDbLine
10
26.019339716508334
20
-63.984141605412646
30
0
11
26.019339716508334
21
-57.984141605412646
31
0
0
LINE
5
265
100
AcDbEntity
8
0
100
AcDbLine
10
16.669339716508329
20
-57.984141605412646
30
0
11
16.669339716508329
21
-63.984141605412646
31
0
0
LINE
5
266
100
AcDbEntity
8
0
100
AcDbLine
10
16.669339716508329
20
-63.984141605412646
30
0
11
7.2193397165083528
21
-63.984141605412646
31
0
0
CIRCLE
5
267
100
AcDbEntity
8
0
100
AcDbCircle
10
-45.700924145075838
20
-113.1567256946839
30
0
40
7.5
210
0
220
0
230
1
0
CIRCLE
5
268
100
AcDbEntity
8
0
100
AcDbCircle
10
-60.116282833548482
20
-99.684427854989863
30
0
40
4.5499999999999998
210
0
220
0
230
1
0
CIRCLE
5
269
100
AcDbEntity
8
0
100
AcDbCircle
10
-45.700924145075838
20
-113.1567256946839
30
0
40
4.5499999999999998
210
0
220
0
230
1
0
CIRCLE
5
270
100
AcDbEntity
8
0
100
AcDbCircle
10
-63.484357293471902
20
-116.92896908979819
30
0
40
7.5
210
0
220
0
230
1
0
CIRCLE
5
271
100
AcDbEntity
8
0
100
AcDbCircle
10
-63.484357293471902
20
-116.92896908979819
30
0
40
4.5499999999999998
210
0
220
0
230
1
0
CIRCLE
5
272
100
AcDbEntity
8
0
100
AcDbCircle
10
-60.116282833548482
20
-99.684427854989863
30
0
40
7.5
210
0
220
0
230
1
0
CIRCLE
5
273
100
AcDbEntity
8
0
100
AcDbCircle
10
300
20
-50
30
0
40
60
210
0
220
0
230
1
0
LINE
5
274
100
AcDbEntity
8
0
100
AcDbLine
10
279.77136011009497
20
-106.48718552206813
30
0
11
299.97600373113136
21
-71.536116685747402
31
0
0
LINE
5
275
100
AcDbEntity
8
0
100
AcDbLine
10
299.97600373113136
20
-71.536116685747402
30
0
11
320.22863988990503
21
-106.48718552206813
31
0
0
SPLINE
5
276
100
AcDbEntity
8
0
100
AcDbSpline
70
4
71
5
72
26
73
20
74
0
42
0.000000001
43
0.0000000001
44
0.0000000001
40
0
40
0
40
0
40
0
40
0
40
0
40
0.066666666666666666
40
0.13333333333333333
40
0.20000000000000001
40
0.26666666666666666
40
0.33333333333333331
40
0.39999999999999997
40
0.46666666666666662
40
0.53333333333333333
40
0.59999999999999998
40
0.66666666666666663
40
0.73333333333333328
40
0.79999999999999993
40
0.86666666666666659
40
0.93333333333333324
40
1
40
1
40
1
40
1
40
1
40
1
41
1
41
1
41
1
41
1
41
1
41
1
41
1
41
1
41
1
41
1
41
1
41
1
41
1
41
1
41
1
41
1
41
1
41
1
41
1
41
1
10
300
20
-50
30
0
10
299.46535391584933
20
-51.086798570770434
30
0
10
298.38798436677018
20
-53.207799683474263
30
0
10
296.74769805123645
20
-56.231514224766542
30
0
10
294.51183194279798
20
-59.945256866546792
30
0
10
291.6351692534717
20
-64.047892760760618
30
0
10
288.67901627580881
20
-67.605965983000104
30
0
10
285.6511759820097
20
-70.62935107869005
30
0
10
282.56787929491117
20
-73.154645356018506
30
0
10
279.45711532716831
20
-75.258886791479313
30
0
10
276.36234149179916
20
-77.075417541547083
30
0
10
273.33512263403009
20
-78.768149935075627
30
0
10
270.42737192770124
20
-80.505615416345933
30
0
10
267.6845318889757
20
-82.438571326241217
30
0
10
265.13568764935951
20
-84.669616065997943
30
0
10
262.79253140165844
20
-87.248621059307737
30
0
10
261.08438974103024
20
-89.605237477591231
30
0
10
259.89574483745821
20
-91.537855714544094
30
0
10
259.1441181791759
20
-92.899158670519
30
0
10
258.778505323069
20
-93.598031797315699
30
0
0
SPLINE
5
277
100
AcDbEntity
8
0
100
AcDbSpline
70
4
71
5
72
26
73
20
74
0
42
0.000000001
43
0.0000000001
44
0.0000000001
40
0
40
0
40
0
40
0
40
0
40
0
40
0.066666666666666666
40
0.13333333333333333
40
0.20000000000000001
40
0.26666666666666666
40
0.33333333333333331
40
0.39999999999999997
40
0.46666666666666662
40
0.53333333333333333
40
0.59999999999999998
40
0.66666666666666663
40
0.73333333333333328
40
0.79999999999999993
40
0.86666666666666659
40
0.93333333333333324
40
1
40
1
40
1
40
1
40
1
40
1
41
1
41
1
41
1
41
1
41
1
41
1
41
1
41
1
41
1
41
1
41
1
41
1
41
1
41
1
41
1
41
1
41
1
41
1
41
1
41
1
10
300
20
-50
30
0
10
299.31396079011245
20
-50.335520530130935
30
0
10
297.92825123218091
20
-50.972868009313643
30
0
10
295.80879300492603
20
-51.827807352900315
30
0
10
292.90047041075695
20
-52.764102727352729
30
0
10
289.12603959028314
20
-53.59062874937802
30
0
10
285.2138020533589
20
-54.075739029737058
30
0
10
281.17120617308223
20
-54.236664453945167
30
0
10
277.01644647615404
20
-54.116358381397482
30
0
10
272.78130979691787
20
-53.790404533422205
30
0
10
268.50471641341755
20
-53.351519115113142
30
0
10
264.22802459329495
20
-52.89833036710138
30
0
10
259.9898876761527
20
-52.523115778300379
30
0
10
255.82142969496135
20
-52.300337553202105
30
0
10
251.74067852632271
20
-52.273453771630969
30
0
10
247.75608131895311
20
-52.463151399606588
30
0
10
244.64722397892893
20
-52.79309128491856
30
0
10
242.35959544427669
20
-53.140160286477126
30
0
10
240.85393043173224
20
-53.415492765937486
30
0
10
240.10595310045514
20
-53.564147302668673
30
0
0
SPLINE
5
278
100
AcDbEntity
8
0
100
AcDbSpline
70
4
71
5
72
26
73
20
74
0
42
0.000000001
43
0.0000000001
44
0.0000000001
40
0
40
0
40
0
40
0
40
0
40
0
40
0.066666666666666666
40
0.13333333333333333
40
0.20000000000000001
40
0.26666666666666666
40
0.33333333333333331
40
0.39999999999999997
40
0.46666666666666662
40
0.53333333333333333
40
0.59999999999999998
40
0.66666666666666663
40
0.73333333333333328
40
0.79999999999999993
40
0.86666666666666659
40
0.93333333333333324
40
1
40
1
40
1
40
1
40
1
40
1
41
1
41
1
41
1
41
1
41
1
41
1
41
1
41
1
41
1
41
1
41
1
41
1
41
1
41
1
41
1
41
1
41
1
41
1
41
1
41
1
10
300
20
-50
30
0
10
299.33294573201033
20
-50.564273715612572
30
0
10
297.98347815989649
20
-51.63596863382616
30
0
10
295.91319944214735
20
-53.072952535864111
30
0
10
293.06000527446065
20
-54.645342175727436
30
0
10
289.33673646804357
20
-56.030554161441721
30
0
10
285.45765217014542
20
-56.839175425341544
30
0
10
281.43038774154013
20
-57.099726760660033
30
0
10
277.27398434056079
20
-56.883129894949214
30
0
10
273.02265076430047
20
-56.316667917999219
30
0
10
268.71884349242589
20
-55.558269434937834
30
0
10
264.40795923159317
20
-54.776775512124011
30
0
10
260.13266567314304
20
-54.130854302603908
30
0
10
255.92764061280801
20
-53.749426557761538
30
0
10
251.81328588625161
20
-53.708265930758131
30
0
10
247.79929586757223
20
-54.04330411452343
30
0
10
244.67072951745462
20
-54.620884334715782
30
0
10
242.37050429041943
20
-55.22712399457528
30
0
10
240.85740597876483
20
-55.707642655170574
30
0
10
240.10595310045514
20
-55.966991649293256
30
0
0
SPLINE
5
279
100
AcDbEntity
8
0
100
AcDbSpline
70
4
71
5
72
26
73
20
74
0
42
0.000000001
43
0.0000000001
44
0.0000000001
40
0
40
0
40
0
40
0
40
0
40
0
40
0.066666666666666666
40
0.13333333333333333
40
0.20000000000000001
40
0.26666666666666666
40
0.33333333333333331
40
0.39999999999999997
40
0.46666666666666662
40
0.53333333333333333
40
0.59999999999999998
40
0.66666666666666663
40
0.73333333333333328
40
0.79999999999999993
40
0.86666666666666659
40
0.93333333333333324
40
1
40
1
40
1
40
1
40
1
40
1
41
1
41
1
41
1
41
1
41
1
41
1
41
1
41
1
41
1
41
1
41
1
41
1
41
1
41
1
41
1
41
1
41
1
41
1
41
1
41
1
10
300
20
-50
30
0
10
299.62440307907093
20
-51.153019146031802
30
0
10
298.84941672057846
20
-53.397607354554815
30
0
10
297.61556090893004
20
-56.580142243765948
30
0
10
295.82661829208575
20
-60.45212227368652
30
0
10
293.34813963201316
20
-64.663018363497159
30
0
10
290.63032630788507
20
-68.242650288425807
30
0
10
287.68846587761527
20
-71.210476081603161
30
0
10
284.55687134025641
20
-73.621594366086057
30
0
10
281.29860600406653
20
-75.587189428190811
30
0
10
278.01033081042385
20
-77.285469300198628
30
0
10
274.80365348301075
20
-78.925110723429995
30
0
10
271.7894867687591
20
-80.715598600002082
30
0
10
269.0630156684694
20
-82.838800021451306
30
0
10
266.6829197623295
20
-85.411053227083784
30
0
10
264.67413390975128
20
-88.487031443769894
30
0
10
263.36888888102453
20
-91.365453720985244
30
0
10
262.55793040343093
20
-93.758182727911986
30
0
10
262.09141765488266
20
-95.456563292438346
30
0
10
261.87669229209001
20
-96.331559539993989
30
0
0
SPLINE
5
280
100
AcDbEntity
8
0
100
AcDbSpline
70
4
71
5
72
21
73
15
74
0
42
0.000000001
43
0.0000000001
44
0.0000000001
40
0
40
0
40
0
40
0
40
0
40
0
40
0.10000000000000001
40
0.20000000000000001
40
0.30000000000000004
40
0.40000000000000002
40
0.5
40
0.59999999999999998
40
0.69999999999999996
40
0.79999999999999993
40
0.89999999999999991
40
1
40
1
40
1
40
1
40
1
40
1
41
1
41
1
41
1
41
1
41
1
41
1
41
1
41
1
41
1
41
1
41
1
41
1
41
1
41
1
41
1
10
270.6404158393471
20
-55.885723932331814
30
0
10
269.43613690838339
20
-55.711334798615567
30
0
10
267.19786462440669
20
-55.499128680204095
30
0
10
264.35128364689575
20
-55.590512441158715
30
0
10
261.50958210330549
20
-56.476490589792824
30
0
10
259.17610970721381
20
-58.555514227974456
30
0
10
257.59731837340593
20
-61.228087277675286
30
0
10
256.30731389935141
20
-64.114600834285923
30
0
10
254.91308122356611
20
-66.895092998483506
30
0
10
253.18669422275619
20
-69.385188798876868
30
0
10
251.02724515931862
20
-71.504477201904635
30
0
10
248.93051506956965
20
-72.886041803197458
30
0
10
247.15378907401046
20
-73.748993158713418
30
0
10
245.88001565487599
20
-74.248542665744324
30
0
10
245.22080737314994
20
-74.479380203560211
30
0
0
SPLINE
5
281
100
AcDbEntity
8
0
100
AcDbSpline
70
4
71
5
72
21
73
15
74
0
42
0.000000001
43
0.0000000001
44
0.0000000001
40
0
40
0
40
0
40
0
40
0
40
0
40
0.10000000000000001
40
0.20000000000000001
40
0.30000000000000004
40
0.40000000000000002
40
0.5
40
0.59999999999999998
40
0.69999999999999996
40
0.79999999999999993
40
0.89999999999999991
40
1
40
1
40
1
40
1
40
1
40
1
41
1
41
1
41
1
41
1
41
1
41
1
41
1
41
1
41
1
41
1
41
1
41
1
41
1
41
1
41
1
10
284.56903869380375
20
-54.041152139962279
30
0
10
282.73038954646404
20
-53.931607990876309
30
0
10
279.2889182955725
20
-53.597635961917305
30
0
10
274.83415618132761
20
-52.75204344583122
30
0
10
270.22008424494106
20
-50.991444124100269
30
0
10
266.17193558580152
20
-48.048360569391136
30
0
10
263.22388331633584
20
-44.763743431440204
30
0
10
260.74199788234898
20
-41.550639954201273
30
0
10
258.16563870101498
20
-38.773803497968395
30
0
10
255.12335320702488
20
-36.661111080927896
30
0
10
251.45305320409773
20
-35.289477346329114
30
0
10
247.97367250649089
20
-34.789730774271746
30
0
10
245.06286306654783
20
-34.73944507636709
30
0
10
242.99052173385232
20
-34.847872318858521
30
0
10
241.92140480889896
20
-34.937570560224522
30
0
0
SPLINE
5
282
100
AcDbEntity
8
0
100
AcDbSpline
70
4
71
5
72
21
73
15
74
0
42
0.000000001
43
0.0000000001
44
0.0000000001
40
0
40
0
40
0
40
0
40
0
40
0
40
0.10000000000000001
40
0.20000000000000001
40
0.30000000000000004
40
0.40000000000000002
40
0.5
40
0.59999999999999998
40
0.69999999999999996
40
0.79999999999999993
40
0.89999999999999991
40
1
40
1
40
1
40
1
40
1
40
1
41
1
41
1
41
1
41
1
41
1
41
1
41
1
41
1
41
1
41
1
41
1
41
1
41
1
41
1
41
1
10
304.04115213996226
20
-65.430961306196238
30
0
10
303.93160799087633
20
-67.269610453535932
30
0
10
303.59763596191732
20
-70.711081704427528
30
0
10
302.75204344583119
20
-75.1658438186724
30
0
10
300.99144412410027
20
-79.779915755058937
30
0
10
298.04836056939115
20
-83.828064414198479
30
0
10
294.76374343144022
20
-86.776116683664171
30
0
10
291.55063995420124
20
-89.258002117651046
30
0
10
288.7738034979684
20
-91.834361298984987
30
0
10
286.66111108092787
20
-94.876646792975123
30
0
10
285.28947734632914
20
-98.546946795902272
30
0
10
284.78973077427173
20
-102.02632749350911
30
0
10
284.73944507636708
20
-104.93713693345217
30
0
10
284.84787231885849
20
-107.00947826614768
30
0
10
284.93757056022451
20
-108.07859519110103
30
0
0
SPLINE
5
283
100
AcDbEntity
8
0
100
AcDbSpline
70
4
71
5
72
26
73
20
74
0
42
0.000000001
43
0.0000000001
44
0.0000000001
40
0
40
0
40
0
40
0
40
0
40
0
40
0.066666666666666666
40
0.13333333333333333
40
0.20000000000000001
40
0.26666666666666666
40
0.33333333333333331
40
0.39999999999999997
40
0.46666666666666662
40
0.53333333333333333
40
0.59999999999999998
40
0.66666666666666663
40
0.73333333333333328
40
0.79999999999999993
40
0.86666666666666659
40
0.93333333333333324
40
1
40
1
40
1
40
1
40
1
40
1
41
1
41
1
41
1
41
1
41
1
41
1
41
1
41
1
41
1
41
1
41
1
41
1
41
1
41
1
41
1
41
1
41
1
41
1
41
1
41
1
10
300
20
-50
30
0
10
300.33552053013091
20
-50.686039209887532
30
0
10
300.97286800931363
20
-52.071748767819095
30
0
10
301.82780735290032
20
-54.191206995073955
30
0
10
302.76410272735274
20
-57.099529589243048
30
0
10
303.59062874937803
20
-60.873960409716865
30
0
10
304.07573902973706
20
-64.786197946641124
30
0
10
304.2366644539452
20
-68.828793826917803
30
0
10
304.1163583813975
20
-72.983553523845927
30
0
10
303.79040453342219
20
-77.218690203082119
30
0
10
303.35151911511315
20
-81.495283586582445
30
0
10
302.89833036710138
20
-85.771975406705081
30
0
10
302.52311577830034
20
-90.010112323847295
30
0
10
302.3003375532021
20
-94.178570305038647
30
0
10
302.27345377163095
20
-98.259321473677304
30
0
10
302.46315139960655
20
-102.24391868104689
30
0
10
302.79309128491855
20
-105.35277602107108
30
0
10
303.14016028647711
20
-107.64040455572331
30
0
10
303.41549276593747
20
-109.14606956826776
30
0
10
303.56414730266869
20
-109.89404689954486
30
0
0
SPLINE
5
284
100
AcDbEntity
8
0
100
AcDbSpline
70
4
71
5
72
26
73
20
74
0
42
0.000000001
43
0.0000000001
44
0.0000000001
40
0
40
0
40
0
40
0
40
0
40
0
40
0.066666666666666666
40
0.13333333333333333
40
0.20000000000000001
40
0.26666666666666666
40
0.33333333333333331
40
0.39999999999999997
40
0.46666666666666662
40
0.53333333333333333
40
0.59999999999999998
40
0.66666666666666663
40
0.73333333333333328
40
0.79999999999999993
40
0.86666666666666659
40
0.93333333333333324
40
1
40
1
40
1
40
1
40
1
40
1
41
1
41
1
41
1
41
1
41
1
41
1
41
1
41
1
41
1
41
1
41
1
41
1
41
1
41
1
41
1
41
1
41
1
41
1
41
1
41
1
10
300
20
-50
30
0
10
300.56427371561256
20
-50.667054267989649
30
0
10
301.63596863382617
20
-52.016521840103529
30
0
10
303.07295253586409
20
-54.086800557852648
30
0
10
304.64534217572742
20
-56.939994725539336
30
0
10
306.03055416144173
20
-60.663263531956417
30
0
10
306.83917542534152
20
-64.542347829854592
30
0
10
307.09972676066002
20
-68.569612258459898
30
0
10
306.88312989494921
20
-72.726015659439227
30
0
10
306.31666791799921
20
-76.977349235699535
30
0
10
305.55826943493787
20
-81.281156507574082
30
0
10
304.776775512124
20
-85.592040768406832
30
0
10
304.13085430260389
20
-89.867334326856962
30
0
10
303.74942655776152
20
-94.072359387191995
30
0
10
303.7082659307581
20
-98.186714113748394
30
0
10
304.04330411452344
20
-102.20070413242777
30
0
10
304.62088433471581
20
-105.32927048254538
30
0
10
305.22712399457527
20
-107.62949570958057
30
0
10
305.70764265517056
20
-109.14259402123517
30
0
10
305.96699164929322
20
-109.89404689954486
30
0
0
SPLINE
5
285
100
AcDbEntity
8
0
100
AcDbSpline
70
4
71
5
72
26
73
20
74
0
42
0.000000001
43
0.0000000001
44
0.0000000001
40
0
40
0
40
0
40
0
40
0
40
0
40
0.066666666666666666
40
0.13333333333333333
40
0.20000000000000001
40
0.26666666666666666
40
0.33333333333333331
40
0.39999999999999997
40
0.46666666666666662
40
0.53333333333333333
40
0.59999999999999998
40
0.66666666666666663
40
0.73333333333333328
40
0.79999999999999993
40
0.86666666666666659
40
0.93333333333333324
40
1
40
1
40
1
40
1
40
1
40
1
41
1
41
1
41
1
41
1
41
1
41
1
41
1
41
1
41
1
41
1
41
1
41
1
41
1
41
1
41
1
41
1
41
1
41
1
41
1
41
1
10
300
20
-50
30
0
10
301.08679857077044
20
-50.534646084150658
30
0
10
303.20779968347426
20
-51.612015633229831
30
0
10
306.23151422476656
20
-53.252301948763545
30
0
10
309.9452568665468
20
-55.488168057202039
30
0
10
314.04789276076065
20
-58.364830746528291
30
0
10
317.60596598300009
20
-61.320983724191187
30
0
10
320.62935107869004
20
-64.348824017990296
30
0
10
323.15464535601848
20
-67.432120705088821
30
0
10
325.25888679147931
20
-70.54288467283169
30
0
10
327.07541754154704
20
-73.637658508200843
30
0
10
328.76814993507566
20
-76.664877365969915
30
0
10
330.5056154163459
20
-79.572628072298812
30
0
10
332.43857132624123
20
-82.315468111024359
30
0
10
334.66961606599796
20
-84.864312350640532
30
0
10
337.24862105930765
20
-87.207468598341578
30
0
10
339.60523747759117
20
-88.915610258969792
30
0
10
341.53785571454409
20
-90.104255162541804
30
0
10
342.89915867051894
20
-90.855881820824109
30
0
10
343.59803179731568
20
-91.22149467693103
30
0
0
SPLINE
5
286
100
AcDbEntity
8
0
100
AcDbSpline
70
4
71
5
72
26
73
20
74
0
42
0.000000001
43
0.0000000001
44
0.0000000001
40
0
40
0
40
0
40
0
40
0
40
0
40
0.066666666666666666
40
0.13333333333333333
40
0.20000000000000001
40
0.26666666666666666
40
0.33333333333333331
40
0.39999999999999997
40
0.46666666666666662
40
0.53333333333333333
40
0.59999999999999998
40
0.66666666666666663
40
0.73333333333333328
40
0.79999999999999993
40
0.86666666666666659
40
0.93333333333333324
40
1
40
1
40
1
40
1
40
1
40
1
41
1
41
1
41
1
41
1
41
1
41
1
41
1
41
1
41
1
41
1
41
1
41
1
41
1
41
1
41
1
41
1
41
1
41
1
41
1
41
1
10
300
20
-50
30
0
10
301.1530191460318
20
-50.375596920929091
30
0
10
303.39760735455479
20
-51.150583279421546
30
0
10
306.58014224376592
20
-52.384439091069943
30
0
10
310.45212227368654
20
-54.173381707914245
30
0
10
314.66301836349714
20
-56.651860367986835
30
0
10
318.24265028842581
20
-59.369673692114944
30
0
10
321.21047608160319
20
-62.3115341223847
30
0
10
323.62159436608607
20
-65.443128659743621
30
0
10
325.58718942819075
20
-68.701393995933444
30
0
10
327.2854693001986
20
-71.989669189576162
30
0
10
328.92511072342995
20
-75.196346516989252
30
0
10
330.71559860000207
20
-78.210513231240952
30
0
10
332.83880002145122
20
-80.936984331530624
30
0
10
335.41105322708376
20
-83.317080237670524
30
0
10
338.48703144376987
20
-85.325866090248752
30
0
10
341.36545372098522
20
-86.631111118975525
30
0
10
343.75818272791196
20
-87.442069596569098
30
0
10
345.45656329243832
20
-87.908582345117338
30
0
10
346.33155953999398
20
-88.123307707910044
30
0
0
SPLINE
5
287
100
AcDbEntity
8
0
100
AcDbSpline
70
4
71
5
72
21
73
15
74
0
42
0.000000001
43
0.0000000001
44
0.0000000001
40
0
40
0
40
0
40
0
40
0
40
0
40
0.10000000000000001
40
0.20000000000000001
40
0.30000000000000004
40
0.40000000000000002
40
0.5
40
0.59999999999999998
40
0.69999999999999996
40
0.79999999999999993
40
0.89999999999999991
40
1
40
1
40
1
40
1
40
1
40
1
41
1
41
1
41
1
41
1
41
1
41
1
41
1
41
1
41
1
41
1
41
1
41
1
41
1
41
1
41
1
10
315.43096130619625
20
-45.958847860037721
30
0
10
317.26961045353596
20
-46.068392009123691
30
0
10
320.71108170442756
20
-46.402364038082695
30
0
10
325.16584381867239
20
-47.24795655416878
30
0
10
329.77991575505894
20
-49.008555875899731
30
0
10
333.82806441419848
20
-51.951639430608864
30
0
10
336.77611668366416
20
-55.236256568559796
30
0
10
339.25800211765107
20
-58.449360045798727
30
0
10
341.83436129898496
20
-61.226196502031613
30
0
10
344.87664679297507
20
-63.338888919072112
30
0
10
348.54694679590227
20
-64.710522653670893
30
0
10
352.02632749350914
20
-65.210269225728268
30
0
10
354.93713693345217
20
-65.26055492363291
30
0
10
357.00947826614765
20
-65.152127681141479
30
0
10
358.07859519110104
20
-65.062429439775485
30
0
0
SPLINE
5
288
100
AcDbEntity
8
0
100
AcDbSpline
70
4
71
5
72
26
73
20
74
0
42
0.000000001
43
0.0000000001
44
0.0000000001
40
0
40
0
40
0
40
0
40
0
40
0
40
0.066666666666666666
40
0.13333333333333333
40
0.20000000000000001
40
0.26666666666666666
40
0.33333333333333331
40
0.39999999999999997
40
0.46666666666666662
40
0.53333333333333333
40
0.59999999999999998
40
0.66666666666666663
40
0.73333333333333328
40
0.79999999999999993
40
0.86666666666666659
40
0.93333333333333324
40
1
40
1
40
1
40
1
40
1
40
1
41
1
41
1
41
1
41
1
41
1
41
1
41
1
41
1
41
1
41
1
41
1
41
1
41
1
41
1
41
1
41
1
41
1
41
1
41
1
41
1
10
300
20
-50
30
0
10
300.68603920988755
20
-49.664479469869065
30
0
10
302.07174876781909
20
-49.027131990686357
30
0
10
304.19120699507397
20
-48.172192647099685
30
0
10
307.09952958924305
20
-47.235897272647271
30
0
10
310.87396040971686
20
-46.40937125062198
30
0
10
314.7861979466411
20
-45.924260970262942
30
0
10
318.82879382691777
20
-45.763335546054833
30
0
10
322.9835535238459
20
-45.883641618602518
30
0
10
327.21869020308213
20
-46.209595466577795
30
0
10
331.49528358658245
20
-46.648480884886858
30
0
10
335.77197540670511
20
-47.10166963289862
30
0
10
340.01011232384724
20
-47.476884221699621
30
0
10
344.17857030503865
20
-47.699662446797895
30
0
10
348.25932147367729
20
-47.726546228369038
30
0
10
352.24391868104692
20
-47.536848600393419
30
0
10
355.35277602107107
20
-47.206908715081454
30
0
10
357.64040455572331
20
-46.859839713522888
30
0
10
359.14606956826776
20
-46.584507234062528
30
0
10
359.89404689954483
20
-46.435852697331335
30
0
0
SPLINE
5
289
100
AcDbEntity
8
0
100
AcDbSpline
70
4
71
5
72
26
73
20
74
0
42
0.000000001
43
0.0000000001
44
0.0000000001
40
0
40
0
40
0
40
0
40
0
40
0
40
0.066666666666666666
40
0.13333333333333333
40
0.20000000000000001
40
0.26666666666666666
40
0.33333333333333331
40
0.39999999999999997
40
0.46666666666666662
40
0.53333333333333333
40
0.59999999999999998
40
0.66666666666666663
40
0.73333333333333328
40
0.79999999999999993
40
0.86666666666666659
40
0.93333333333333324
40
1
40
1
40
1
40
1
40
1
40
1
41
1
41
1
41
1
41
1
41
1
41
1
41
1
41
1
41
1
41
1
41
1
41
1
41
1
41
1
41
1
41
1
41
1
41
1
41
1
41
1
10
300
20
-50
30
0
10
300.66705426798967
20
-49.435726284387428
30
0
10
302.01652184010351
20
-48.36403136617384
30
0
10
304.08680055785265
20
-46.927047464135889
30
0
10
306.93999472553935
20
-45.354657824272564
30
0
10
310.66326353195643
20
-43.969445838558279
30
0
10
314.54234782985458
20
-43.160824574658456
30
0
10
318.56961225845987
20
-42.900273239339967
30
0
10
322.72601565943921
20
-43.116870105050786
30
0
10
326.97734923569953
20
-43.683332082000781
30
0
10
331.28115650757411
20
-44.441730565062166
30
0
10
335.59204076840683
20
-45.223224487875989
30
0
10
339.86733432685696
20
-45.869145697396092
30
0
10
344.07235938719197
20
-46.250573442238462
30
0
10
348.18671411374839
20
-46.291734069241876
30
0
10
352.2007041324278
20
-45.956695885476577
30
0
10
355.32927048254533
20
-45.379115665284225
30
0
10
357.62949570958057
20
-44.772876005424735
30
0
10
359.1425940212352
20
-44.292357344829433
30
0
10
359.89404689954483
20
-44.033008350706751
30
0
0
SPLINE
5
290
100
AcDbEntity
8
0
100
AcDbSpline
70
4
71
5
72
21
73
15
74
0
42
0.000000001
43
0.0000000001
44
0.0000000001
40
0
40
0
40
0
40
0
40
0
40
0
40
0.10000000000000001
40
0.20000000000000001
40
0.30000000000000004
40
0.40000000000000002
40
0.5
40
0.59999999999999998
40
0.69999999999999996
40
0.79999999999999993
40
0.89999999999999991
40
1
40
1
40
1
40
1
40
1
40
1
41
1
41
1
41
1
41
1
41
1
41
1
41
1
41
1
41
1
41
1
41
1
41
1
41
1
41
1
41
1
10
329.3595841606529
20
-44.114276067668186
30
0
10
330.56386309161667
20
-44.288665201384433
30
0
10
332.80213537559337
20
-44.500871319795905
30
0
10
335.64871635310425
20
-44.409487558841285
30
0
10
338.49041789669451
20
-43.523509410207176
30
0
10
340.82389029278613
20
-41.444485772025544
30
0
10
342.40268162659402
20
-38.771912722324714
30
0
10
343.69268610064859
20
-35.88539916571407
30
0
10
345.08691877643389
20
-33.104907001516494
30
0
10
346.81330577724384
20
-30.614811201123135
30
0
10
348.97275484068138
20
-28.495522798095372
30
0
10
351.06948493043035
20
-27.11395819680255
30
0
10
352.84621092598957
20
-26.251006841286593
30
0
10
354.11998434512395
20
-25.751457334255683
30
0
10
354.77919262685009
20
-25.520619796439796
30
0
0
SPLINE
5
291
100
AcDbEntity
8
0
100
AcDbSpline
70
4
71
5
72
26
73
20
74
0
42
0.000000001
43
0.0000000001
44
0.0000000001
40
0
40
0
40
0
40
0
40
0
40
0
40
0.066666666666666666
40
0.13333333333333333
40
0.20000000000000001
40
0.26666666666666666
40
0.33333333333333331
40
0.39999999999999997
40
0.46666666666666662
40
0.53333333333333333
40
0.59999999999999998
40
0.66666666666666663
40
0.73333333333333328
40
0.79999999999999993
40
0.86666666666666659
40
0.93333333333333324
40
1
40
1
40
1
40
1
40
1
40
1
41
1
41
1
41
1
41
1
41
1
41
1
41
1
41
1
41
1
41
1
41
1
41
1
41
1
41
1
41
1
41
1
41
1
41
1
41
1
41
1
10
300
20
-50
30
0
10
300.53464608415067
20
-48.913201429229566
30
0
10
301.61201563322982
20
-46.792200316525737
30
0
10
303.25230194876355
20
-43.768485775233458
30
0
10
305.48816805720202
20
-40.054743133453208
30
0
10
308.3648307465283
20
-35.952107239239375
30
0
10
311.32098372419119
20
-32.394034016999896
30
0
10
314.3488240179903
20
-29.37064892130995
30
0
10
317.43212070508883
20
-26.845354643981494
30
0
10
320.54288467283175
20
-24.74111320852068
30
0
10
323.63765850820084
20
-22.924582458452917
30
0
10
326.66487736596991
20
-21.231850064924373
30
0
10
329.57262807229881
20
-19.494384583654067
30
0
10
332.3154681110243
20
-17.561428673758783
30
0
10
334.86431235064049
20
-15.330383934002061
30
0
10
337.20746859834151
20
-12.751378940692266
30
0
10
338.91561025896976
20
-10.394762522408776
30
0
10
340.10425516254173
20
-8.4621442854558993
30
0
10
340.85588182082404
20
-7.1008413294810069
30
0
10
341.221494676931
20
-6.401968202684305
30
0
0
SPLINE
5
292
100
AcDbEntity
8
0
100
AcDbSpline
70
4
71
5
72
26
73
20
74
0
42
0.000000001
43
0.0000000001
44
0.0000000001
40
0
40
0
40
0
40
0
40
0
40
0
40
0.066666666666666666
40
0.13333333333333333
40
0.20000000000000001
40
0.26666666666666666
40
0.33333333333333331
40
0.39999999999999997
40
0.46666666666666662
40
0.53333333333333333
40
0.59999999999999998
40
0.66666666666666663
40
0.73333333333333328
40
0.79999999999999993
40
0.86666666666666659
40
0.93333333333333324
40
1
40
1
40
1
40
1
40
1
40
1
41
1
41
1
41
1
41
1
41
1
41
1
41
1
41
1
41
1
41
1
41
1
41
1
41
1
41
1
41
1
41
1
41
1
41
1
41
1
41
1
10
300
20
-50
30
0
10
300.37559692092907
20
-48.846980853968198
30
0
10
301.15058327942154
20
-46.602392645445185
30
0
10
302.38443909106996
20
-43.419857756234052
30
0
10
304.17338170791425
20
-39.54787772631348
30
0
10
306.65186036798684
20
-35.336981636502848
30
0
10
309.36967369211493
20
-31.757349711574186
30
0
10
312.31153412238473
20
-28.789523918396831
30
0
10
315.44312865974359
20
-26.378405633913946
30
0
10
318.70139399593347
20
-24.412810571809196
30
0
10
321.98966918957615
20
-22.714530699801372
30
0
10
325.19634651698925
20
-21.074889276570001
30
0
10
328.21051323124095
20
-19.284401399997915
30
0
10
330.9369843315306
20
-17.161199978548698
30
0
10
333.3170802376705
20
-14.588946772916209
30
0
10
335.32586609024872
20
-11.51296855623011
30
0
10
336.63111111897547
20
-8.6345462790147565
30
0
10
337.44206959656907
20
-6.2418172720880172
30
0
10
337.90858234511734
20
-4.54343670756165
30
0
10
338.12330770790999
20
-3.6684404600060105
30
0
0
SPLINE
5
293
100
AcDbEntity
8
0
100
AcDbSpline
70
4
71
5
72
21
73
15
74
0
42
0.000000001
43
0.0000000001
44
0.0000000001
40
0
40
0
40
0
40
0
40
0
40
0
40
0.10000000000000001
40
0.20000000000000001
40
0.30000000000000004
40
0.40000000000000002
40
0.5
40
0.59999999999999998
40
0.69999999999999996
40
0.79999999999999993
40
0.89999999999999991
40
1
40
1
40
1
40
1
40
1
40
1
41
1
41
1
41
1
41
1
41
1
41
1
41
1
41
1
41
1
41
1
41
1
41
1
41
1
41
1
41
1
10
295.95884786003774
20
-34.569038693803762
30
0
10
296.06839200912367
20
-32.73038954646406
30
0
10
296.40236403808268
20
-29.288918295572479
30
0
10
297.24795655416881
20
-24.8341561813276
30
0
10
299.00855587589973
20
-20.22008424494107
30
0
10
301.95163943060885
20
-16.171935585801513
30
0
10
305.23625656855978
20
-13.223883316335829
30
0
10
308.44936004579876
20
-10.741997882348961
30
0
10
311.2261965020316
20
-8.1656387010150056
30
0
10
313.33888891907213
20
-5.12335320702487
30
0
10
314.71052265367086
20
-1.4530532040977207
30
0
10
315.21026922572827
20
2.0263274935091147
30
0
10
315.26055492363292
20
4.9371369334521731
30
0
10
315.15212768114151
20
7.0094782661476884
30
0
10
315.06242943977549
20
8.0785951911010301
30
0
0
SPLINE
5
294
100
AcDbEntity
8
0
100
AcDbSpline
70
4
71
5
72
26
73
20
74
0
42
0.000000001
43
0.0000000001
44
0.0000000001
40
0
40
0
40
0
40
0
40
0
40
0
40
0.066666666666666666
40
0.13333333333333333
40
0.20000000000000001
40
0.26666666666666666
40
0.33333333333333331
40
0.39999999999999997
40
0.46666666666666662
40
0.53333333333333333
40
0.59999999999999998
40
0.66666666666666663
40
0.73333333333333328
40
0.79999999999999993
40
0.86666666666666659
40
0.93333333333333324
40
1
40
1
40
1
40
1
40
1
40
1
41
1
41
1
41
1
41
1
41
1
41
1
41
1
41
1
41
1
41
1
41
1
41
1
41
1
41
1
41
1
41
1
41
1
41
1
41
1
41
1
10
300
20
-50
30
0
10
299.66447946986909
20
-49.313960790112468
30
0
10
299.02713199068637
20
-47.928251232180905
30
0
10
298.17219264709968
20
-45.808793004926045
30
0
10
297.23589727264726
20
-42.900470410756952
30
0
10
296.40937125062197
20
-39.126039590283135
30
0
10
295.92426097026294
20
-35.213802053358876
30
0
10
295.7633355460548
20
-31.171206173082204
30
0
10
295.8836416186025
20
-27.016446476154066
30
0
10
296.20959546657781
20
-22.781309796917881
30
0
10
296.64848088488685
20
-18.504716413417555
30
0
10
297.10166963289862
20
-14.228024593294926
30
0
10
297.47688422169966
20
-9.9898876761526978
30
0
10
297.6996624467979
20
-5.8214296949613598
30
0
10
297.72654622836905
20
-1.7406785263226965
30
0
10
297.53684860039345
20
2.2439186810468925
30
0
10
297.20690871508145
20
5.3527760210710795
30
0
10
296.85983971352289
20
7.6404045557233147
30
0
10
296.58450723406253
20
9.1460695682677695
30
0
10
296.43585269733131
20
9.8940468995448683
30
0
0
SPLINE
5
295
100
AcDbEntity
8
0
100
AcDbSpline
70
4
71
5
72
26
73
20
74
0
42
0.000000001
43
0.0000000001
44
0.0000000001
40
0
40
0
40
0
40
0
40
0
40
0
40
0.066666666666666666
40
0.13333333333333333
40
0.20000000000000001
40
0.26666666666666666
40
0.33333333333333331
40
0.39999999999999997
40
0.46666666666666662
40
0.53333333333333333
40
0.59999999999999998
40
0.66666666666666663
40
0.73333333333333328
40
0.79999999999999993
40
0.86666666666666659
40
0.93333333333333324
40
1
40
1
40
1
40
1
40
1
40
1
41
1
41
1
41
1
41
1
41
1
41
1
41
1
41
1
41
1
41
1
41
1
41
1
41
1
41
1
41
1
41
1
41
1
41
1
41
1
41
1
10
300
20
-50
30
0
10
299.43572628438744
20
-49.332945732010351
30
0
10
298.36403136617383
20
-47.983478159896471
30
0
10
296.92704746413591
20
-45.913199442147352
30
0
10
295.35465782427258
20
-43.060005274460664
30
0
10
293.96944583855827
20
-39.336736468043583
30
0
10
293.16082457465848
20
-35.457652170145408
30
0
10
292.90027323933998
20
-31.430387741540109
30
0
10
293.11687010505079
20
-27.273984340560773
30
0
10
293.68333208200079
20
-23.022650764300465
30
0
10
294.44173056506213
20
-18.718843492425918
30
0
10
295.223224487876
20
-14.407959231593175
30
0
10
295.86914569739611
20
-10.132665673143038
30
0
10
296.25057344223848
20
-5.9276406128079984
30
0
10
296.2917340692419
20
-1.8132858862515988
30
0
10
295.95669588547656
20
2.2007041324277665
30
0
10
295.37911566528419
20
5.3292704825453896
30
0
10
294.77287600542473
20
7.6294957095805671
30
0
10
294.29235734482944
20
9.142594021235162
30
0
10
294.03300835070678
20
9.8940468995448683
30
0
0
SPLINE
5
296
100
AcDbEntity
8
0
100
AcDbSpline
70
4
71
5
72
21
73
15
74
0
42
0.000000001
43
0.0000000001
44
0.0000000001
40
0
40
0
40
0
40
0
40
0
40
0
40
0.10000000000000001
40
0.20000000000000001
40
0.30000000000000004
40
0.40000000000000002
40
0.5
40
0.59999999999999998
40
0.69999999999999996
40
0.79999999999999993
40
0.89999999999999991
40
1
40
1
40
1
40
1
40
1
40
1
41
1
41
1
41
1
41
1
41
1
41
1
41
1
41
1
41
1
41
1
41
1
41
1
41
1
41
1
41
1
10
294.11427606766824
20
-20.640415839347099
30
0
10
294.28866520138445
20
-19.436136908383368
30
0
10
294.50087131979592
20
-17.197864624406698
30
0
10
294.40948755884131
20
-14.351283646895752
30
0
10
293.52350941020717
20
-11.509582103305505
30
0
10
291.44448577202559
20
-9.1761097072138043
30
0
10
288.77191272232471
20
-7.5973183734059191
30
0
10
285.88539916571409
20
-6.3073138993514277
30
0
10
283.10490700151649
20
-4.9130812235661026
30
0
10
280.61481120112313
20
-3.1866942227561879
30
0
10
278.49552279809535
20
-1.0272451593186105
30
0
10
277.11395819680257
20
1.0694849304303489
30
0
10
276.2510068412866
20
2.8462109259895385
30
0
10
275.75145733425569
20
4.119984345124017
30
0
10
275.5206197964398
20
4.7791926268500617
30
0
0
SPLINE
5
297
100
AcDbEntity
8
0
100
AcDbSpline
70
4
71
5
72
26
73
20
74
0
42
0.000000001
43
0.0000000001
44
0.0000000001
40
0
40
0
40
0
40
0
40
0
40
0
40
0.066666666666666666
40
0.13333333333333333
40
0.20000000000000001
40
0.26666666666666666
40
0.33333333333333331
40
0.39999999999999997
40
0.46666666666666662
40
0.53333333333333333
40
0.59999999999999998
40
0.66666666666666663
40
0.73333333333333328
40
0.79999999999999993
40
0.86666666666666659
40
0.93333333333333324
40
1
40
1
40
1
40
1
40
1
40
1
41
1
41
1
41
1
41
1
41
1
41
1
41
1
41
1
41
1
41
1
41
1
41
1
41
1
41
1
41
1
41
1
41
1
41
1
41
1
41
1
10
300
20
-50
30
0
10
298.91320142922956
20
-49.465353915849342
30
0
10
296.79220031652574
20
-48.387984366770169
30
0
10
293.76848577523344
20
-46.747698051236455
30
0
10
290.0547431334532
20
-44.511831942797961
30
0
10
285.95210723923935
20
-41.635169253471709
30
0
10
282.39403401699991
20
-38.679016275808813
30
0
10
279.37064892130996
20
-35.651175982009704
30
0
10
276.84535464398152
20
-32.567879294911179
30
0
10
274.74111320852069
20
-29.457115327168317
30
0
10
272.9245824584529
20
-26.362341491799164
30
0
10
271.2318500649244
20
-23.335122634030085
30
0
10
269.4943845836541
20
-20.427371927701188
30
0
10
267.56142867375877
20
-17.684531888975634
30
0
10
265.3303839340021
20
-15.135687649359468
30
0
10
262.75137894069229
20
-12.792531401658422
30
0
10
260.39476252240883
20
-11.084389741030201
30
0
10
258.46214428545591
20
-9.8957448374581958
30
0
10
257.10084132948106
20
-9.1441181791758908
30
0
10
256.40196820268432
20
-8.7785053230689769
30
0
0
SPLINE
5
298
100
AcDbEntity
8
0
100
AcDbSpline
70
4
71
5
72
26
73
20
74
0
42
0.000000001
43
0.0000000001
44
0.0000000001
40
0
40
0
40
0
40
0
40
0
40
0
40
0.066666666666666666
40
0.13333333333333333
40
0.20000000000000001
40
0.26666666666666666
40
0.33333333333333331
40
0.39999999999999997
40
0.46666666666666662
40
0.53333333333333333
40
0.59999999999999998
40
0.66666666666666663
40
0.73333333333333328
40
0.79999999999999993
40
0.86666666666666659
40
0.93333333333333324
40
1
40
1
40
1
40
1
40
1
40
1
41
1
41
1
41
1
41
1
41
1
41
1
41
1
41
1
41
1
41
1
41
1
41
1
41
1
41
1
41
1
41
1
41
1
41
1
41
1
41
1
10
300
20
-50
30
0
10
298.8469808539682
20
-49.624403079070909
30
0
10
296.60239264544521
20
-48.849416720578454
30
0
10
293.41985775623408
20
-47.615560908930057
30
0
10
289.54787772631346
20
-45.826618292085755
30
0
10
285.33698163650286
20
-43.348139632013165
30
0
10
281.75734971157419
20
-40.630326307885056
30
0
10
278.78952391839681
20
-37.6884658776153
30
0
10
276.37840563391399
20
-34.556871340256379
30
0
10
274.41281057180919
20
-31.298606004066549
30
0
10
272.7145306998014
20
-28.010330810423838
30
0
10
271.07488927657005
20
-24.803653483010741
30
0
10
269.28440139999793
20
-21.789486768759048
30
0
10
267.16119997854872
20
-19.063015668469383
30
0
10
264.58894677291624
20
-16.682919762329469
30
0
10
261.51296855623013
20
-14.674133909751248
30
0
10
258.63454627901478
20
-13.368888881024468
30
0
10
256.24181727208804
20
-12.557930403430895
30
0
10
254.54343670756168
20
-12.091417654882655
30
0
10
253.66844046000602
20
-11.876692292089963
30
0
0
LWPOLYLINE
5
299
100
AcDbEntity
8
0
100
AcDbPolyline
90
4
70
1
43
0.0
10
-34.000000506639481
20
-77.000001147389412
10
-28.000000417232513
20
-77.000001147389412
10
-28.000000417232513
20
-85.000001266598701
10
-34.000000506639481
20
-85.000001266598701
0
LWPOLYLINE
5
300
100
AcDbEntity
8
0
100
AcDbPolyline
90
4
70
1
43
0.0
10
18.438679939656168
20
-77.000001147389412
10
12.438679850249201
20
-77.000001147389412
10
12.438679850249201
20
-85.000001266598701
10
18.438679939656168
20
-85.000001266598701
0
LWPOLYLINE
5
301
100
AcDbEntity
8
0
100
AcDbPolyline
90
4
70
1
43
0.0
10
50
20
-50
10
56
20
-50
10
56
20
-58
10
50
20
-58
0
SPLINE
5
302
100
AcDbEntity
8
0
100
AcDbSpline
70
4
71
5
72
21
73
15
74
0
42
0.000000001
43
0.0000000001
44
0.0000000001
40
0
40
0
40
0
40
0
40
0
40
0
40
0.10000000000000001
40
0.20000000000000001
40
0.30000000000000004
40
0.40000000000000002
40
0.5
40
0.59999999999999998
40
0.69999999999999996
40
0.79999999999999993
40
0.89999999999999991
40
1
40
1
40
1
40
1
40
1
40
1
41
1
41
1
41
1
41
1
41
1
41
1
41
1
41
1
41
1
41
1
41
1
41
1
41
1
41
1
41
1
10
56
20
-50
30
0
10
55.998685811156491
20
-49.318685785607116
30
0
10
56.025864240943719
20
-47.985864165486653
30
0
10
56.156049567663317
20
-46.076049420917741
30
0
10
56.511431236958181
20
-43.711431002425066
30
0
10
57.279224423020452
20
-41.079224091677197
30
0
10
58.39950050243695
20
-38.799500088358066
30
0
10
59.901024759607594
20
-36.901024278012038
30
0
10
61.799500726695094
20
-35.399500193425425
30
0
10
64.079224868923248
20
-34.279224299193544
30
0
10
66.711431901007956
20
-33.511431308883679
30
0
10
69.076050403114209
20
-33.156049803403292
30
0
10
70.985865203223028
20
-33.025864603262995
30
0
10
72.318686857232009
20
-32.998686259484558
30
0
10
73.000001087784767
20
-33.000000491738319
30
0
0
SPLINE
5
303
100
AcDbEntity
8
0
100
AcDbSpline
70
4
71
5
72
16
73
10
74
0
42
0.000000001
43
0.0000000001
44
0.0000000001
40
0
40
0
40
0
40
0
40
0
40
0
40
0.20000000000000001
40
0.40000000000000002
40
0.60000000000000009
40
0.80000000000000004
40
1
40
1
40
1
40
1
40
1
40
1
41
1
41
1
41
1
41
1
41
1
41
1
41
1
41
1
41
1
41
1
10
73.000001087784767
20
-33.000000491738319
30
0
10
73.177131487839262
20
-33.998183405284408
30
0
10
73.406578462100569
20
-35.879856827656205
30
0
10
73.376652559668571
20
-38.358569640654594
30
0
10
72.698929100808954
20
-41.045129776060598
30
0
10
71.19482508455431
20
-43.535771946233623
30
0
10
69.743640125754979
20
-44.835579031705002
30
0
10
68.61744298661651
20
-45.348767405314341
30
0
10
67.861027939403883
20
-45.462871058279497
30
0
10
67.481421829261251
20
-45.462871058279518
30
0
0
LINE
5
304
100
AcDbEntity
8
0
100
AcDbLine
10
67.481421829261251
20
-45.462871058279518
30
0
11
67.481421829261251
21
-62.394233009949211
31
0
0
LINE
5
305
100
AcDbEntity
8
0
100
AcDbLine
10
73.817935178068211
20
-46.359800538726418
30
0
11
73.817935178068211
21
-61.640199461273596
31
0
0
LINE
5
306
100
AcDbEntity
8
0
100
AcDbLine
10
77.283290124094705
20
-47.356061419730288
30
0
11
77.283290124094705
21
-60.643938580269719
31
0
0
LINE
5
307
100
AcDbEntity
8
0
100
AcDbLine
10
80.706025484846435
20
-48.744023885153155
30
0
11
80.706025484846435
21
-59.255976114846845
31
0
0
LINE
5
308
100
AcDbEntity
8
0
100
AcDbLine
10
84.055301438385129
20
-50.481719141760863
30
0
11
84.055301438385129
21
-57.518280858239152
31
0
0
LINE
5
309
100
AcDbEntity
8
0
100
AcDbLine
10
86.641887652740976
20
-52.05766402913946
30
0
11
86.641887652740976
21
-55.94233597086054
31
0
0
LINE
5
310
100
AcDbEntity
8
0
100
AcDbLine
10
60.000000894069672
20
-37.000000551342964
30
0
11
67.481421829261251
21
-45.462871058279518
31
0
0
LINE
5
311
100
AcDbEntity
8
0
100
AcDbLine
10
63.740711361665461
20
-34.539524692058919
30
0
11
70.901711353188844
21
-43.576301477640598
31
0
0
LINE
5
312
100
AcDbEntity
8
0
100
AcDbLine
10
67.786818061778618
20
-33.39972358972544
30
0
11
73.003005640263311
21
-39.300196293909202
31
0
0
SPLINE
5
313
100
AcDbEntity
8
0
100
AcDbSpline
70
4
71
5
72
16
73
10
74
0
42
0.000000001
43
0.0000000001
44
0.0000000001
40
0
40
0
40
0
40
0
40
0
40
0
40
0.20000000000000001
40
0.40000000000000002
40
0.60000000000000009
40
0.80000000000000004
40
1
40
1
40
1
40
1
40
1
40
1
41
1
41
1
41
1
41
1
41
1
41
1
41
1
41
1
41
1
41
1
10
67.481421829261251
20
-45.462871058279518
30
0
10
68.745944218205054
20
-45.543554073101816
30
0
10
71.162587593955806
20
-45.781037277907743
30
0
10
74.450651795744548
20
-46.36540818850137
30
0
10
78.25388548453752
20
-47.537916869904024
30
0
10
82.363522034006593
20
-49.439938123157006
30
0
10
85.334980877343895
20
-51.175716927545743
30
0
10
87.444123001486929
20
-52.558442810396684
30
0
10
88.800577562909112
20
-53.513875935306089
30
0
10
89.466389576788018
20
-54
30
0
0
LINE
5
314
100
AcDbEntity
8
0
100
AcDbLine
10
70.63244456361042
20
-45.663922472001993
30
0
11
70.632444563610406
21
-62.336077527998022
31
0
0
LINE
5
315
100
AcDbEntity
8
0
100
AcDbLine
10
67.481421829261251
20
-45.462871058279518
30
0
11
56
21
-50
31
0
0
LINE
5
316
100
AcDbEntity
8
0
100
AcDbLine
10
56
20
-54
30
0
11
89.466389576788018
21
-54
31
0
6
DASHED
0
SPLINE
5
317
100
AcDbEntity
8
0
100
AcDbSpline
70
4
71
5
72
21
73
15
74
0
42
0.000000001
43
0.0000000001
44
0.0000000001
40
0
40
0
40
0
40
0
40
0
40
0
40
0.10000000000000001
40
0.20000000000000001
40
0.30000000000000004
40
0.40000000000000002
40
0.5
40
0.59999999999999998
40
0.69999999999999996
40
0.79999999999999993
40
0.89999999999999991
40
1
40
1
40
1
40
1
40
1
40
1
41
1
41
1
41
1
41
1
41
1
41
1
41
1
41
1
41
1
41
1
41
1
41
1
41
1
41
1
41
1
10
56
20
-58.000000000000007
30
0
10
55.998685811156491
20
-58.681314214392884
30
0
10
56.025864240943719
20
-60.014135834513354
30
0
10
56.156049567663317
20
-61.923950579082273
30
0
10
56.511431236958181
20
-64.288568997574941
30
0
10
57.279224423020452
20
-66.92077590832281
30
0
10
58.39950050243695
20
-69.200499911641941
30
0
10
59.901024759607594
20
-71.098975721987969
30
0
10
61.799500726695094
20
-72.600499806574575
30
0
10
64.079224868923248
20
-73.72077570080647
30
0
10
66.711431901007956
20
-74.488568691116328
30
0
10
69.076050403114209
20
-74.843950196596722
30
0
10
70.985865203223028
20
-74.974135396737012
30
0
10
72.318686857232009
20
-75.001313740515457
30
0
10
73.000001087784767
20
-74.999999508261681
30
0
0
LINE
5
318
100
AcDbEntity
8
0
100
AcDbLine
10
67.786818061778618
20
-74.600276410274574
30
0
11
73.003005640263311
21
-68.699803706090819
31
0
0
SPLINE
5
319
100
AcDbEntity
8
0
100
AcDbSpline
70
4
71
5
72
16
73
10
74
0
42
0.000000001
43
0.0000000001
44
0.0000000001
40
0
40
0
40
0
40
0
40
0
40
0
40
0.20000000000000001
40
0.40000000000000002
40
0.60000000000000009
40
0.80000000000000004
40
1
40
1
40
1
40
1
40
1
40
1
41
1
41
1
41
1
41
1
41
1
41
1
41
1
41
1
41
1
41
1
10
73.000001087784767
20
-74.999999508261681
30
0
10
73.177131487839262
20
-74.001816594715592
30
0
10
73.406578462100569
20
-72.120143172343802
30
0
10
73.376652559668571
20
-69.641430359345421
30
0
10
72.698929100808954
20
-66.954870223939409
30
0
10
71.19482508455431
20
-64.464228053766391
30
0
10
69.743640125754979
20
-63.164420968295005
30
0
10
68.61744298661651
20
-62.651232594685666
30
0
10
67.861027939403883
20
-62.537128941720511
30
0
10
67.481421829261251
20
-62.537128941720482
30
0
0
SPLINE
5
320
100
AcDbEntity
8
0
100
AcDbSpline
70
4
71
5
72
16
73
10
74
0
42
0.000000001
43
0.0000000001
44
0.0000000001
40
0
40
0
40
0
40
0
40
0
40
0
40
0.20000000000000001
40
0.40000000000000002
40
0.60000000000000009
40
0.80000000000000004
40
1
40
1
40
1
40
1
40
1
40
1
41
1
41
1
41
1
41
1
41
1
41
1
41
1
41
1
41
1
41
1
10
67.481421829261251
20
-62.537128941720482
30
0
10
68.745944218205054
20
-62.456445926898198
30
0
10
71.162587593955806
20
-62.218962722092272
30
0
10
74.450651795744548
20
-61.634591811498638
30
0
10
78.25388548453752
20
-60.462083130095991
30
0
10
82.363522034006593
20
-58.560061876843001
30
0
10
85.334980877343895
20
-56.824283072454264
30
0
10
87.444123001486929
20
-55.441557189603323
30
0
10
88.800577562909112
20
-54.486124064693925
30
0
10
89.466389576788018
20
-54
30
0
0
LINE
5
321
100
AcDbEntity
8
0
100
AcDbLine
10
63.740711361665461
20
-73.460475307941081
30
0
11
70.901711353188844
21
-64.423698522359402
31
0
0
LINE
5
322
100
AcDbEntity
8
0
100
AcDbLine
10
60.000000894069672
20
-70.999999448657036
30
0
11
67.481421829261251
21
-62.537128941720482
31
0
0
LINE
5
323
100
AcDbEntity
8
0
100
AcDbLine
10
67.481421829261251
20
-62.537128941720482
30
0
11
56
21
-58.000000000000007
31
0
0
LWPOLYLINE
5
324
100
AcDbEntity
8
0
100
AcDbPolyline
90
4
70
1
43
0.0
10
12.947128552823211
20
-152.49653356437955
42
0.81571677383100538
10
9.9411483773553009
20
-167.32331647006555
42
0.10149336171943993
10
12.982113592465145
20
-167.93984139047842
42
0.81571685058193066
10
15.988093767933055
20
-153.11305848479245
42
0.10149332898419175
0
LWPOLYLINE
5
325
100
AcDbEntity
8
0
100
AcDbPolyline
90
4
70
1
43
0.0
10
-21.976527304711123
20
-152.89487100736346
42
0.10149337651387766
10
-25.017492519820969
20
-152.27834608695053
42
0.8157167738310066
10
-28.023472695288877
20
-167.10512899263654
42
0.10149337651387721
10
-24.982507480179031
20
-167.72165391304947
42
0.81571677383100849
0
ENDSEC
0
SECTION
2
OBJECTS
0
DICTIONARY
5
C
100
AcDbDictionary
3
ACAD_GROUP
350
D
3
ACAD_MLINESTYLE
350
17
0
DICTIONARY
5
D
100
AcDbDictionary
0
DICTIONARY
5
1A
330
C
100
AcDbDictionary
0
DICTIONARY
5
17
100
AcDbDictionary
0
ENDSEC
0
EOF
